<?xml version="1.0" encoding="utf-8" standalone="no"?>
<!DOCTYPE svg PUBLIC "-//W3C//DTD SVG 1.1//EN"
  "http://www.w3.org/Graphics/SVG/1.1/DTD/svg11.dtd">
<svg xmlns:xlink="http://www.w3.org/1999/xlink" width="468.71595pt" height="202.498687pt" viewBox="0 0 468.71595 202.498687" xmlns="http://www.w3.org/2000/svg" version="1.1">
 <metadata>
  <rdf:RDF xmlns:dc="http://purl.org/dc/elements/1.1/" xmlns:cc="http://creativecommons.org/ns#" xmlns:rdf="http://www.w3.org/1999/02/22-rdf-syntax-ns#">
   <cc:Work>
    <dc:type rdf:resource="http://purl.org/dc/dcmitype/StillImage"/>
    <dc:date>2024-02-01T13:53:55.297548</dc:date>
    <dc:format>image/svg+xml</dc:format>
    <dc:creator>
     <cc:Agent>
      <dc:title>Matplotlib v3.8.0, https://matplotlib.org/</dc:title>
     </cc:Agent>
    </dc:creator>
   </cc:Work>
  </rdf:RDF>
 </metadata>
 <defs>
  <style type="text/css">*{stroke-linejoin: round; stroke-linecap: butt}</style>
 </defs>
 <g id="figure_1">
  <g id="patch_1">
   <path d="M 0 202.498687 
L 468.71595 202.498687 
L 468.71595 -0 
L 0 -0 
z
" style="fill: #ffffff"/>
  </g>
  <g id="axes_1">
   <g id="patch_2">
    <path d="M 45.603125 164.942437 
L 207.930398 164.942437 
L 207.930398 20.798437 
L 45.603125 20.798437 
z
" style="fill: #ffffff"/>
   </g>
   <g id="QuadContourSet_1">
    <path d="M 146.927216 164.942437 
L 164.769503 164.942437 
L 177.428807 164.942437 
L 187.248126 164.942437 
L 195.271094 164.942437 
L 202.054416 164.942437 
L 207.930398 164.942437 
L 207.930398 158.949392 
L 202.054416 159.223149 
L 195.271094 160.682933 
L 187.248126 160.957373 
L 177.428807 160.053785 
L 164.769503 159.751704 
L 146.927216 160.222786 
L 137.554874 164.942437 
z
" clip-path="url(#pb14a6d6776)" style="fill: #f8f1f8"/>
    <path d="M 116.425625 164.942437 
L 131.231916 164.942437 
L 137.554874 164.942437 
L 146.927216 160.222786 
L 164.769503 159.751704 
L 177.428807 160.053785 
L 187.248126 160.957373 
L 195.271094 160.682933 
L 202.054416 159.223149 
L 207.930398 158.949392 
L 207.930398 149.098775 
L 207.930398 145.464988 
L 202.054416 145.658822 
L 195.271094 146.945486 
L 187.248126 147.150527 
L 177.428807 146.655852 
L 164.769503 146.76667 
L 146.927216 147.632377 
L 143.451143 149.098775 
L 131.231916 153.527255 
L 116.425625 162.04563 
L 112.632634 164.942437 
z
" clip-path="url(#pb14a6d6776)" style="fill: #e7e3f0"/>
    <path d="M 93.947003 164.942437 
L 106.606306 164.942437 
L 112.632634 164.942437 
L 116.425625 162.04563 
L 131.231916 153.527255 
L 143.451143 149.098775 
L 146.927216 147.632377 
L 164.769503 146.76667 
L 177.428807 146.655852 
L 187.248126 147.150527 
L 195.271094 146.945486 
L 202.054416 145.658822 
L 207.930398 145.464988 
L 207.930398 137.857517 
L 207.930398 134.863805 
L 202.054416 135.028241 
L 195.271094 136.463767 
L 187.248126 136.675761 
L 177.428807 136.464496 
L 164.769503 136.844793 
L 151.952532 137.857517 
L 146.927216 138.110771 
L 131.231916 143.194179 
L 118.770438 149.098775 
L 116.425625 150.077152 
L 106.606306 155.735419 
L 93.947003 161.452677 
L 87.01621 164.942437 
z
" clip-path="url(#pb14a6d6776)" style="fill: #d0d1e6"/>
    <path d="M 63.445412 164.942437 
L 76.104716 164.942437 
L 87.01621 164.942437 
L 93.947003 161.452677 
L 106.606306 155.735419 
L 116.425625 150.077152 
L 118.770438 149.098775 
L 131.231916 143.194179 
L 146.927216 138.110771 
L 151.952532 137.857517 
L 164.769503 136.844793 
L 177.428807 136.464496 
L 187.248126 136.675761 
L 195.271094 136.463767 
L 202.054416 135.028241 
L 207.930398 134.863805 
L 207.930398 125.182696 
L 202.054416 125.364979 
L 195.271094 126.61305 
L 187.248126 126.780037 
L 177.428807 126.923231 
L 164.769503 127.456261 
L 146.927216 129.041925 
L 131.231916 134.565015 
L 124.861874 137.857517 
L 116.425625 141.039652 
L 106.606306 145.645661 
L 97.428085 149.098775 
L 93.947003 150.256712 
L 76.104716 156.407679 
L 63.445412 159.50105 
L 45.603125 162.927213 
L 45.603125 164.942437 
z
" clip-path="url(#pb14a6d6776)" style="fill: #afc1dd"/>
    <path d="M 63.445412 159.50105 
L 76.104716 156.407679 
L 93.947003 150.256712 
L 97.428085 149.098775 
L 106.606306 145.645661 
L 116.425625 141.039652 
L 124.861874 137.857517 
L 131.231916 134.565015 
L 146.927216 129.041925 
L 164.769503 127.456261 
L 177.428807 126.923231 
L 187.248126 126.780037 
L 195.271094 126.61305 
L 202.054416 125.364979 
L 207.930398 125.182696 
L 207.930398 122.013854 
L 207.930398 115.805856 
L 202.054416 116.016226 
L 195.271094 117.499077 
L 187.248126 117.876863 
L 177.428807 118.242788 
L 164.769503 119.063768 
L 146.927216 121.555093 
L 146.004196 122.013854 
L 131.231916 126.796626 
L 116.425625 132.681365 
L 106.606306 137.468616 
L 105.666125 137.857517 
L 93.947003 141.222828 
L 76.104716 146.123011 
L 63.445412 148.485962 
L 59.477477 149.098775 
L 45.603125 150.800041 
L 45.603125 162.927213 
z
" clip-path="url(#pb14a6d6776)" style="fill: #88b1d4"/>
    <path d="M 59.477477 149.098775 
L 63.445412 148.485962 
L 76.104716 146.123011 
L 93.947003 141.222828 
L 105.666125 137.857517 
L 106.606306 137.468616 
L 116.425625 132.681365 
L 131.231916 126.796626 
L 146.004196 122.013854 
L 146.927216 121.555093 
L 164.769503 119.063768 
L 177.428807 118.242788 
L 187.248126 117.876863 
L 195.271094 117.499077 
L 202.054416 116.016226 
L 207.930398 115.805856 
L 207.930398 110.772596 
L 207.930398 105.849591 
L 202.054416 106.243735 
L 195.271094 108.069368 
L 187.248126 108.863091 
L 177.428807 109.295644 
L 164.769503 110.525902 
L 164.04195 110.772596 
L 146.927216 113.867676 
L 131.231916 119.678387 
L 126.423175 122.013854 
L 116.425625 125.206352 
L 106.606306 128.82787 
L 93.947003 132.437539 
L 76.104716 137.43188 
L 74.007067 137.857517 
L 63.445412 139.22708 
L 45.603125 140.899362 
L 45.603125 149.098775 
L 45.603125 150.800041 
z
M 63.445412 31.011435 
L 76.104716 30.483083 
L 93.947003 28.388208 
L 106.606306 26.572287 
L 109.28288 26.016214 
L 116.425625 23.914878 
L 125.816309 20.798437 
L 116.425625 20.798437 
L 106.606306 20.798437 
L 93.947003 20.798437 
L 76.104716 20.798437 
L 63.445412 20.798437 
L 45.603125 20.798437 
L 45.603125 26.016214 
L 45.603125 31.800683 
z
" clip-path="url(#pb14a6d6776)" style="fill: #5c9fc9"/>
    <path d="M 63.445412 139.22708 
L 74.007067 137.857517 
L 76.104716 137.43188 
L 93.947003 132.437539 
L 106.606306 128.82787 
L 116.425625 125.206352 
L 126.423175 122.013854 
L 131.231916 119.678387 
L 146.927216 113.867676 
L 164.04195 110.772596 
L 164.769503 110.525902 
L 177.428807 109.295644 
L 187.248126 108.863091 
L 195.271094 108.069368 
L 202.054416 106.243735 
L 207.930398 105.849591 
L 207.930398 102.053199 
L 207.930398 93.572527 
L 202.054416 94.125869 
L 195.271094 96.189218 
L 187.248126 97.024314 
L 177.428807 97.909459 
L 164.769503 101.068326 
L 162.722312 102.053199 
L 146.927216 106.071518 
L 136.476891 110.772596 
L 131.231916 112.2673 
L 116.425625 117.423962 
L 106.606306 121.601824 
L 105.433855 122.013854 
L 93.947003 124.395619 
L 76.104716 127.784723 
L 63.445412 129.325632 
L 45.603125 130.832977 
L 45.603125 137.857517 
L 45.603125 140.899362 
z
M 63.445412 42.10226 
L 76.104716 41.638646 
L 93.947003 39.776505 
L 99.429285 39.163961 
L 106.606306 38.017878 
L 116.425625 35.648178 
L 128.997355 32.039695 
L 131.231916 31.170101 
L 142.317715 26.016214 
L 146.927216 23.061449 
L 151.42511 20.798437 
L 146.927216 20.798437 
L 131.231916 20.798437 
L 125.816309 20.798437 
L 116.425625 23.914878 
L 109.28288 26.016214 
L 106.606306 26.572287 
L 93.947003 28.388208 
L 76.104716 30.483083 
L 63.445412 31.011435 
L 45.603125 31.800683 
L 45.603125 32.039695 
L 45.603125 39.163961 
L 45.603125 42.89296 
z
" clip-path="url(#pb14a6d6776)" style="fill: #2c89bd"/>
    <path d="M 63.445412 129.325632 
L 76.104716 127.784723 
L 93.947003 124.395619 
L 105.433855 122.013854 
L 106.606306 121.601824 
L 116.425625 117.423962 
L 131.231916 112.2673 
L 136.476891 110.772596 
L 146.927216 106.071518 
L 162.722312 102.053199 
L 164.769503 101.068326 
L 177.428807 97.909459 
L 187.248126 97.024314 
L 195.271094 96.189218 
L 202.054416 94.125869 
L 207.930398 93.572527 
L 207.930398 88.905452 
L 207.930398 76.376493 
L 202.054416 77.459791 
L 195.271094 80.256715 
L 187.248126 82.33061 
L 177.428807 85.536361 
L 171.540661 88.905452 
L 164.769503 90.625226 
L 146.927216 96.217284 
L 135.91682 102.053199 
L 131.231916 103.503458 
L 116.425625 109.036451 
L 112.675954 110.772596 
L 106.606306 112.44298 
L 93.947003 115.110541 
L 76.104716 118.658919 
L 63.445412 120.317449 
L 45.603125 121.877433 
L 45.603125 122.013854 
L 45.603125 130.832977 
z
M 63.445412 53.863922 
L 76.104716 53.328985 
L 93.947003 51.197006 
L 106.606306 49.509615 
L 113.878482 47.883358 
L 116.425625 47.220129 
L 131.231916 42.847284 
L 140.348845 39.163961 
L 146.927216 35.457598 
L 154.932239 32.039695 
L 164.377096 26.016214 
L 164.769503 25.695986 
L 176.426738 20.798437 
L 164.769503 20.798437 
L 151.42511 20.798437 
L 146.927216 23.061449 
L 142.317715 26.016214 
L 131.231916 31.170101 
L 128.997355 32.039695 
L 116.425625 35.648178 
L 106.606306 38.017878 
L 99.429285 39.163961 
L 93.947003 39.776505 
L 76.104716 41.638646 
L 63.445412 42.10226 
L 45.603125 42.89296 
L 45.603125 47.883358 
L 45.603125 54.875877 
z
" clip-path="url(#pb14a6d6776)" style="fill: #056faf"/>
    <path d="M 63.445412 120.317449 
L 76.104716 118.658919 
L 93.947003 115.110541 
L 106.606306 112.44298 
L 112.675954 110.772596 
L 116.425625 109.036451 
L 131.231916 103.503458 
L 135.91682 102.053199 
L 146.927216 96.217284 
L 164.769503 90.625226 
L 171.540661 88.905452 
L 177.428807 85.536361 
L 187.248126 82.33061 
L 195.271094 80.256715 
L 202.054416 77.459791 
L 207.930398 76.376493 
L 207.930398 74.968279 
L 207.930398 59.124616 
L 207.930398 47.883358 
L 207.930398 39.163961 
L 207.930398 32.039695 
L 207.930398 26.016214 
L 207.930398 20.798437 
L 202.054416 20.798437 
L 195.271094 20.798437 
L 187.248126 20.798437 
L 177.428807 20.798437 
L 176.426738 20.798437 
L 164.769503 25.695986 
L 164.377096 26.016214 
L 154.932239 32.039695 
L 146.927216 35.457598 
L 140.348845 39.163961 
L 131.231916 42.847284 
L 116.425625 47.220129 
L 113.878482 47.883358 
L 106.606306 49.509615 
L 93.947003 51.197006 
L 76.104716 53.328985 
L 63.445412 53.863922 
L 45.603125 54.875877 
L 45.603125 59.124616 
L 45.603125 71.202079 
L 63.445412 70.03387 
L 76.104716 69.568331 
L 93.947003 67.325751 
L 106.606306 65.577416 
L 116.425625 62.96785 
L 126.791089 59.124616 
L 131.231916 57.577523 
L 146.927216 50.302283 
L 152.870556 47.883358 
L 164.769503 42.056573 
L 175.408455 39.163961 
L 177.428807 38.431641 
L 187.248126 36.978268 
L 195.271094 36.477772 
L 202.054416 38.034978 
L 204.655908 39.163961 
L 204.724904 47.883358 
L 202.054416 49.856637 
L 195.271094 56.005628 
L 193.095122 59.124616 
L 187.248126 61.591645 
L 177.428807 66.414136 
L 168.293065 74.968279 
L 164.769503 76.185453 
L 146.927216 82.321434 
L 136.291003 88.905452 
L 131.231916 90.25047 
L 116.425625 94.724341 
L 106.606306 99.134031 
L 100.05261 102.053199 
L 93.947003 103.1351 
L 76.104716 106.045168 
L 63.445412 107.491034 
L 45.603125 108.600681 
L 45.603125 110.772596 
L 45.603125 121.877433 
z
" clip-path="url(#pb14a6d6776)" style="fill: #045e94"/>
    <path d="M 63.445412 107.491034 
L 76.104716 106.045168 
L 93.947003 103.1351 
L 100.05261 102.053199 
L 106.606306 99.134031 
L 116.425625 94.724341 
L 131.231916 90.25047 
L 136.291003 88.905452 
L 146.927216 82.321434 
L 164.769503 76.185453 
L 168.293065 74.968279 
L 177.428807 66.414136 
L 187.248126 61.591645 
L 193.095122 59.124616 
L 195.271094 56.005628 
L 202.054416 49.856637 
L 204.724904 47.883358 
L 204.655908 39.163961 
L 202.054416 38.034978 
L 195.271094 36.477772 
L 187.248126 36.978268 
L 177.428807 38.431641 
L 175.408455 39.163961 
L 164.769503 42.056573 
L 152.870556 47.883358 
L 146.927216 50.302283 
L 131.231916 57.577523 
L 126.791089 59.124616 
L 116.425625 62.96785 
L 106.606306 65.577416 
L 93.947003 67.325751 
L 76.104716 69.568331 
L 63.445412 70.03387 
L 45.603125 71.202079 
L 45.603125 74.968279 
L 45.603125 88.905452 
L 45.603125 102.053199 
L 45.603125 108.600681 
z
" clip-path="url(#pb14a6d6776)" style="fill: #03456c"/>
   </g>
   <g id="matplotlib.axis_1">
    <g id="xtick_1">
     <g id="line2d_1">
      <path d="M 45.603125 164.942437 
L 45.603125 20.798437 
" clip-path="url(#pb14a6d6776)" style="fill: none; stroke: #b0b0b0; stroke-width: 0.8; stroke-linecap: square"/>
     </g>
     <g id="line2d_2">
      <defs>
       <path id="meda6df0cee" d="M 0 0 
L 0 3.5 
" style="stroke: #000000; stroke-width: 0.8"/>
      </defs>
      <g>
       <use xlink:href="#meda6df0cee" x="45.603125" y="164.942437" style="stroke: #000000; stroke-width: 0.8"/>
      </g>
     </g>
     <g id="text_1">
      <!-- 0.1 -->
      <g transform="translate(37.651563 179.540875) scale(0.1 -0.1)">
       <defs>
        <path id="DejaVuSans-30" d="M 2034 4250 
Q 1547 4250 1301 3770 
Q 1056 3291 1056 2328 
Q 1056 1369 1301 889 
Q 1547 409 2034 409 
Q 2525 409 2770 889 
Q 3016 1369 3016 2328 
Q 3016 3291 2770 3770 
Q 2525 4250 2034 4250 
z
M 2034 4750 
Q 2819 4750 3233 4129 
Q 3647 3509 3647 2328 
Q 3647 1150 3233 529 
Q 2819 -91 2034 -91 
Q 1250 -91 836 529 
Q 422 1150 422 2328 
Q 422 3509 836 4129 
Q 1250 4750 2034 4750 
z
" transform="scale(0.015625)"/>
        <path id="DejaVuSans-2e" d="M 684 794 
L 1344 794 
L 1344 0 
L 684 0 
L 684 794 
z
" transform="scale(0.015625)"/>
        <path id="DejaVuSans-31" d="M 794 531 
L 1825 531 
L 1825 4091 
L 703 3866 
L 703 4441 
L 1819 4666 
L 2450 4666 
L 2450 531 
L 3481 531 
L 3481 0 
L 794 0 
L 794 531 
z
" transform="scale(0.015625)"/>
       </defs>
       <use xlink:href="#DejaVuSans-30"/>
       <use xlink:href="#DejaVuSans-2e" x="63.623047"/>
       <use xlink:href="#DejaVuSans-31" x="95.410156"/>
      </g>
     </g>
    </g>
    <g id="xtick_2">
     <g id="line2d_3">
      <path d="M 146.927216 164.942437 
L 146.927216 20.798437 
" clip-path="url(#pb14a6d6776)" style="fill: none; stroke: #b0b0b0; stroke-width: 0.8; stroke-linecap: square"/>
     </g>
     <g id="line2d_4">
      <g>
       <use xlink:href="#meda6df0cee" x="146.927216" y="164.942437" style="stroke: #000000; stroke-width: 0.8"/>
      </g>
     </g>
     <g id="text_2">
      <!-- 1 -->
      <g transform="translate(143.745966 179.540875) scale(0.1 -0.1)">
       <use xlink:href="#DejaVuSans-31"/>
      </g>
     </g>
    </g>
    <g id="xtick_3">
     <g id="line2d_5">
      <defs>
       <path id="mb1ddc83843" d="M 0 0 
L 0 2 
" style="stroke: #000000; stroke-width: 0.6"/>
      </defs>
      <g>
       <use xlink:href="#mb1ddc83843" x="76.104716" y="164.942437" style="stroke: #000000; stroke-width: 0.6"/>
      </g>
     </g>
    </g>
    <g id="xtick_4">
     <g id="line2d_6">
      <g>
       <use xlink:href="#mb1ddc83843" x="93.947003" y="164.942437" style="stroke: #000000; stroke-width: 0.6"/>
      </g>
     </g>
    </g>
    <g id="xtick_5">
     <g id="line2d_7">
      <g>
       <use xlink:href="#mb1ddc83843" x="106.606306" y="164.942437" style="stroke: #000000; stroke-width: 0.6"/>
      </g>
     </g>
    </g>
    <g id="xtick_6">
     <g id="line2d_8">
      <g>
       <use xlink:href="#mb1ddc83843" x="116.425625" y="164.942437" style="stroke: #000000; stroke-width: 0.6"/>
      </g>
     </g>
    </g>
    <g id="xtick_7">
     <g id="line2d_9">
      <g>
       <use xlink:href="#mb1ddc83843" x="124.448593" y="164.942437" style="stroke: #000000; stroke-width: 0.6"/>
      </g>
     </g>
    </g>
    <g id="xtick_8">
     <g id="line2d_10">
      <g>
       <use xlink:href="#mb1ddc83843" x="131.231916" y="164.942437" style="stroke: #000000; stroke-width: 0.6"/>
      </g>
     </g>
    </g>
    <g id="xtick_9">
     <g id="line2d_11">
      <g>
       <use xlink:href="#mb1ddc83843" x="137.107897" y="164.942437" style="stroke: #000000; stroke-width: 0.6"/>
      </g>
     </g>
    </g>
    <g id="xtick_10">
     <g id="line2d_12">
      <g>
       <use xlink:href="#mb1ddc83843" x="142.29088" y="164.942437" style="stroke: #000000; stroke-width: 0.6"/>
      </g>
     </g>
    </g>
    <g id="xtick_11">
     <g id="line2d_13">
      <g>
       <use xlink:href="#mb1ddc83843" x="177.428807" y="164.942437" style="stroke: #000000; stroke-width: 0.6"/>
      </g>
     </g>
    </g>
    <g id="xtick_12">
     <g id="line2d_14">
      <g>
       <use xlink:href="#mb1ddc83843" x="195.271094" y="164.942437" style="stroke: #000000; stroke-width: 0.6"/>
      </g>
     </g>
    </g>
    <g id="xtick_13">
     <g id="line2d_15">
      <g>
       <use xlink:href="#mb1ddc83843" x="207.930398" y="164.942437" style="stroke: #000000; stroke-width: 0.6"/>
      </g>
     </g>
    </g>
    <g id="text_3">
     <!-- $T_{FIV3}$ [s] -->
     <g transform="translate(107.766761 193.219) scale(0.1 -0.1)">
      <defs>
       <path id="DejaVuSans-Oblique-54" d="M 378 4666 
L 4325 4666 
L 4225 4134 
L 2559 4134 
L 1759 0 
L 1125 0 
L 1925 4134 
L 275 4134 
L 378 4666 
z
" transform="scale(0.015625)"/>
       <path id="DejaVuSans-Oblique-46" d="M 1081 4666 
L 3756 4666 
L 3653 4134 
L 1606 4134 
L 1338 2759 
L 3188 2759 
L 3084 2228 
L 1234 2228 
L 800 0 
L 172 0 
L 1081 4666 
z
" transform="scale(0.015625)"/>
       <path id="DejaVuSans-Oblique-49" d="M 1081 4666 
L 1716 4666 
L 806 0 
L 172 0 
L 1081 4666 
z
" transform="scale(0.015625)"/>
       <path id="DejaVuSans-Oblique-56" d="M 1319 0 
L 500 4666 
L 1119 4666 
L 1797 653 
L 4063 4666 
L 4750 4666 
L 2053 0 
L 1319 0 
z
" transform="scale(0.015625)"/>
       <path id="DejaVuSans-33" d="M 2597 2516 
Q 3050 2419 3304 2112 
Q 3559 1806 3559 1356 
Q 3559 666 3084 287 
Q 2609 -91 1734 -91 
Q 1441 -91 1130 -33 
Q 819 25 488 141 
L 488 750 
Q 750 597 1062 519 
Q 1375 441 1716 441 
Q 2309 441 2620 675 
Q 2931 909 2931 1356 
Q 2931 1769 2642 2001 
Q 2353 2234 1838 2234 
L 1294 2234 
L 1294 2753 
L 1863 2753 
Q 2328 2753 2575 2939 
Q 2822 3125 2822 3475 
Q 2822 3834 2567 4026 
Q 2313 4219 1838 4219 
Q 1578 4219 1281 4162 
Q 984 4106 628 3988 
L 628 4550 
Q 988 4650 1302 4700 
Q 1616 4750 1894 4750 
Q 2613 4750 3031 4423 
Q 3450 4097 3450 3541 
Q 3450 3153 3228 2886 
Q 3006 2619 2597 2516 
z
" transform="scale(0.015625)"/>
       <path id="DejaVuSans-20" transform="scale(0.015625)"/>
       <path id="DejaVuSans-5b" d="M 550 4863 
L 1875 4863 
L 1875 4416 
L 1125 4416 
L 1125 -397 
L 1875 -397 
L 1875 -844 
L 550 -844 
L 550 4863 
z
" transform="scale(0.015625)"/>
       <path id="DejaVuSans-73" d="M 2834 3397 
L 2834 2853 
Q 2591 2978 2328 3040 
Q 2066 3103 1784 3103 
Q 1356 3103 1142 2972 
Q 928 2841 928 2578 
Q 928 2378 1081 2264 
Q 1234 2150 1697 2047 
L 1894 2003 
Q 2506 1872 2764 1633 
Q 3022 1394 3022 966 
Q 3022 478 2636 193 
Q 2250 -91 1575 -91 
Q 1294 -91 989 -36 
Q 684 19 347 128 
L 347 722 
Q 666 556 975 473 
Q 1284 391 1588 391 
Q 1994 391 2212 530 
Q 2431 669 2431 922 
Q 2431 1156 2273 1281 
Q 2116 1406 1581 1522 
L 1381 1569 
Q 847 1681 609 1914 
Q 372 2147 372 2553 
Q 372 3047 722 3315 
Q 1072 3584 1716 3584 
Q 2034 3584 2315 3537 
Q 2597 3491 2834 3397 
z
" transform="scale(0.015625)"/>
       <path id="DejaVuSans-5d" d="M 1947 4863 
L 1947 -844 
L 622 -844 
L 622 -397 
L 1369 -397 
L 1369 4416 
L 622 4416 
L 622 4863 
L 1947 4863 
z
" transform="scale(0.015625)"/>
      </defs>
      <use xlink:href="#DejaVuSans-Oblique-54" transform="translate(0 0.015625)"/>
      <use xlink:href="#DejaVuSans-Oblique-46" transform="translate(61.083984 -16.390625) scale(0.7)"/>
      <use xlink:href="#DejaVuSans-Oblique-49" transform="translate(101.347656 -16.390625) scale(0.7)"/>
      <use xlink:href="#DejaVuSans-Oblique-56" transform="translate(121.992187 -16.390625) scale(0.7)"/>
      <use xlink:href="#DejaVuSans-33" transform="translate(169.87793 -16.390625) scale(0.7)"/>
      <use xlink:href="#DejaVuSans-20" transform="translate(217.148438 0.015625)"/>
      <use xlink:href="#DejaVuSans-5b" transform="translate(248.935547 0.015625)"/>
      <use xlink:href="#DejaVuSans-73" transform="translate(287.949219 0.015625)"/>
      <use xlink:href="#DejaVuSans-5d" transform="translate(340.048828 0.015625)"/>
     </g>
    </g>
   </g>
   <g id="matplotlib.axis_2">
    <g id="ytick_1">
     <g id="line2d_16">
      <path d="M 45.603125 164.942437 
L 207.930398 164.942437 
" clip-path="url(#pb14a6d6776)" style="fill: none; stroke: #b0b0b0; stroke-width: 0.8; stroke-linecap: square"/>
     </g>
     <g id="line2d_17">
      <defs>
       <path id="mb31b21a474" d="M 0 0 
L -3.5 0 
" style="stroke: #000000; stroke-width: 0.8"/>
      </defs>
      <g>
       <use xlink:href="#mb31b21a474" x="45.603125" y="164.942437" style="stroke: #000000; stroke-width: 0.8"/>
      </g>
     </g>
     <g id="text_4">
      <!-- 0.1 -->
      <g transform="translate(22.7 168.741656) scale(0.1 -0.1)">
       <use xlink:href="#DejaVuSans-30"/>
       <use xlink:href="#DejaVuSans-2e" x="63.623047"/>
       <use xlink:href="#DejaVuSans-31" x="95.410156"/>
      </g>
     </g>
    </g>
    <g id="ytick_2">
     <g id="line2d_18">
      <path d="M 45.603125 74.968279 
L 207.930398 74.968279 
" clip-path="url(#pb14a6d6776)" style="fill: none; stroke: #b0b0b0; stroke-width: 0.8; stroke-linecap: square"/>
     </g>
     <g id="line2d_19">
      <g>
       <use xlink:href="#mb31b21a474" x="45.603125" y="74.968279" style="stroke: #000000; stroke-width: 0.8"/>
      </g>
     </g>
     <g id="text_5">
      <!-- 1 -->
      <g transform="translate(32.240625 78.767497) scale(0.1 -0.1)">
       <use xlink:href="#DejaVuSans-31"/>
      </g>
     </g>
    </g>
    <g id="ytick_3">
     <g id="line2d_20">
      <defs>
       <path id="mf90b4650f7" d="M 0 0 
L -2 0 
" style="stroke: #000000; stroke-width: 0.6"/>
      </defs>
      <g>
       <use xlink:href="#mf90b4650f7" x="45.603125" y="137.857517" style="stroke: #000000; stroke-width: 0.6"/>
      </g>
     </g>
    </g>
    <g id="ytick_4">
     <g id="line2d_21">
      <g>
       <use xlink:href="#mf90b4650f7" x="45.603125" y="122.013854" style="stroke: #000000; stroke-width: 0.6"/>
      </g>
     </g>
    </g>
    <g id="ytick_5">
     <g id="line2d_22">
      <g>
       <use xlink:href="#mf90b4650f7" x="45.603125" y="110.772596" style="stroke: #000000; stroke-width: 0.6"/>
      </g>
     </g>
    </g>
    <g id="ytick_6">
     <g id="line2d_23">
      <g>
       <use xlink:href="#mf90b4650f7" x="45.603125" y="102.053199" style="stroke: #000000; stroke-width: 0.6"/>
      </g>
     </g>
    </g>
    <g id="ytick_7">
     <g id="line2d_24">
      <g>
       <use xlink:href="#mf90b4650f7" x="45.603125" y="94.928933" style="stroke: #000000; stroke-width: 0.6"/>
      </g>
     </g>
    </g>
    <g id="ytick_8">
     <g id="line2d_25">
      <g>
       <use xlink:href="#mf90b4650f7" x="45.603125" y="88.905452" style="stroke: #000000; stroke-width: 0.6"/>
      </g>
     </g>
    </g>
    <g id="ytick_9">
     <g id="line2d_26">
      <g>
       <use xlink:href="#mf90b4650f7" x="45.603125" y="83.687676" style="stroke: #000000; stroke-width: 0.6"/>
      </g>
     </g>
    </g>
    <g id="ytick_10">
     <g id="line2d_27">
      <g>
       <use xlink:href="#mf90b4650f7" x="45.603125" y="79.08527" style="stroke: #000000; stroke-width: 0.6"/>
      </g>
     </g>
    </g>
    <g id="ytick_11">
     <g id="line2d_28">
      <g>
       <use xlink:href="#mf90b4650f7" x="45.603125" y="47.883358" style="stroke: #000000; stroke-width: 0.6"/>
      </g>
     </g>
    </g>
    <g id="ytick_12">
     <g id="line2d_29">
      <g>
       <use xlink:href="#mf90b4650f7" x="45.603125" y="32.039695" style="stroke: #000000; stroke-width: 0.6"/>
      </g>
     </g>
    </g>
    <g id="ytick_13">
     <g id="line2d_30">
      <g>
       <use xlink:href="#mf90b4650f7" x="45.603125" y="20.798437" style="stroke: #000000; stroke-width: 0.6"/>
      </g>
     </g>
    </g>
    <g id="text_6">
     <!-- $T_{{Sa_{avg3}}}$ [s] -->
     <g transform="translate(14.8 114.720437) rotate(-90) scale(0.1 -0.1)">
      <defs>
       <path id="DejaVuSans-Oblique-53" d="M 3859 4513 
L 3738 3897 
Q 3422 4066 3111 4152 
Q 2800 4238 2509 4238 
Q 1944 4238 1609 3991 
Q 1275 3744 1275 3334 
Q 1275 3109 1398 2989 
Q 1522 2869 2034 2731 
L 2413 2638 
Q 3053 2472 3303 2217 
Q 3553 1963 3553 1503 
Q 3553 797 2998 353 
Q 2444 -91 1538 -91 
Q 1166 -91 791 -17 
Q 416 56 38 206 
L 166 856 
Q 513 641 861 531 
Q 1209 422 1556 422 
Q 2147 422 2503 684 
Q 2859 947 2859 1369 
Q 2859 1650 2717 1795 
Q 2575 1941 2106 2059 
L 1728 2156 
Q 1081 2325 845 2545 
Q 609 2766 609 3163 
Q 609 3859 1145 4304 
Q 1681 4750 2541 4750 
Q 2875 4750 3203 4690 
Q 3531 4631 3859 4513 
z
" transform="scale(0.015625)"/>
       <path id="DejaVuSans-Oblique-61" d="M 3438 1997 
L 3047 0 
L 2472 0 
L 2578 531 
Q 2325 219 2001 64 
Q 1678 -91 1281 -91 
Q 834 -91 548 182 
Q 263 456 263 884 
Q 263 1497 752 1853 
Q 1241 2209 2100 2209 
L 2900 2209 
L 2931 2363 
Q 2938 2388 2941 2417 
Q 2944 2447 2944 2509 
Q 2944 2788 2717 2942 
Q 2491 3097 2081 3097 
Q 1800 3097 1504 3025 
Q 1209 2953 897 2809 
L 997 3341 
Q 1322 3463 1633 3523 
Q 1944 3584 2234 3584 
Q 2853 3584 3176 3315 
Q 3500 3047 3500 2534 
Q 3500 2431 3484 2292 
Q 3469 2153 3438 1997 
z
M 2816 1759 
L 2241 1759 
Q 1534 1759 1195 1570 
Q 856 1381 856 984 
Q 856 709 1029 553 
Q 1203 397 1509 397 
Q 1978 397 2328 733 
Q 2678 1069 2791 1631 
L 2816 1759 
z
" transform="scale(0.015625)"/>
       <path id="DejaVuSans-Oblique-76" d="M 459 3500 
L 1069 3500 
L 1581 525 
L 3256 3500 
L 3866 3500 
L 1875 0 
L 1100 0 
L 459 3500 
z
" transform="scale(0.015625)"/>
       <path id="DejaVuSans-Oblique-67" d="M 3816 3500 
L 3219 434 
Q 3047 -456 2561 -893 
Q 2075 -1331 1253 -1331 
Q 950 -1331 690 -1286 
Q 431 -1241 206 -1147 
L 313 -588 
Q 525 -725 762 -790 
Q 1000 -856 1269 -856 
Q 1816 -856 2167 -557 
Q 2519 -259 2631 300 
L 2681 563 
Q 2441 288 2122 144 
Q 1803 0 1434 0 
Q 903 0 598 351 
Q 294 703 294 1319 
Q 294 1803 478 2267 
Q 663 2731 997 3091 
Q 1219 3328 1514 3456 
Q 1809 3584 2131 3584 
Q 2484 3584 2746 3420 
Q 3009 3256 3138 2956 
L 3238 3500 
L 3816 3500 
z
M 2950 2216 
Q 2950 2641 2750 2872 
Q 2550 3103 2181 3103 
Q 1953 3103 1747 3012 
Q 1541 2922 1394 2759 
Q 1156 2491 1023 2127 
Q 891 1763 891 1375 
Q 891 944 1092 712 
Q 1294 481 1672 481 
Q 2219 481 2584 976 
Q 2950 1472 2950 2216 
z
" transform="scale(0.015625)"/>
      </defs>
      <use xlink:href="#DejaVuSans-Oblique-54" transform="translate(0 0.015625)"/>
      <use xlink:href="#DejaVuSans-Oblique-53" transform="translate(61.083984 -16.390625) scale(0.7)"/>
      <use xlink:href="#DejaVuSans-Oblique-61" transform="translate(105.517578 -16.390625) scale(0.7)"/>
      <use xlink:href="#DejaVuSans-Oblique-61" transform="translate(148.413086 -27.875) scale(0.49)"/>
      <use xlink:href="#DejaVuSans-Oblique-76" transform="translate(178.439941 -27.875) scale(0.49)"/>
      <use xlink:href="#DejaVuSans-Oblique-67" transform="translate(207.437988 -27.875) scale(0.49)"/>
      <use xlink:href="#DejaVuSans-33" transform="translate(238.541504 -27.875) scale(0.49)"/>
      <use xlink:href="#DejaVuSans-20" transform="translate(274.365234 0.015625)"/>
      <use xlink:href="#DejaVuSans-5b" transform="translate(306.152344 0.015625)"/>
      <use xlink:href="#DejaVuSans-73" transform="translate(345.166016 0.015625)"/>
      <use xlink:href="#DejaVuSans-5d" transform="translate(397.265625 0.015625)"/>
     </g>
    </g>
   </g>
   <g id="patch_3">
    <path d="M 45.603125 164.942437 
L 45.603125 20.798437 
" style="fill: none; stroke: #000000; stroke-width: 0.8; stroke-linejoin: miter; stroke-linecap: square"/>
   </g>
   <g id="patch_4">
    <path d="M 207.930398 164.942437 
L 207.930398 20.798437 
" style="fill: none; stroke: #000000; stroke-width: 0.8; stroke-linejoin: miter; stroke-linecap: square"/>
   </g>
   <g id="patch_5">
    <path d="M 45.603125 164.942437 
L 207.930398 164.942437 
" style="fill: none; stroke: #000000; stroke-width: 0.8; stroke-linejoin: miter; stroke-linecap: square"/>
   </g>
   <g id="patch_6">
    <path d="M 45.603125 20.798437 
L 207.930398 20.798437 
" style="fill: none; stroke: #000000; stroke-width: 0.8; stroke-linejoin: miter; stroke-linecap: square"/>
   </g>
   <g id="text_7">
    <!-- Empirical -->
    <g transform="translate(103.526918 14.798437) scale(0.1 -0.1)">
     <defs>
      <path id="DejaVuSans-45" d="M 628 4666 
L 3578 4666 
L 3578 4134 
L 1259 4134 
L 1259 2753 
L 3481 2753 
L 3481 2222 
L 1259 2222 
L 1259 531 
L 3634 531 
L 3634 0 
L 628 0 
L 628 4666 
z
" transform="scale(0.015625)"/>
      <path id="DejaVuSans-6d" d="M 3328 2828 
Q 3544 3216 3844 3400 
Q 4144 3584 4550 3584 
Q 5097 3584 5394 3201 
Q 5691 2819 5691 2113 
L 5691 0 
L 5113 0 
L 5113 2094 
Q 5113 2597 4934 2840 
Q 4756 3084 4391 3084 
Q 3944 3084 3684 2787 
Q 3425 2491 3425 1978 
L 3425 0 
L 2847 0 
L 2847 2094 
Q 2847 2600 2669 2842 
Q 2491 3084 2119 3084 
Q 1678 3084 1418 2786 
Q 1159 2488 1159 1978 
L 1159 0 
L 581 0 
L 581 3500 
L 1159 3500 
L 1159 2956 
Q 1356 3278 1631 3431 
Q 1906 3584 2284 3584 
Q 2666 3584 2933 3390 
Q 3200 3197 3328 2828 
z
" transform="scale(0.015625)"/>
      <path id="DejaVuSans-70" d="M 1159 525 
L 1159 -1331 
L 581 -1331 
L 581 3500 
L 1159 3500 
L 1159 2969 
Q 1341 3281 1617 3432 
Q 1894 3584 2278 3584 
Q 2916 3584 3314 3078 
Q 3713 2572 3713 1747 
Q 3713 922 3314 415 
Q 2916 -91 2278 -91 
Q 1894 -91 1617 61 
Q 1341 213 1159 525 
z
M 3116 1747 
Q 3116 2381 2855 2742 
Q 2594 3103 2138 3103 
Q 1681 3103 1420 2742 
Q 1159 2381 1159 1747 
Q 1159 1113 1420 752 
Q 1681 391 2138 391 
Q 2594 391 2855 752 
Q 3116 1113 3116 1747 
z
" transform="scale(0.015625)"/>
      <path id="DejaVuSans-69" d="M 603 3500 
L 1178 3500 
L 1178 0 
L 603 0 
L 603 3500 
z
M 603 4863 
L 1178 4863 
L 1178 4134 
L 603 4134 
L 603 4863 
z
" transform="scale(0.015625)"/>
      <path id="DejaVuSans-72" d="M 2631 2963 
Q 2534 3019 2420 3045 
Q 2306 3072 2169 3072 
Q 1681 3072 1420 2755 
Q 1159 2438 1159 1844 
L 1159 0 
L 581 0 
L 581 3500 
L 1159 3500 
L 1159 2956 
Q 1341 3275 1631 3429 
Q 1922 3584 2338 3584 
Q 2397 3584 2469 3576 
Q 2541 3569 2628 3553 
L 2631 2963 
z
" transform="scale(0.015625)"/>
      <path id="DejaVuSans-63" d="M 3122 3366 
L 3122 2828 
Q 2878 2963 2633 3030 
Q 2388 3097 2138 3097 
Q 1578 3097 1268 2742 
Q 959 2388 959 1747 
Q 959 1106 1268 751 
Q 1578 397 2138 397 
Q 2388 397 2633 464 
Q 2878 531 3122 666 
L 3122 134 
Q 2881 22 2623 -34 
Q 2366 -91 2075 -91 
Q 1284 -91 818 406 
Q 353 903 353 1747 
Q 353 2603 823 3093 
Q 1294 3584 2113 3584 
Q 2378 3584 2631 3529 
Q 2884 3475 3122 3366 
z
" transform="scale(0.015625)"/>
      <path id="DejaVuSans-61" d="M 2194 1759 
Q 1497 1759 1228 1600 
Q 959 1441 959 1056 
Q 959 750 1161 570 
Q 1363 391 1709 391 
Q 2188 391 2477 730 
Q 2766 1069 2766 1631 
L 2766 1759 
L 2194 1759 
z
M 3341 1997 
L 3341 0 
L 2766 0 
L 2766 531 
Q 2569 213 2275 61 
Q 1981 -91 1556 -91 
Q 1019 -91 701 211 
Q 384 513 384 1019 
Q 384 1609 779 1909 
Q 1175 2209 1959 2209 
L 2766 2209 
L 2766 2266 
Q 2766 2663 2505 2880 
Q 2244 3097 1772 3097 
Q 1472 3097 1187 3025 
Q 903 2953 641 2809 
L 641 3341 
Q 956 3463 1253 3523 
Q 1550 3584 1831 3584 
Q 2591 3584 2966 3190 
Q 3341 2797 3341 1997 
z
" transform="scale(0.015625)"/>
      <path id="DejaVuSans-6c" d="M 603 4863 
L 1178 4863 
L 1178 0 
L 603 0 
L 603 4863 
z
" transform="scale(0.015625)"/>
     </defs>
     <use xlink:href="#DejaVuSans-45"/>
     <use xlink:href="#DejaVuSans-6d" x="63.183594"/>
     <use xlink:href="#DejaVuSans-70" x="160.595703"/>
     <use xlink:href="#DejaVuSans-69" x="224.072266"/>
     <use xlink:href="#DejaVuSans-72" x="251.855469"/>
     <use xlink:href="#DejaVuSans-69" x="292.96875"/>
     <use xlink:href="#DejaVuSans-63" x="320.751953"/>
     <use xlink:href="#DejaVuSans-61" x="375.732422"/>
     <use xlink:href="#DejaVuSans-6c" x="437.011719"/>
    </g>
   </g>
  </g>
  <g id="axes_2">
   <g id="patch_7">
    <path d="M 240.395852 164.942437 
L 402.723125 164.942437 
L 402.723125 20.798437 
L 240.395852 20.798437 
z
" style="fill: #ffffff"/>
   </g>
   <g id="QuadContourSet_2">
    <path d="M 326.024643 164.942437 
L 341.719944 164.942437 
L 359.56223 164.942437 
L 372.221534 164.942437 
L 382.040853 164.942437 
L 390.063821 164.942437 
L 396.847144 164.942437 
L 402.723125 164.942437 
L 402.723125 153.632007 
L 396.847144 155.132935 
L 390.063821 156.114721 
L 382.040853 156.308651 
L 372.221534 155.612674 
L 359.56223 154.712943 
L 341.719944 156.94617 
L 326.024643 164.088733 
L 324.936297 164.942437 
z
" clip-path="url(#p07a1bf2d71)" style="fill: #f8f1f8"/>
    <path d="M 311.218353 164.942437 
L 324.936297 164.942437 
L 326.024643 164.088733 
L 341.719944 156.94617 
L 359.56223 154.712943 
L 372.221534 155.612674 
L 382.040853 156.308651 
L 390.063821 156.114721 
L 396.847144 155.132935 
L 402.723125 153.632007 
L 402.723125 149.098775 
L 402.723125 141.666123 
L 396.847144 142.922695 
L 390.063821 143.787741 
L 382.040853 144.063476 
L 372.221534 143.690422 
L 359.56223 143.273555 
L 341.719944 145.705061 
L 333.983974 149.098775 
L 326.024643 151.849909 
L 311.218353 160.03188 
L 303.553068 164.942437 
z
" clip-path="url(#p07a1bf2d71)" style="fill: #e7e3f0"/>
    <path d="M 288.73973 164.942437 
L 301.399034 164.942437 
L 303.553068 164.942437 
L 311.218353 160.03188 
L 326.024643 151.849909 
L 333.983974 149.098775 
L 341.719944 145.705061 
L 359.56223 143.273555 
L 372.221534 143.690422 
L 382.040853 144.063476 
L 390.063821 143.787741 
L 396.847144 142.922695 
L 402.723125 141.666123 
L 402.723125 137.857517 
L 402.723125 131.223075 
L 396.847144 132.397396 
L 390.063821 133.246647 
L 382.040853 133.606516 
L 372.221534 133.452404 
L 359.56223 133.411963 
L 341.719944 136.326744 
L 338.453712 137.857517 
L 326.024643 142.065492 
L 311.592061 149.098775 
L 311.218353 149.248103 
L 301.399034 154.035243 
L 288.73973 160.111696 
L 278.112236 164.942437 
z
" clip-path="url(#p07a1bf2d71)" style="fill: #d0d1e6"/>
    <path d="M 258.238139 164.942437 
L 270.897443 164.942437 
L 278.112236 164.942437 
L 288.73973 160.111696 
L 301.399034 154.035243 
L 311.218353 149.248103 
L 311.592061 149.098775 
L 326.024643 142.065492 
L 338.453712 137.857517 
L 341.719944 136.326744 
L 359.56223 133.411963 
L 372.221534 133.452404 
L 382.040853 133.606516 
L 390.063821 133.246647 
L 396.847144 132.397396 
L 402.723125 131.223075 
L 402.723125 122.499601 
L 396.847144 123.443993 
L 390.063821 124.154207 
L 382.040853 124.522537 
L 372.221534 124.562844 
L 359.56223 124.841447 
L 341.719944 127.798115 
L 326.024643 133.454547 
L 317.251946 137.857517 
L 311.218353 140.138143 
L 301.399034 144.315886 
L 289.884522 149.098775 
L 288.73973 149.494827 
L 270.897443 155.216863 
L 258.238139 158.500799 
L 240.395852 162.107389 
L 240.395852 164.942437 
z
" clip-path="url(#p07a1bf2d71)" style="fill: #afc1dd"/>
    <path d="M 258.238139 158.500799 
L 270.897443 155.216863 
L 288.73973 149.494827 
L 289.884522 149.098775 
L 301.399034 144.315886 
L 311.218353 140.138143 
L 317.251946 137.857517 
L 326.024643 133.454547 
L 341.719944 127.798115 
L 359.56223 124.841447 
L 372.221534 124.562844 
L 382.040853 124.522537 
L 390.063821 124.154207 
L 396.847144 123.443993 
L 402.723125 122.499601 
L 402.723125 122.013854 
L 402.723125 113.246825 
L 396.847144 114.253864 
L 390.063821 115.051318 
L 382.040853 115.545871 
L 372.221534 115.79574 
L 359.56223 116.507217 
L 341.719944 120.42799 
L 338.415584 122.013854 
L 326.024643 125.863599 
L 311.218353 131.695203 
L 301.399034 135.777508 
L 296.501632 137.857517 
L 288.73973 140.292339 
L 270.897443 145.170361 
L 258.238139 147.954951 
L 252.104764 149.098775 
L 240.395852 150.718779 
L 240.395852 162.107389 
z
" clip-path="url(#p07a1bf2d71)" style="fill: #88b1d4"/>
    <path d="M 252.104764 149.098775 
L 258.238139 147.954951 
L 270.897443 145.170361 
L 288.73973 140.292339 
L 296.501632 137.857517 
L 301.399034 135.777508 
L 311.218353 131.695203 
L 326.024643 125.863599 
L 338.415584 122.013854 
L 341.719944 120.42799 
L 359.56223 116.507217 
L 372.221534 115.79574 
L 382.040853 115.545871 
L 390.063821 115.051318 
L 396.847144 114.253864 
L 402.723125 113.246825 
L 402.723125 110.772596 
L 402.723125 103.666471 
L 396.847144 104.782779 
L 390.063821 105.716738 
L 382.040853 106.400831 
L 372.221534 106.965113 
L 359.56223 108.329485 
L 352.421837 110.772596 
L 341.719944 112.868579 
L 326.024643 118.628472 
L 318.840032 122.013854 
L 311.218353 124.405419 
L 301.399034 127.578057 
L 288.73973 131.418782 
L 270.897443 136.152155 
L 263.366459 137.857517 
L 258.238139 138.641637 
L 240.395852 140.8121 
L 240.395852 149.098775 
L 240.395852 150.718779 
z
M 258.238139 30.4803 
L 270.897443 29.543605 
L 288.73973 27.526747 
L 298.060843 26.016214 
L 301.399034 25.287226 
L 311.218353 22.769664 
L 317.816507 20.798437 
L 311.218353 20.798437 
L 301.399034 20.798437 
L 288.73973 20.798437 
L 270.897443 20.798437 
L 258.238139 20.798437 
L 240.395852 20.798437 
L 240.395852 26.016214 
L 240.395852 31.344399 
z
" clip-path="url(#p07a1bf2d71)" style="fill: #5c9fc9"/>
    <path d="M 258.238139 138.641637 
L 263.366459 137.857517 
L 270.897443 136.152155 
L 288.73973 131.418782 
L 301.399034 127.578057 
L 311.218353 124.405419 
L 318.840032 122.013854 
L 326.024643 118.628472 
L 341.719944 112.868579 
L 352.421837 110.772596 
L 359.56223 108.329485 
L 372.221534 106.965113 
L 382.040853 106.400831 
L 390.063821 105.716738 
L 396.847144 104.782779 
L 402.723125 103.666471 
L 402.723125 102.053199 
L 402.723125 91.070552 
L 396.847144 92.488156 
L 390.063821 93.772523 
L 382.040853 94.910768 
L 372.221534 96.188926 
L 359.56223 98.920072 
L 353.321883 102.053199 
L 341.719944 105.056724 
L 328.548957 110.772596 
L 326.024643 111.482647 
L 311.218353 116.60419 
L 301.399034 120.154433 
L 296.286031 122.013854 
L 288.73973 123.694043 
L 270.897443 127.01882 
L 258.238139 128.873652 
L 240.395852 130.868423 
L 240.395852 137.857517 
L 240.395852 140.8121 
z
M 258.238139 41.91859 
L 270.897443 41.077909 
L 288.73973 39.204601 
L 289.028494 39.163961 
L 301.399034 36.829779 
L 311.218353 34.440054 
L 319.47868 32.039695 
L 326.024643 29.517098 
L 334.775405 26.016214 
L 341.719944 22.388593 
L 345.400008 20.798437 
L 341.719944 20.798437 
L 326.024643 20.798437 
L 317.816507 20.798437 
L 311.218353 22.769664 
L 301.399034 25.287226 
L 298.060843 26.016214 
L 288.73973 27.526747 
L 270.897443 29.543605 
L 258.238139 30.4803 
L 240.395852 31.344399 
L 240.395852 32.039695 
L 240.395852 39.163961 
L 240.395852 42.675947 
z
" clip-path="url(#p07a1bf2d71)" style="fill: #2c89bd"/>
    <path d="M 258.238139 128.873652 
L 270.897443 127.01882 
L 288.73973 123.694043 
L 296.286031 122.013854 
L 301.399034 120.154433 
L 311.218353 116.60419 
L 326.024643 111.482647 
L 328.548957 110.772596 
L 341.719944 105.056724 
L 353.321883 102.053199 
L 359.56223 98.920072 
L 372.221534 96.188926 
L 382.040853 94.910768 
L 390.063821 93.772523 
L 396.847144 92.488156 
L 402.723125 91.070552 
L 402.723125 88.905452 
L 402.723125 74.968279 
L 402.723125 71.644805 
L 398.044368 74.968279 
L 396.847144 75.403642 
L 390.063821 77.685216 
L 382.040853 80.068532 
L 372.221534 83.259289 
L 359.777818 88.905452 
L 359.56223 88.948626 
L 341.719944 95.452318 
L 329.280791 102.053199 
L 326.024643 103.063954 
L 311.218353 108.378545 
L 305.121782 110.772596 
L 301.399034 111.665224 
L 288.73973 114.490588 
L 270.897443 117.968801 
L 258.238139 120.020953 
L 242.995157 122.013854 
L 240.395852 122.180776 
L 240.395852 130.868423 
z
M 258.238139 53.97591 
L 270.897443 53.108536 
L 288.73973 51.143068 
L 301.399034 48.947217 
L 306.172102 47.883358 
L 311.218353 46.523729 
L 326.024643 41.65957 
L 332.876694 39.163961 
L 341.719944 34.850668 
L 348.870512 32.039695 
L 359.188585 26.016214 
L 359.56223 25.739206 
L 369.674969 20.798437 
L 359.56223 20.798437 
L 345.400008 20.798437 
L 341.719944 22.388593 
L 334.775405 26.016214 
L 326.024643 29.517098 
L 319.47868 32.039695 
L 311.218353 34.440054 
L 301.399034 36.829779 
L 289.028494 39.163961 
L 288.73973 39.204601 
L 270.897443 41.077909 
L 258.238139 41.91859 
L 240.395852 42.675947 
L 240.395852 47.883358 
L 240.395852 54.748273 
z
" clip-path="url(#p07a1bf2d71)" style="fill: #056faf"/>
    <path d="M 242.995157 122.013854 
L 258.238139 120.020953 
L 270.897443 117.968801 
L 288.73973 114.490588 
L 301.399034 111.665224 
L 305.121782 110.772596 
L 311.218353 108.378545 
L 326.024643 103.063954 
L 329.280791 102.053199 
L 341.719944 95.452318 
L 359.56223 88.948626 
L 359.777818 88.905452 
L 372.221534 83.259289 
L 382.040853 80.068532 
L 390.063821 77.685216 
L 396.847144 75.403642 
L 398.044368 74.968279 
L 402.723125 71.644805 
L 402.723125 59.124616 
L 402.723125 47.883358 
L 402.723125 39.163961 
L 402.723125 32.039695 
L 402.723125 26.016214 
L 402.723125 20.798437 
L 396.847144 20.798437 
L 390.063821 20.798437 
L 382.040853 20.798437 
L 372.221534 20.798437 
L 369.674969 20.798437 
L 359.56223 25.739206 
L 359.188585 26.016214 
L 348.870512 32.039695 
L 341.719944 34.850668 
L 332.876694 39.163961 
L 326.024643 41.65957 
L 311.218353 46.523729 
L 306.172102 47.883358 
L 301.399034 48.947217 
L 288.73973 51.143068 
L 270.897443 53.108536 
L 258.238139 53.97591 
L 240.395852 54.748273 
L 240.395852 59.124616 
L 240.395852 70.607189 
L 258.238139 69.973347 
L 270.897443 69.23178 
L 288.73973 67.458682 
L 301.399034 65.332272 
L 311.218353 62.842448 
L 321.294079 59.124616 
L 326.024643 57.367675 
L 341.719944 50.932666 
L 350.048713 47.883358 
L 359.56223 43.228332 
L 371.56633 39.163961 
L 372.221534 38.887987 
L 382.040853 36.734588 
L 390.063821 38.096008 
L 392.740247 39.163961 
L 394.162468 47.883358 
L 390.063821 50.285797 
L 382.413888 59.124616 
L 382.040853 59.284489 
L 372.221534 64.155426 
L 359.56223 74.729825 
L 359.370361 74.968279 
L 341.719944 82.239758 
L 331.820286 88.905452 
L 326.024643 90.549638 
L 311.218353 94.952466 
L 301.399034 98.620553 
L 293.648949 102.053199 
L 288.73973 102.932799 
L 270.897443 105.778601 
L 258.238139 107.543471 
L 240.395852 109.608412 
L 240.395852 110.772596 
L 240.395852 122.013854 
L 240.395852 122.180776 
z
" clip-path="url(#p07a1bf2d71)" style="fill: #045e94"/>
    <path d="M 258.238139 107.543471 
L 270.897443 105.778601 
L 288.73973 102.932799 
L 293.648949 102.053199 
L 301.399034 98.620553 
L 311.218353 94.952466 
L 326.024643 90.549638 
L 331.820286 88.905452 
L 341.719944 82.239758 
L 359.370361 74.968279 
L 359.56223 74.729825 
L 372.221534 64.155426 
L 382.040853 59.284489 
L 382.413888 59.124616 
L 390.063821 50.285797 
L 394.162468 47.883358 
L 392.740247 39.163961 
L 390.063821 38.096008 
L 382.040853 36.734588 
L 372.221534 38.887987 
L 371.56633 39.163961 
L 359.56223 43.228332 
L 350.048713 47.883358 
L 341.719944 50.932666 
L 326.024643 57.367675 
L 321.294079 59.124616 
L 311.218353 62.842448 
L 301.399034 65.332272 
L 288.73973 67.458682 
L 270.897443 69.23178 
L 258.238139 69.973347 
L 240.395852 70.607189 
L 240.395852 74.968279 
L 240.395852 88.905452 
L 240.395852 102.053199 
L 240.395852 109.608412 
z
" clip-path="url(#p07a1bf2d71)" style="fill: #03456c"/>
   </g>
   <g id="matplotlib.axis_3">
    <g id="xtick_14">
     <g id="line2d_31">
      <path d="M 240.395852 164.942437 
L 240.395852 20.798437 
" clip-path="url(#p07a1bf2d71)" style="fill: none; stroke: #b0b0b0; stroke-width: 0.8; stroke-linecap: square"/>
     </g>
     <g id="line2d_32">
      <g>
       <use xlink:href="#meda6df0cee" x="240.395852" y="164.942437" style="stroke: #000000; stroke-width: 0.8"/>
      </g>
     </g>
     <g id="text_8">
      <!-- 0.1 -->
      <g transform="translate(232.44429 179.540875) scale(0.1 -0.1)">
       <use xlink:href="#DejaVuSans-30"/>
       <use xlink:href="#DejaVuSans-2e" x="63.623047"/>
       <use xlink:href="#DejaVuSans-31" x="95.410156"/>
      </g>
     </g>
    </g>
    <g id="xtick_15">
     <g id="line2d_33">
      <path d="M 341.719944 164.942437 
L 341.719944 20.798437 
" clip-path="url(#p07a1bf2d71)" style="fill: none; stroke: #b0b0b0; stroke-width: 0.8; stroke-linecap: square"/>
     </g>
     <g id="line2d_34">
      <g>
       <use xlink:href="#meda6df0cee" x="341.719944" y="164.942437" style="stroke: #000000; stroke-width: 0.8"/>
      </g>
     </g>
     <g id="text_9">
      <!-- 1 -->
      <g transform="translate(338.538694 179.540875) scale(0.1 -0.1)">
       <use xlink:href="#DejaVuSans-31"/>
      </g>
     </g>
    </g>
    <g id="xtick_16">
     <g id="line2d_35">
      <g>
       <use xlink:href="#mb1ddc83843" x="270.897443" y="164.942437" style="stroke: #000000; stroke-width: 0.6"/>
      </g>
     </g>
    </g>
    <g id="xtick_17">
     <g id="line2d_36">
      <g>
       <use xlink:href="#mb1ddc83843" x="288.73973" y="164.942437" style="stroke: #000000; stroke-width: 0.6"/>
      </g>
     </g>
    </g>
    <g id="xtick_18">
     <g id="line2d_37">
      <g>
       <use xlink:href="#mb1ddc83843" x="301.399034" y="164.942437" style="stroke: #000000; stroke-width: 0.6"/>
      </g>
     </g>
    </g>
    <g id="xtick_19">
     <g id="line2d_38">
      <g>
       <use xlink:href="#mb1ddc83843" x="311.218353" y="164.942437" style="stroke: #000000; stroke-width: 0.6"/>
      </g>
     </g>
    </g>
    <g id="xtick_20">
     <g id="line2d_39">
      <g>
       <use xlink:href="#mb1ddc83843" x="319.241321" y="164.942437" style="stroke: #000000; stroke-width: 0.6"/>
      </g>
     </g>
    </g>
    <g id="xtick_21">
     <g id="line2d_40">
      <g>
       <use xlink:href="#mb1ddc83843" x="326.024643" y="164.942437" style="stroke: #000000; stroke-width: 0.6"/>
      </g>
     </g>
    </g>
    <g id="xtick_22">
     <g id="line2d_41">
      <g>
       <use xlink:href="#mb1ddc83843" x="331.900625" y="164.942437" style="stroke: #000000; stroke-width: 0.6"/>
      </g>
     </g>
    </g>
    <g id="xtick_23">
     <g id="line2d_42">
      <g>
       <use xlink:href="#mb1ddc83843" x="337.083607" y="164.942437" style="stroke: #000000; stroke-width: 0.6"/>
      </g>
     </g>
    </g>
    <g id="xtick_24">
     <g id="line2d_43">
      <g>
       <use xlink:href="#mb1ddc83843" x="372.221534" y="164.942437" style="stroke: #000000; stroke-width: 0.6"/>
      </g>
     </g>
    </g>
    <g id="xtick_25">
     <g id="line2d_44">
      <g>
       <use xlink:href="#mb1ddc83843" x="390.063821" y="164.942437" style="stroke: #000000; stroke-width: 0.6"/>
      </g>
     </g>
    </g>
    <g id="xtick_26">
     <g id="line2d_45">
      <g>
       <use xlink:href="#mb1ddc83843" x="402.723125" y="164.942437" style="stroke: #000000; stroke-width: 0.6"/>
      </g>
     </g>
    </g>
    <g id="text_10">
     <!-- $T_{FIV3}$ [s] -->
     <g transform="translate(302.559489 193.219) scale(0.1 -0.1)">
      <use xlink:href="#DejaVuSans-Oblique-54" transform="translate(0 0.015625)"/>
      <use xlink:href="#DejaVuSans-Oblique-46" transform="translate(61.083984 -16.390625) scale(0.7)"/>
      <use xlink:href="#DejaVuSans-Oblique-49" transform="translate(101.347656 -16.390625) scale(0.7)"/>
      <use xlink:href="#DejaVuSans-Oblique-56" transform="translate(121.992187 -16.390625) scale(0.7)"/>
      <use xlink:href="#DejaVuSans-33" transform="translate(169.87793 -16.390625) scale(0.7)"/>
      <use xlink:href="#DejaVuSans-20" transform="translate(217.148438 0.015625)"/>
      <use xlink:href="#DejaVuSans-5b" transform="translate(248.935547 0.015625)"/>
      <use xlink:href="#DejaVuSans-73" transform="translate(287.949219 0.015625)"/>
      <use xlink:href="#DejaVuSans-5d" transform="translate(340.048828 0.015625)"/>
     </g>
    </g>
   </g>
   <g id="matplotlib.axis_4">
    <g id="ytick_14">
     <g id="line2d_46">
      <path d="M 240.395852 164.942437 
L 402.723125 164.942437 
" clip-path="url(#p07a1bf2d71)" style="fill: none; stroke: #b0b0b0; stroke-width: 0.8; stroke-linecap: square"/>
     </g>
     <g id="line2d_47">
      <g>
       <use xlink:href="#mb31b21a474" x="240.395852" y="164.942437" style="stroke: #000000; stroke-width: 0.8"/>
      </g>
     </g>
    </g>
    <g id="ytick_15">
     <g id="line2d_48">
      <path d="M 240.395852 74.968279 
L 402.723125 74.968279 
" clip-path="url(#p07a1bf2d71)" style="fill: none; stroke: #b0b0b0; stroke-width: 0.8; stroke-linecap: square"/>
     </g>
     <g id="line2d_49">
      <g>
       <use xlink:href="#mb31b21a474" x="240.395852" y="74.968279" style="stroke: #000000; stroke-width: 0.8"/>
      </g>
     </g>
    </g>
    <g id="ytick_16">
     <g id="line2d_50">
      <g>
       <use xlink:href="#mf90b4650f7" x="240.395852" y="137.857517" style="stroke: #000000; stroke-width: 0.6"/>
      </g>
     </g>
    </g>
    <g id="ytick_17">
     <g id="line2d_51">
      <g>
       <use xlink:href="#mf90b4650f7" x="240.395852" y="122.013854" style="stroke: #000000; stroke-width: 0.6"/>
      </g>
     </g>
    </g>
    <g id="ytick_18">
     <g id="line2d_52">
      <g>
       <use xlink:href="#mf90b4650f7" x="240.395852" y="110.772596" style="stroke: #000000; stroke-width: 0.6"/>
      </g>
     </g>
    </g>
    <g id="ytick_19">
     <g id="line2d_53">
      <g>
       <use xlink:href="#mf90b4650f7" x="240.395852" y="102.053199" style="stroke: #000000; stroke-width: 0.6"/>
      </g>
     </g>
    </g>
    <g id="ytick_20">
     <g id="line2d_54">
      <g>
       <use xlink:href="#mf90b4650f7" x="240.395852" y="94.928933" style="stroke: #000000; stroke-width: 0.6"/>
      </g>
     </g>
    </g>
    <g id="ytick_21">
     <g id="line2d_55">
      <g>
       <use xlink:href="#mf90b4650f7" x="240.395852" y="88.905452" style="stroke: #000000; stroke-width: 0.6"/>
      </g>
     </g>
    </g>
    <g id="ytick_22">
     <g id="line2d_56">
      <g>
       <use xlink:href="#mf90b4650f7" x="240.395852" y="83.687676" style="stroke: #000000; stroke-width: 0.6"/>
      </g>
     </g>
    </g>
    <g id="ytick_23">
     <g id="line2d_57">
      <g>
       <use xlink:href="#mf90b4650f7" x="240.395852" y="79.08527" style="stroke: #000000; stroke-width: 0.6"/>
      </g>
     </g>
    </g>
    <g id="ytick_24">
     <g id="line2d_58">
      <g>
       <use xlink:href="#mf90b4650f7" x="240.395852" y="47.883358" style="stroke: #000000; stroke-width: 0.6"/>
      </g>
     </g>
    </g>
    <g id="ytick_25">
     <g id="line2d_59">
      <g>
       <use xlink:href="#mf90b4650f7" x="240.395852" y="32.039695" style="stroke: #000000; stroke-width: 0.6"/>
      </g>
     </g>
    </g>
    <g id="ytick_26">
     <g id="line2d_60">
      <g>
       <use xlink:href="#mf90b4650f7" x="240.395852" y="20.798437" style="stroke: #000000; stroke-width: 0.6"/>
      </g>
     </g>
    </g>
   </g>
   <g id="patch_8">
    <path d="M 240.395852 164.942437 
L 240.395852 20.798437 
" style="fill: none; stroke: #000000; stroke-width: 0.8; stroke-linejoin: miter; stroke-linecap: square"/>
   </g>
   <g id="patch_9">
    <path d="M 402.723125 164.942437 
L 402.723125 20.798437 
" style="fill: none; stroke: #000000; stroke-width: 0.8; stroke-linejoin: miter; stroke-linecap: square"/>
   </g>
   <g id="patch_10">
    <path d="M 240.395852 164.942437 
L 402.723125 164.942437 
" style="fill: none; stroke: #000000; stroke-width: 0.8; stroke-linejoin: miter; stroke-linecap: square"/>
   </g>
   <g id="patch_11">
    <path d="M 240.395852 20.798437 
L 402.723125 20.798437 
" style="fill: none; stroke: #000000; stroke-width: 0.8; stroke-linejoin: miter; stroke-linecap: square"/>
   </g>
   <g id="text_11">
    <!-- Predicted -->
    <g transform="translate(298.089176 14.798437) scale(0.1 -0.1)">
     <defs>
      <path id="DejaVuSans-50" d="M 1259 4147 
L 1259 2394 
L 2053 2394 
Q 2494 2394 2734 2622 
Q 2975 2850 2975 3272 
Q 2975 3691 2734 3919 
Q 2494 4147 2053 4147 
L 1259 4147 
z
M 628 4666 
L 2053 4666 
Q 2838 4666 3239 4311 
Q 3641 3956 3641 3272 
Q 3641 2581 3239 2228 
Q 2838 1875 2053 1875 
L 1259 1875 
L 1259 0 
L 628 0 
L 628 4666 
z
" transform="scale(0.015625)"/>
      <path id="DejaVuSans-65" d="M 3597 1894 
L 3597 1613 
L 953 1613 
Q 991 1019 1311 708 
Q 1631 397 2203 397 
Q 2534 397 2845 478 
Q 3156 559 3463 722 
L 3463 178 
Q 3153 47 2828 -22 
Q 2503 -91 2169 -91 
Q 1331 -91 842 396 
Q 353 884 353 1716 
Q 353 2575 817 3079 
Q 1281 3584 2069 3584 
Q 2775 3584 3186 3129 
Q 3597 2675 3597 1894 
z
M 3022 2063 
Q 3016 2534 2758 2815 
Q 2500 3097 2075 3097 
Q 1594 3097 1305 2825 
Q 1016 2553 972 2059 
L 3022 2063 
z
" transform="scale(0.015625)"/>
      <path id="DejaVuSans-64" d="M 2906 2969 
L 2906 4863 
L 3481 4863 
L 3481 0 
L 2906 0 
L 2906 525 
Q 2725 213 2448 61 
Q 2172 -91 1784 -91 
Q 1150 -91 751 415 
Q 353 922 353 1747 
Q 353 2572 751 3078 
Q 1150 3584 1784 3584 
Q 2172 3584 2448 3432 
Q 2725 3281 2906 2969 
z
M 947 1747 
Q 947 1113 1208 752 
Q 1469 391 1925 391 
Q 2381 391 2643 752 
Q 2906 1113 2906 1747 
Q 2906 2381 2643 2742 
Q 2381 3103 1925 3103 
Q 1469 3103 1208 2742 
Q 947 2381 947 1747 
z
" transform="scale(0.015625)"/>
      <path id="DejaVuSans-74" d="M 1172 4494 
L 1172 3500 
L 2356 3500 
L 2356 3053 
L 1172 3053 
L 1172 1153 
Q 1172 725 1289 603 
Q 1406 481 1766 481 
L 2356 481 
L 2356 0 
L 1766 0 
Q 1100 0 847 248 
Q 594 497 594 1153 
L 594 3053 
L 172 3053 
L 172 3500 
L 594 3500 
L 594 4494 
L 1172 4494 
z
" transform="scale(0.015625)"/>
     </defs>
     <use xlink:href="#DejaVuSans-50"/>
     <use xlink:href="#DejaVuSans-72" x="58.552734"/>
     <use xlink:href="#DejaVuSans-65" x="97.416016"/>
     <use xlink:href="#DejaVuSans-64" x="158.939453"/>
     <use xlink:href="#DejaVuSans-69" x="222.416016"/>
     <use xlink:href="#DejaVuSans-63" x="250.199219"/>
     <use xlink:href="#DejaVuSans-74" x="305.179688"/>
     <use xlink:href="#DejaVuSans-65" x="344.388672"/>
     <use xlink:href="#DejaVuSans-64" x="405.912109"/>
    </g>
   </g>
  </g>
  <g id="axes_3">
   <g id="patch_12">
    <path d="M 425.043125 164.942437 
L 432.250325 164.942437 
L 432.250325 20.798437 
L 425.043125 20.798437 
z
" style="fill: #ffffff"/>
   </g>
   <g id="QuadMesh_1">
    <path d="M 425.043125 164.942437 
L 432.250325 164.942437 
L 432.250325 150.528037 
L 425.043125 150.528037 
L 425.043125 164.942437 
" clip-path="url(#pbd156094fd)" style="fill: #f8f1f8"/>
    <path d="M 425.043125 150.528037 
L 432.250325 150.528037 
L 432.250325 136.113637 
L 425.043125 136.113637 
L 425.043125 150.528037 
" clip-path="url(#pbd156094fd)" style="fill: #e7e3f0"/>
    <path d="M 425.043125 136.113637 
L 432.250325 136.113637 
L 432.250325 121.699237 
L 425.043125 121.699237 
L 425.043125 136.113637 
" clip-path="url(#pbd156094fd)" style="fill: #d0d1e6"/>
    <path d="M 425.043125 121.699237 
L 432.250325 121.699237 
L 432.250325 107.284837 
L 425.043125 107.284837 
L 425.043125 121.699237 
" clip-path="url(#pbd156094fd)" style="fill: #afc1dd"/>
    <path d="M 425.043125 107.284837 
L 432.250325 107.284837 
L 432.250325 92.870437 
L 425.043125 92.870437 
L 425.043125 107.284837 
" clip-path="url(#pbd156094fd)" style="fill: #88b1d4"/>
    <path d="M 425.043125 92.870437 
L 432.250325 92.870437 
L 432.250325 78.456037 
L 425.043125 78.456037 
L 425.043125 92.870437 
" clip-path="url(#pbd156094fd)" style="fill: #5c9fc9"/>
    <path d="M 425.043125 78.456037 
L 432.250325 78.456037 
L 432.250325 64.041637 
L 425.043125 64.041637 
L 425.043125 78.456037 
" clip-path="url(#pbd156094fd)" style="fill: #2c89bd"/>
    <path d="M 425.043125 64.041637 
L 432.250325 64.041637 
L 432.250325 49.627237 
L 425.043125 49.627237 
L 425.043125 64.041637 
" clip-path="url(#pbd156094fd)" style="fill: #056faf"/>
    <path d="M 425.043125 49.627237 
L 432.250325 49.627237 
L 432.250325 35.212837 
L 425.043125 35.212837 
L 425.043125 49.627237 
" clip-path="url(#pbd156094fd)" style="fill: #045e94"/>
    <path d="M 425.043125 35.212837 
L 432.250325 35.212837 
L 432.250325 20.798437 
L 425.043125 20.798437 
L 425.043125 35.212837 
" clip-path="url(#pbd156094fd)" style="fill: #03456c"/>
   </g>
   <g id="matplotlib.axis_5"/>
   <g id="matplotlib.axis_6">
    <g id="ytick_27">
     <g id="line2d_61">
      <defs>
       <path id="m5b00542713" d="M 0 0 
L 3.5 0 
" style="stroke: #000000; stroke-width: 0.8"/>
      </defs>
      <g>
       <use xlink:href="#m5b00542713" x="432.250325" y="164.942437" style="stroke: #000000; stroke-width: 0.8"/>
      </g>
     </g>
     <g id="text_12">
      <!-- 0.40 -->
      <g transform="translate(439.250325 168.741656) scale(0.1 -0.1)">
       <defs>
        <path id="DejaVuSans-34" d="M 2419 4116 
L 825 1625 
L 2419 1625 
L 2419 4116 
z
M 2253 4666 
L 3047 4666 
L 3047 1625 
L 3713 1625 
L 3713 1100 
L 3047 1100 
L 3047 0 
L 2419 0 
L 2419 1100 
L 313 1100 
L 313 1709 
L 2253 4666 
z
" transform="scale(0.015625)"/>
       </defs>
       <use xlink:href="#DejaVuSans-30"/>
       <use xlink:href="#DejaVuSans-2e" x="63.623047"/>
       <use xlink:href="#DejaVuSans-34" x="95.410156"/>
       <use xlink:href="#DejaVuSans-30" x="159.033203"/>
      </g>
     </g>
    </g>
    <g id="ytick_28">
     <g id="line2d_62">
      <g>
       <use xlink:href="#m5b00542713" x="432.250325" y="150.528037" style="stroke: #000000; stroke-width: 0.8"/>
      </g>
     </g>
     <g id="text_13">
      <!-- 0.46 -->
      <g transform="translate(439.250325 154.327256) scale(0.1 -0.1)">
       <defs>
        <path id="DejaVuSans-36" d="M 2113 2584 
Q 1688 2584 1439 2293 
Q 1191 2003 1191 1497 
Q 1191 994 1439 701 
Q 1688 409 2113 409 
Q 2538 409 2786 701 
Q 3034 994 3034 1497 
Q 3034 2003 2786 2293 
Q 2538 2584 2113 2584 
z
M 3366 4563 
L 3366 3988 
Q 3128 4100 2886 4159 
Q 2644 4219 2406 4219 
Q 1781 4219 1451 3797 
Q 1122 3375 1075 2522 
Q 1259 2794 1537 2939 
Q 1816 3084 2150 3084 
Q 2853 3084 3261 2657 
Q 3669 2231 3669 1497 
Q 3669 778 3244 343 
Q 2819 -91 2113 -91 
Q 1303 -91 875 529 
Q 447 1150 447 2328 
Q 447 3434 972 4092 
Q 1497 4750 2381 4750 
Q 2619 4750 2861 4703 
Q 3103 4656 3366 4563 
z
" transform="scale(0.015625)"/>
       </defs>
       <use xlink:href="#DejaVuSans-30"/>
       <use xlink:href="#DejaVuSans-2e" x="63.623047"/>
       <use xlink:href="#DejaVuSans-34" x="95.410156"/>
       <use xlink:href="#DejaVuSans-36" x="159.033203"/>
      </g>
     </g>
    </g>
    <g id="ytick_29">
     <g id="line2d_63">
      <g>
       <use xlink:href="#m5b00542713" x="432.250325" y="136.113637" style="stroke: #000000; stroke-width: 0.8"/>
      </g>
     </g>
     <g id="text_14">
      <!-- 0.52 -->
      <g transform="translate(439.250325 139.912856) scale(0.1 -0.1)">
       <defs>
        <path id="DejaVuSans-35" d="M 691 4666 
L 3169 4666 
L 3169 4134 
L 1269 4134 
L 1269 2991 
Q 1406 3038 1543 3061 
Q 1681 3084 1819 3084 
Q 2600 3084 3056 2656 
Q 3513 2228 3513 1497 
Q 3513 744 3044 326 
Q 2575 -91 1722 -91 
Q 1428 -91 1123 -41 
Q 819 9 494 109 
L 494 744 
Q 775 591 1075 516 
Q 1375 441 1709 441 
Q 2250 441 2565 725 
Q 2881 1009 2881 1497 
Q 2881 1984 2565 2268 
Q 2250 2553 1709 2553 
Q 1456 2553 1204 2497 
Q 953 2441 691 2322 
L 691 4666 
z
" transform="scale(0.015625)"/>
        <path id="DejaVuSans-32" d="M 1228 531 
L 3431 531 
L 3431 0 
L 469 0 
L 469 531 
Q 828 903 1448 1529 
Q 2069 2156 2228 2338 
Q 2531 2678 2651 2914 
Q 2772 3150 2772 3378 
Q 2772 3750 2511 3984 
Q 2250 4219 1831 4219 
Q 1534 4219 1204 4116 
Q 875 4013 500 3803 
L 500 4441 
Q 881 4594 1212 4672 
Q 1544 4750 1819 4750 
Q 2544 4750 2975 4387 
Q 3406 4025 3406 3419 
Q 3406 3131 3298 2873 
Q 3191 2616 2906 2266 
Q 2828 2175 2409 1742 
Q 1991 1309 1228 531 
z
" transform="scale(0.015625)"/>
       </defs>
       <use xlink:href="#DejaVuSans-30"/>
       <use xlink:href="#DejaVuSans-2e" x="63.623047"/>
       <use xlink:href="#DejaVuSans-35" x="95.410156"/>
       <use xlink:href="#DejaVuSans-32" x="159.033203"/>
      </g>
     </g>
    </g>
    <g id="ytick_30">
     <g id="line2d_64">
      <g>
       <use xlink:href="#m5b00542713" x="432.250325" y="121.699237" style="stroke: #000000; stroke-width: 0.8"/>
      </g>
     </g>
     <g id="text_15">
      <!-- 0.58 -->
      <g transform="translate(439.250325 125.498456) scale(0.1 -0.1)">
       <defs>
        <path id="DejaVuSans-38" d="M 2034 2216 
Q 1584 2216 1326 1975 
Q 1069 1734 1069 1313 
Q 1069 891 1326 650 
Q 1584 409 2034 409 
Q 2484 409 2743 651 
Q 3003 894 3003 1313 
Q 3003 1734 2745 1975 
Q 2488 2216 2034 2216 
z
M 1403 2484 
Q 997 2584 770 2862 
Q 544 3141 544 3541 
Q 544 4100 942 4425 
Q 1341 4750 2034 4750 
Q 2731 4750 3128 4425 
Q 3525 4100 3525 3541 
Q 3525 3141 3298 2862 
Q 3072 2584 2669 2484 
Q 3125 2378 3379 2068 
Q 3634 1759 3634 1313 
Q 3634 634 3220 271 
Q 2806 -91 2034 -91 
Q 1263 -91 848 271 
Q 434 634 434 1313 
Q 434 1759 690 2068 
Q 947 2378 1403 2484 
z
M 1172 3481 
Q 1172 3119 1398 2916 
Q 1625 2713 2034 2713 
Q 2441 2713 2670 2916 
Q 2900 3119 2900 3481 
Q 2900 3844 2670 4047 
Q 2441 4250 2034 4250 
Q 1625 4250 1398 4047 
Q 1172 3844 1172 3481 
z
" transform="scale(0.015625)"/>
       </defs>
       <use xlink:href="#DejaVuSans-30"/>
       <use xlink:href="#DejaVuSans-2e" x="63.623047"/>
       <use xlink:href="#DejaVuSans-35" x="95.410156"/>
       <use xlink:href="#DejaVuSans-38" x="159.033203"/>
      </g>
     </g>
    </g>
    <g id="ytick_31">
     <g id="line2d_65">
      <g>
       <use xlink:href="#m5b00542713" x="432.250325" y="107.284837" style="stroke: #000000; stroke-width: 0.8"/>
      </g>
     </g>
     <g id="text_16">
      <!-- 0.64 -->
      <g transform="translate(439.250325 111.084056) scale(0.1 -0.1)">
       <use xlink:href="#DejaVuSans-30"/>
       <use xlink:href="#DejaVuSans-2e" x="63.623047"/>
       <use xlink:href="#DejaVuSans-36" x="95.410156"/>
       <use xlink:href="#DejaVuSans-34" x="159.033203"/>
      </g>
     </g>
    </g>
    <g id="ytick_32">
     <g id="line2d_66">
      <g>
       <use xlink:href="#m5b00542713" x="432.250325" y="92.870437" style="stroke: #000000; stroke-width: 0.8"/>
      </g>
     </g>
     <g id="text_17">
      <!-- 0.70 -->
      <g transform="translate(439.250325 96.669656) scale(0.1 -0.1)">
       <defs>
        <path id="DejaVuSans-37" d="M 525 4666 
L 3525 4666 
L 3525 4397 
L 1831 0 
L 1172 0 
L 2766 4134 
L 525 4134 
L 525 4666 
z
" transform="scale(0.015625)"/>
       </defs>
       <use xlink:href="#DejaVuSans-30"/>
       <use xlink:href="#DejaVuSans-2e" x="63.623047"/>
       <use xlink:href="#DejaVuSans-37" x="95.410156"/>
       <use xlink:href="#DejaVuSans-30" x="159.033203"/>
      </g>
     </g>
    </g>
    <g id="ytick_33">
     <g id="line2d_67">
      <g>
       <use xlink:href="#m5b00542713" x="432.250325" y="78.456037" style="stroke: #000000; stroke-width: 0.8"/>
      </g>
     </g>
     <g id="text_18">
      <!-- 0.76 -->
      <g transform="translate(439.250325 82.255256) scale(0.1 -0.1)">
       <use xlink:href="#DejaVuSans-30"/>
       <use xlink:href="#DejaVuSans-2e" x="63.623047"/>
       <use xlink:href="#DejaVuSans-37" x="95.410156"/>
       <use xlink:href="#DejaVuSans-36" x="159.033203"/>
      </g>
     </g>
    </g>
    <g id="ytick_34">
     <g id="line2d_68">
      <g>
       <use xlink:href="#m5b00542713" x="432.250325" y="64.041637" style="stroke: #000000; stroke-width: 0.8"/>
      </g>
     </g>
     <g id="text_19">
      <!-- 0.82 -->
      <g transform="translate(439.250325 67.840856) scale(0.1 -0.1)">
       <use xlink:href="#DejaVuSans-30"/>
       <use xlink:href="#DejaVuSans-2e" x="63.623047"/>
       <use xlink:href="#DejaVuSans-38" x="95.410156"/>
       <use xlink:href="#DejaVuSans-32" x="159.033203"/>
      </g>
     </g>
    </g>
    <g id="ytick_35">
     <g id="line2d_69">
      <g>
       <use xlink:href="#m5b00542713" x="432.250325" y="49.627237" style="stroke: #000000; stroke-width: 0.8"/>
      </g>
     </g>
     <g id="text_20">
      <!-- 0.88 -->
      <g transform="translate(439.250325 53.426456) scale(0.1 -0.1)">
       <use xlink:href="#DejaVuSans-30"/>
       <use xlink:href="#DejaVuSans-2e" x="63.623047"/>
       <use xlink:href="#DejaVuSans-38" x="95.410156"/>
       <use xlink:href="#DejaVuSans-38" x="159.033203"/>
      </g>
     </g>
    </g>
    <g id="ytick_36">
     <g id="line2d_70">
      <g>
       <use xlink:href="#m5b00542713" x="432.250325" y="35.212837" style="stroke: #000000; stroke-width: 0.8"/>
      </g>
     </g>
     <g id="text_21">
      <!-- 0.94 -->
      <g transform="translate(439.250325 39.012056) scale(0.1 -0.1)">
       <defs>
        <path id="DejaVuSans-39" d="M 703 97 
L 703 672 
Q 941 559 1184 500 
Q 1428 441 1663 441 
Q 2288 441 2617 861 
Q 2947 1281 2994 2138 
Q 2813 1869 2534 1725 
Q 2256 1581 1919 1581 
Q 1219 1581 811 2004 
Q 403 2428 403 3163 
Q 403 3881 828 4315 
Q 1253 4750 1959 4750 
Q 2769 4750 3195 4129 
Q 3622 3509 3622 2328 
Q 3622 1225 3098 567 
Q 2575 -91 1691 -91 
Q 1453 -91 1209 -44 
Q 966 3 703 97 
z
M 1959 2075 
Q 2384 2075 2632 2365 
Q 2881 2656 2881 3163 
Q 2881 3666 2632 3958 
Q 2384 4250 1959 4250 
Q 1534 4250 1286 3958 
Q 1038 3666 1038 3163 
Q 1038 2656 1286 2365 
Q 1534 2075 1959 2075 
z
" transform="scale(0.015625)"/>
       </defs>
       <use xlink:href="#DejaVuSans-30"/>
       <use xlink:href="#DejaVuSans-2e" x="63.623047"/>
       <use xlink:href="#DejaVuSans-39" x="95.410156"/>
       <use xlink:href="#DejaVuSans-34" x="159.033203"/>
      </g>
     </g>
    </g>
    <g id="ytick_37">
     <g id="line2d_71">
      <g>
       <use xlink:href="#m5b00542713" x="432.250325" y="20.798437" style="stroke: #000000; stroke-width: 0.8"/>
      </g>
     </g>
     <g id="text_22">
      <!-- 1.00 -->
      <g transform="translate(439.250325 24.597656) scale(0.1 -0.1)">
       <use xlink:href="#DejaVuSans-31"/>
       <use xlink:href="#DejaVuSans-2e" x="63.623047"/>
       <use xlink:href="#DejaVuSans-30" x="95.410156"/>
       <use xlink:href="#DejaVuSans-30" x="159.033203"/>
      </g>
     </g>
    </g>
   </g>
   <g id="LineCollection_1"/>
   <g id="patch_13">
    <path d="M 425.043125 164.942437 
L 428.646725 164.942437 
L 432.250325 164.942437 
L 432.250325 20.798437 
L 428.646725 20.798437 
L 425.043125 20.798437 
L 425.043125 164.942437 
z
" style="fill: none; stroke: #000000; stroke-width: 0.8; stroke-linejoin: miter; stroke-linecap: square"/>
   </g>
   <g id="text_23">
    <!-- $$ -->
    <g transform="translate(425.446725 14.798437) scale(0.1 -0.1)">
     <defs>
      <path id="DejaVuSans-Oblique-3c1" d="M 1203 2875 
Q 1453 3194 1981 3475 
Q 2188 3584 2756 3584 
Q 3394 3584 3694 3078 
Q 3994 2572 3834 1747 
Q 3672 922 3175 415 
Q 2678 -91 2041 -91 
Q 1656 -91 1409 63 
Q 1163 213 1044 525 
L 681 -1331 
L 103 -1331 
L 697 1716 
Q 838 2438 1203 2875 
z
M 3238 1747 
Q 3359 2381 3169 2744 
Q 2978 3103 2522 3103 
Q 2066 3103 1734 2744 
Q 1403 2381 1281 1747 
Q 1156 1113 1347 750 
Q 1538 391 1994 391 
Q 2450 391 2781 750 
Q 3113 1113 3238 1747 
z
" transform="scale(0.015625)"/>
     </defs>
     <use xlink:href="#DejaVuSans-Oblique-3c1"/>
    </g>
   </g>
  </g>
 </g>
 <defs>
  <clipPath id="pb14a6d6776">
   <rect x="45.603125" y="20.798437" width="162.327273" height="144.144"/>
  </clipPath>
  <clipPath id="p07a1bf2d71">
   <rect x="240.395852" y="20.798437" width="162.327273" height="144.144"/>
  </clipPath>
  <clipPath id="pbd156094fd">
   <rect x="425.043125" y="20.798437" width="7.2072" height="144.144"/>
  </clipPath>
 </defs>
</svg>
