<?xml version="1.0" encoding="utf-8" standalone="no"?>
<!DOCTYPE svg PUBLIC "-//W3C//DTD SVG 1.1//EN"
  "http://www.w3.org/Graphics/SVG/1.1/DTD/svg11.dtd">
<svg xmlns:xlink="http://www.w3.org/1999/xlink" width="427.03375pt" height="223.205pt" viewBox="0 0 427.03375 223.205" xmlns="http://www.w3.org/2000/svg" version="1.1">
 <metadata>
  <rdf:RDF xmlns:dc="http://purl.org/dc/elements/1.1/" xmlns:cc="http://creativecommons.org/ns#" xmlns:rdf="http://www.w3.org/1999/02/22-rdf-syntax-ns#">
   <cc:Work>
    <dc:type rdf:resource="http://purl.org/dc/dcmitype/StillImage"/>
    <dc:date>2024-05-22T14:51:19.870075</dc:date>
    <dc:format>image/svg+xml</dc:format>
    <dc:creator>
     <cc:Agent>
      <dc:title>Matplotlib v3.8.0, https://matplotlib.org/</dc:title>
     </cc:Agent>
    </dc:creator>
   </cc:Work>
  </rdf:RDF>
 </metadata>
 <defs>
  <style type="text/css">*{stroke-linejoin: round; stroke-linecap: butt}</style>
 </defs>
 <g id="figure_1">
  <g id="patch_1">
   <path d="M 0 223.205 
L 427.03375 223.205 
L 427.03375 0 
L 0 0 
z
" style="fill: #ffffff"/>
  </g>
  <g id="axes_1">
   <g id="patch_2">
    <path d="M 39.0025 189.52 
L 256.6225 189.52 
L 256.6225 23.2 
L 39.0025 23.2 
z
" style="fill: #ffffff"/>
   </g>
   <g id="matplotlib.axis_1">
    <g id="xtick_1">
     <g id="line2d_1">
      <path d="M 48.894318 189.52 
L 48.894318 23.2 
" clip-path="url(#p75278e9211)" style="fill: none; stroke: #b0b0b0; stroke-width: 0.8; stroke-linecap: square"/>
     </g>
     <g id="line2d_2">
      <defs>
       <path id="m21ac650a01" d="M 0 0 
L 0 3.5 
" style="stroke: #000000; stroke-width: 0.8"/>
      </defs>
      <g>
       <use xlink:href="#m21ac650a01" x="48.894318" y="189.52" style="stroke: #000000; stroke-width: 0.8"/>
      </g>
     </g>
     <g id="text_1">
      <!-- 0.01 -->
      <g transform="translate(39.988068 202.59875) scale(0.08 -0.08)">
       <defs>
        <path id="DejaVuSans-30" d="M 2034 4250 
Q 1547 4250 1301 3770 
Q 1056 3291 1056 2328 
Q 1056 1369 1301 889 
Q 1547 409 2034 409 
Q 2525 409 2770 889 
Q 3016 1369 3016 2328 
Q 3016 3291 2770 3770 
Q 2525 4250 2034 4250 
z
M 2034 4750 
Q 2819 4750 3233 4129 
Q 3647 3509 3647 2328 
Q 3647 1150 3233 529 
Q 2819 -91 2034 -91 
Q 1250 -91 836 529 
Q 422 1150 422 2328 
Q 422 3509 836 4129 
Q 1250 4750 2034 4750 
z
" transform="scale(0.015625)"/>
        <path id="DejaVuSans-2e" d="M 684 794 
L 1344 794 
L 1344 0 
L 684 0 
L 684 794 
z
" transform="scale(0.015625)"/>
        <path id="DejaVuSans-31" d="M 794 531 
L 1825 531 
L 1825 4091 
L 703 3866 
L 703 4441 
L 1819 4666 
L 2450 4666 
L 2450 531 
L 3481 531 
L 3481 0 
L 794 0 
L 794 531 
z
" transform="scale(0.015625)"/>
       </defs>
       <use xlink:href="#DejaVuSans-30"/>
       <use xlink:href="#DejaVuSans-2e" x="63.623047"/>
       <use xlink:href="#DejaVuSans-30" x="95.410156"/>
       <use xlink:href="#DejaVuSans-31" x="159.033203"/>
      </g>
     </g>
    </g>
    <g id="xtick_2">
     <g id="line2d_3">
      <path d="M 114.839773 189.52 
L 114.839773 23.2 
" clip-path="url(#p75278e9211)" style="fill: none; stroke: #b0b0b0; stroke-width: 0.8; stroke-linecap: square"/>
     </g>
     <g id="line2d_4">
      <g>
       <use xlink:href="#m21ac650a01" x="114.839773" y="189.52" style="stroke: #000000; stroke-width: 0.8"/>
      </g>
     </g>
     <g id="text_2">
      <!-- 0.1 -->
      <g transform="translate(108.478523 202.59875) scale(0.08 -0.08)">
       <use xlink:href="#DejaVuSans-30"/>
       <use xlink:href="#DejaVuSans-2e" x="63.623047"/>
       <use xlink:href="#DejaVuSans-31" x="95.410156"/>
      </g>
     </g>
    </g>
    <g id="xtick_3">
     <g id="line2d_5">
      <path d="M 180.785227 189.52 
L 180.785227 23.2 
" clip-path="url(#p75278e9211)" style="fill: none; stroke: #b0b0b0; stroke-width: 0.8; stroke-linecap: square"/>
     </g>
     <g id="line2d_6">
      <g>
       <use xlink:href="#m21ac650a01" x="180.785227" y="189.52" style="stroke: #000000; stroke-width: 0.8"/>
      </g>
     </g>
     <g id="text_3">
      <!-- 1 -->
      <g transform="translate(178.240227 202.59875) scale(0.08 -0.08)">
       <use xlink:href="#DejaVuSans-31"/>
      </g>
     </g>
    </g>
    <g id="xtick_4">
     <g id="line2d_7">
      <path d="M 246.730682 189.52 
L 246.730682 23.2 
" clip-path="url(#p75278e9211)" style="fill: none; stroke: #b0b0b0; stroke-width: 0.8; stroke-linecap: square"/>
     </g>
     <g id="line2d_8">
      <g>
       <use xlink:href="#m21ac650a01" x="246.730682" y="189.52" style="stroke: #000000; stroke-width: 0.8"/>
      </g>
     </g>
     <g id="text_4">
      <!-- 10 -->
      <g transform="translate(241.640682 202.59875) scale(0.08 -0.08)">
       <use xlink:href="#DejaVuSans-31"/>
       <use xlink:href="#DejaVuSans-30" x="63.623047"/>
      </g>
     </g>
    </g>
    <g id="xtick_5">
     <g id="line2d_9">
      <path d="M 42.503543 189.52 
L 42.503543 23.2 
" clip-path="url(#p75278e9211)" style="fill: none; stroke-dasharray: 0.8,1.32; stroke-dashoffset: 0; stroke: #b0b0b0; stroke-width: 0.8"/>
     </g>
     <g id="line2d_10">
      <defs>
       <path id="m84fcb39ca8" d="M 0 0 
L 0 2 
" style="stroke: #000000; stroke-width: 0.6"/>
      </defs>
      <g>
       <use xlink:href="#m84fcb39ca8" x="42.503543" y="189.52" style="stroke: #000000; stroke-width: 0.6"/>
      </g>
     </g>
    </g>
    <g id="xtick_6">
     <g id="line2d_11">
      <path d="M 45.87682 189.52 
L 45.87682 23.2 
" clip-path="url(#p75278e9211)" style="fill: none; stroke-dasharray: 0.8,1.32; stroke-dashoffset: 0; stroke: #b0b0b0; stroke-width: 0.8"/>
     </g>
     <g id="line2d_12">
      <g>
       <use xlink:href="#m84fcb39ca8" x="45.87682" y="189.52" style="stroke: #000000; stroke-width: 0.6"/>
      </g>
     </g>
    </g>
    <g id="xtick_7">
     <g id="line2d_13">
      <path d="M 68.745878 189.52 
L 68.745878 23.2 
" clip-path="url(#p75278e9211)" style="fill: none; stroke-dasharray: 0.8,1.32; stroke-dashoffset: 0; stroke: #b0b0b0; stroke-width: 0.8"/>
     </g>
     <g id="line2d_14">
      <g>
       <use xlink:href="#m84fcb39ca8" x="68.745878" y="189.52" style="stroke: #000000; stroke-width: 0.6"/>
      </g>
     </g>
    </g>
    <g id="xtick_8">
     <g id="line2d_15">
      <path d="M 80.358296 189.52 
L 80.358296 23.2 
" clip-path="url(#p75278e9211)" style="fill: none; stroke-dasharray: 0.8,1.32; stroke-dashoffset: 0; stroke: #b0b0b0; stroke-width: 0.8"/>
     </g>
     <g id="line2d_16">
      <g>
       <use xlink:href="#m84fcb39ca8" x="80.358296" y="189.52" style="stroke: #000000; stroke-width: 0.6"/>
      </g>
     </g>
    </g>
    <g id="xtick_9">
     <g id="line2d_17">
      <path d="M 88.597438 189.52 
L 88.597438 23.2 
" clip-path="url(#p75278e9211)" style="fill: none; stroke-dasharray: 0.8,1.32; stroke-dashoffset: 0; stroke: #b0b0b0; stroke-width: 0.8"/>
     </g>
     <g id="line2d_18">
      <g>
       <use xlink:href="#m84fcb39ca8" x="88.597438" y="189.52" style="stroke: #000000; stroke-width: 0.6"/>
      </g>
     </g>
    </g>
    <g id="xtick_10">
     <g id="line2d_19">
      <path d="M 94.988213 189.52 
L 94.988213 23.2 
" clip-path="url(#p75278e9211)" style="fill: none; stroke-dasharray: 0.8,1.32; stroke-dashoffset: 0; stroke: #b0b0b0; stroke-width: 0.8"/>
     </g>
     <g id="line2d_20">
      <g>
       <use xlink:href="#m84fcb39ca8" x="94.988213" y="189.52" style="stroke: #000000; stroke-width: 0.6"/>
      </g>
     </g>
    </g>
    <g id="xtick_11">
     <g id="line2d_21">
      <path d="M 100.209856 189.52 
L 100.209856 23.2 
" clip-path="url(#p75278e9211)" style="fill: none; stroke-dasharray: 0.8,1.32; stroke-dashoffset: 0; stroke: #b0b0b0; stroke-width: 0.8"/>
     </g>
     <g id="line2d_22">
      <g>
       <use xlink:href="#m84fcb39ca8" x="100.209856" y="189.52" style="stroke: #000000; stroke-width: 0.6"/>
      </g>
     </g>
    </g>
    <g id="xtick_12">
     <g id="line2d_23">
      <path d="M 104.624693 189.52 
L 104.624693 23.2 
" clip-path="url(#p75278e9211)" style="fill: none; stroke-dasharray: 0.8,1.32; stroke-dashoffset: 0; stroke: #b0b0b0; stroke-width: 0.8"/>
     </g>
     <g id="line2d_24">
      <g>
       <use xlink:href="#m84fcb39ca8" x="104.624693" y="189.52" style="stroke: #000000; stroke-width: 0.6"/>
      </g>
     </g>
    </g>
    <g id="xtick_13">
     <g id="line2d_25">
      <path d="M 108.448998 189.52 
L 108.448998 23.2 
" clip-path="url(#p75278e9211)" style="fill: none; stroke-dasharray: 0.8,1.32; stroke-dashoffset: 0; stroke: #b0b0b0; stroke-width: 0.8"/>
     </g>
     <g id="line2d_26">
      <g>
       <use xlink:href="#m84fcb39ca8" x="108.448998" y="189.52" style="stroke: #000000; stroke-width: 0.6"/>
      </g>
     </g>
    </g>
    <g id="xtick_14">
     <g id="line2d_27">
      <path d="M 111.822274 189.52 
L 111.822274 23.2 
" clip-path="url(#p75278e9211)" style="fill: none; stroke-dasharray: 0.8,1.32; stroke-dashoffset: 0; stroke: #b0b0b0; stroke-width: 0.8"/>
     </g>
     <g id="line2d_28">
      <g>
       <use xlink:href="#m84fcb39ca8" x="111.822274" y="189.52" style="stroke: #000000; stroke-width: 0.6"/>
      </g>
     </g>
    </g>
    <g id="xtick_15">
     <g id="line2d_29">
      <path d="M 134.691333 189.52 
L 134.691333 23.2 
" clip-path="url(#p75278e9211)" style="fill: none; stroke-dasharray: 0.8,1.32; stroke-dashoffset: 0; stroke: #b0b0b0; stroke-width: 0.8"/>
     </g>
     <g id="line2d_30">
      <g>
       <use xlink:href="#m84fcb39ca8" x="134.691333" y="189.52" style="stroke: #000000; stroke-width: 0.6"/>
      </g>
     </g>
    </g>
    <g id="xtick_16">
     <g id="line2d_31">
      <path d="M 146.303751 189.52 
L 146.303751 23.2 
" clip-path="url(#p75278e9211)" style="fill: none; stroke-dasharray: 0.8,1.32; stroke-dashoffset: 0; stroke: #b0b0b0; stroke-width: 0.8"/>
     </g>
     <g id="line2d_32">
      <g>
       <use xlink:href="#m84fcb39ca8" x="146.303751" y="189.52" style="stroke: #000000; stroke-width: 0.6"/>
      </g>
     </g>
    </g>
    <g id="xtick_17">
     <g id="line2d_33">
      <path d="M 154.542893 189.52 
L 154.542893 23.2 
" clip-path="url(#p75278e9211)" style="fill: none; stroke-dasharray: 0.8,1.32; stroke-dashoffset: 0; stroke: #b0b0b0; stroke-width: 0.8"/>
     </g>
     <g id="line2d_34">
      <g>
       <use xlink:href="#m84fcb39ca8" x="154.542893" y="189.52" style="stroke: #000000; stroke-width: 0.6"/>
      </g>
     </g>
    </g>
    <g id="xtick_18">
     <g id="line2d_35">
      <path d="M 160.933667 189.52 
L 160.933667 23.2 
" clip-path="url(#p75278e9211)" style="fill: none; stroke-dasharray: 0.8,1.32; stroke-dashoffset: 0; stroke: #b0b0b0; stroke-width: 0.8"/>
     </g>
     <g id="line2d_36">
      <g>
       <use xlink:href="#m84fcb39ca8" x="160.933667" y="189.52" style="stroke: #000000; stroke-width: 0.6"/>
      </g>
     </g>
    </g>
    <g id="xtick_19">
     <g id="line2d_37">
      <path d="M 166.155311 189.52 
L 166.155311 23.2 
" clip-path="url(#p75278e9211)" style="fill: none; stroke-dasharray: 0.8,1.32; stroke-dashoffset: 0; stroke: #b0b0b0; stroke-width: 0.8"/>
     </g>
     <g id="line2d_38">
      <g>
       <use xlink:href="#m84fcb39ca8" x="166.155311" y="189.52" style="stroke: #000000; stroke-width: 0.6"/>
      </g>
     </g>
    </g>
    <g id="xtick_20">
     <g id="line2d_39">
      <path d="M 170.570147 189.52 
L 170.570147 23.2 
" clip-path="url(#p75278e9211)" style="fill: none; stroke-dasharray: 0.8,1.32; stroke-dashoffset: 0; stroke: #b0b0b0; stroke-width: 0.8"/>
     </g>
     <g id="line2d_40">
      <g>
       <use xlink:href="#m84fcb39ca8" x="170.570147" y="189.52" style="stroke: #000000; stroke-width: 0.6"/>
      </g>
     </g>
    </g>
    <g id="xtick_21">
     <g id="line2d_41">
      <path d="M 174.394452 189.52 
L 174.394452 23.2 
" clip-path="url(#p75278e9211)" style="fill: none; stroke-dasharray: 0.8,1.32; stroke-dashoffset: 0; stroke: #b0b0b0; stroke-width: 0.8"/>
     </g>
     <g id="line2d_42">
      <g>
       <use xlink:href="#m84fcb39ca8" x="174.394452" y="189.52" style="stroke: #000000; stroke-width: 0.6"/>
      </g>
     </g>
    </g>
    <g id="xtick_22">
     <g id="line2d_43">
      <path d="M 177.767729 189.52 
L 177.767729 23.2 
" clip-path="url(#p75278e9211)" style="fill: none; stroke-dasharray: 0.8,1.32; stroke-dashoffset: 0; stroke: #b0b0b0; stroke-width: 0.8"/>
     </g>
     <g id="line2d_44">
      <g>
       <use xlink:href="#m84fcb39ca8" x="177.767729" y="189.52" style="stroke: #000000; stroke-width: 0.6"/>
      </g>
     </g>
    </g>
    <g id="xtick_23">
     <g id="line2d_45">
      <path d="M 200.636787 189.52 
L 200.636787 23.2 
" clip-path="url(#p75278e9211)" style="fill: none; stroke-dasharray: 0.8,1.32; stroke-dashoffset: 0; stroke: #b0b0b0; stroke-width: 0.8"/>
     </g>
     <g id="line2d_46">
      <g>
       <use xlink:href="#m84fcb39ca8" x="200.636787" y="189.52" style="stroke: #000000; stroke-width: 0.6"/>
      </g>
     </g>
    </g>
    <g id="xtick_24">
     <g id="line2d_47">
      <path d="M 212.249205 189.52 
L 212.249205 23.2 
" clip-path="url(#p75278e9211)" style="fill: none; stroke-dasharray: 0.8,1.32; stroke-dashoffset: 0; stroke: #b0b0b0; stroke-width: 0.8"/>
     </g>
     <g id="line2d_48">
      <g>
       <use xlink:href="#m84fcb39ca8" x="212.249205" y="189.52" style="stroke: #000000; stroke-width: 0.6"/>
      </g>
     </g>
    </g>
    <g id="xtick_25">
     <g id="line2d_49">
      <path d="M 220.488347 189.52 
L 220.488347 23.2 
" clip-path="url(#p75278e9211)" style="fill: none; stroke-dasharray: 0.8,1.32; stroke-dashoffset: 0; stroke: #b0b0b0; stroke-width: 0.8"/>
     </g>
     <g id="line2d_50">
      <g>
       <use xlink:href="#m84fcb39ca8" x="220.488347" y="189.52" style="stroke: #000000; stroke-width: 0.6"/>
      </g>
     </g>
    </g>
    <g id="xtick_26">
     <g id="line2d_51">
      <path d="M 226.879122 189.52 
L 226.879122 23.2 
" clip-path="url(#p75278e9211)" style="fill: none; stroke-dasharray: 0.8,1.32; stroke-dashoffset: 0; stroke: #b0b0b0; stroke-width: 0.8"/>
     </g>
     <g id="line2d_52">
      <g>
       <use xlink:href="#m84fcb39ca8" x="226.879122" y="189.52" style="stroke: #000000; stroke-width: 0.6"/>
      </g>
     </g>
    </g>
    <g id="xtick_27">
     <g id="line2d_53">
      <path d="M 232.100765 189.52 
L 232.100765 23.2 
" clip-path="url(#p75278e9211)" style="fill: none; stroke-dasharray: 0.8,1.32; stroke-dashoffset: 0; stroke: #b0b0b0; stroke-width: 0.8"/>
     </g>
     <g id="line2d_54">
      <g>
       <use xlink:href="#m84fcb39ca8" x="232.100765" y="189.52" style="stroke: #000000; stroke-width: 0.6"/>
      </g>
     </g>
    </g>
    <g id="xtick_28">
     <g id="line2d_55">
      <path d="M 236.515602 189.52 
L 236.515602 23.2 
" clip-path="url(#p75278e9211)" style="fill: none; stroke-dasharray: 0.8,1.32; stroke-dashoffset: 0; stroke: #b0b0b0; stroke-width: 0.8"/>
     </g>
     <g id="line2d_56">
      <g>
       <use xlink:href="#m84fcb39ca8" x="236.515602" y="189.52" style="stroke: #000000; stroke-width: 0.6"/>
      </g>
     </g>
    </g>
    <g id="xtick_29">
     <g id="line2d_57">
      <path d="M 240.339907 189.52 
L 240.339907 23.2 
" clip-path="url(#p75278e9211)" style="fill: none; stroke-dasharray: 0.8,1.32; stroke-dashoffset: 0; stroke: #b0b0b0; stroke-width: 0.8"/>
     </g>
     <g id="line2d_58">
      <g>
       <use xlink:href="#m84fcb39ca8" x="240.339907" y="189.52" style="stroke: #000000; stroke-width: 0.6"/>
      </g>
     </g>
    </g>
    <g id="xtick_30">
     <g id="line2d_59">
      <path d="M 243.713183 189.52 
L 243.713183 23.2 
" clip-path="url(#p75278e9211)" style="fill: none; stroke-dasharray: 0.8,1.32; stroke-dashoffset: 0; stroke: #b0b0b0; stroke-width: 0.8"/>
     </g>
     <g id="line2d_60">
      <g>
       <use xlink:href="#m84fcb39ca8" x="243.713183" y="189.52" style="stroke: #000000; stroke-width: 0.6"/>
      </g>
     </g>
    </g>
    <g id="text_5">
     <!-- Period, $T_{i}$ [s] -->
     <g transform="translate(122.8125 214.34125) scale(0.08 -0.08)">
      <defs>
       <path id="DejaVuSans-50" d="M 1259 4147 
L 1259 2394 
L 2053 2394 
Q 2494 2394 2734 2622 
Q 2975 2850 2975 3272 
Q 2975 3691 2734 3919 
Q 2494 4147 2053 4147 
L 1259 4147 
z
M 628 4666 
L 2053 4666 
Q 2838 4666 3239 4311 
Q 3641 3956 3641 3272 
Q 3641 2581 3239 2228 
Q 2838 1875 2053 1875 
L 1259 1875 
L 1259 0 
L 628 0 
L 628 4666 
z
" transform="scale(0.015625)"/>
       <path id="DejaVuSans-65" d="M 3597 1894 
L 3597 1613 
L 953 1613 
Q 991 1019 1311 708 
Q 1631 397 2203 397 
Q 2534 397 2845 478 
Q 3156 559 3463 722 
L 3463 178 
Q 3153 47 2828 -22 
Q 2503 -91 2169 -91 
Q 1331 -91 842 396 
Q 353 884 353 1716 
Q 353 2575 817 3079 
Q 1281 3584 2069 3584 
Q 2775 3584 3186 3129 
Q 3597 2675 3597 1894 
z
M 3022 2063 
Q 3016 2534 2758 2815 
Q 2500 3097 2075 3097 
Q 1594 3097 1305 2825 
Q 1016 2553 972 2059 
L 3022 2063 
z
" transform="scale(0.015625)"/>
       <path id="DejaVuSans-72" d="M 2631 2963 
Q 2534 3019 2420 3045 
Q 2306 3072 2169 3072 
Q 1681 3072 1420 2755 
Q 1159 2438 1159 1844 
L 1159 0 
L 581 0 
L 581 3500 
L 1159 3500 
L 1159 2956 
Q 1341 3275 1631 3429 
Q 1922 3584 2338 3584 
Q 2397 3584 2469 3576 
Q 2541 3569 2628 3553 
L 2631 2963 
z
" transform="scale(0.015625)"/>
       <path id="DejaVuSans-69" d="M 603 3500 
L 1178 3500 
L 1178 0 
L 603 0 
L 603 3500 
z
M 603 4863 
L 1178 4863 
L 1178 4134 
L 603 4134 
L 603 4863 
z
" transform="scale(0.015625)"/>
       <path id="DejaVuSans-6f" d="M 1959 3097 
Q 1497 3097 1228 2736 
Q 959 2375 959 1747 
Q 959 1119 1226 758 
Q 1494 397 1959 397 
Q 2419 397 2687 759 
Q 2956 1122 2956 1747 
Q 2956 2369 2687 2733 
Q 2419 3097 1959 3097 
z
M 1959 3584 
Q 2709 3584 3137 3096 
Q 3566 2609 3566 1747 
Q 3566 888 3137 398 
Q 2709 -91 1959 -91 
Q 1206 -91 779 398 
Q 353 888 353 1747 
Q 353 2609 779 3096 
Q 1206 3584 1959 3584 
z
" transform="scale(0.015625)"/>
       <path id="DejaVuSans-64" d="M 2906 2969 
L 2906 4863 
L 3481 4863 
L 3481 0 
L 2906 0 
L 2906 525 
Q 2725 213 2448 61 
Q 2172 -91 1784 -91 
Q 1150 -91 751 415 
Q 353 922 353 1747 
Q 353 2572 751 3078 
Q 1150 3584 1784 3584 
Q 2172 3584 2448 3432 
Q 2725 3281 2906 2969 
z
M 947 1747 
Q 947 1113 1208 752 
Q 1469 391 1925 391 
Q 2381 391 2643 752 
Q 2906 1113 2906 1747 
Q 2906 2381 2643 2742 
Q 2381 3103 1925 3103 
Q 1469 3103 1208 2742 
Q 947 2381 947 1747 
z
" transform="scale(0.015625)"/>
       <path id="DejaVuSans-2c" d="M 750 794 
L 1409 794 
L 1409 256 
L 897 -744 
L 494 -744 
L 750 256 
L 750 794 
z
" transform="scale(0.015625)"/>
       <path id="DejaVuSans-20" transform="scale(0.015625)"/>
       <path id="DejaVuSans-Oblique-54" d="M 378 4666 
L 4325 4666 
L 4225 4134 
L 2559 4134 
L 1759 0 
L 1125 0 
L 1925 4134 
L 275 4134 
L 378 4666 
z
" transform="scale(0.015625)"/>
       <path id="DejaVuSans-Oblique-69" d="M 1172 4863 
L 1747 4863 
L 1606 4134 
L 1031 4134 
L 1172 4863 
z
M 909 3500 
L 1484 3500 
L 800 0 
L 225 0 
L 909 3500 
z
" transform="scale(0.015625)"/>
       <path id="DejaVuSans-5b" d="M 550 4863 
L 1875 4863 
L 1875 4416 
L 1125 4416 
L 1125 -397 
L 1875 -397 
L 1875 -844 
L 550 -844 
L 550 4863 
z
" transform="scale(0.015625)"/>
       <path id="DejaVuSans-73" d="M 2834 3397 
L 2834 2853 
Q 2591 2978 2328 3040 
Q 2066 3103 1784 3103 
Q 1356 3103 1142 2972 
Q 928 2841 928 2578 
Q 928 2378 1081 2264 
Q 1234 2150 1697 2047 
L 1894 2003 
Q 2506 1872 2764 1633 
Q 3022 1394 3022 966 
Q 3022 478 2636 193 
Q 2250 -91 1575 -91 
Q 1294 -91 989 -36 
Q 684 19 347 128 
L 347 722 
Q 666 556 975 473 
Q 1284 391 1588 391 
Q 1994 391 2212 530 
Q 2431 669 2431 922 
Q 2431 1156 2273 1281 
Q 2116 1406 1581 1522 
L 1381 1569 
Q 847 1681 609 1914 
Q 372 2147 372 2553 
Q 372 3047 722 3315 
Q 1072 3584 1716 3584 
Q 2034 3584 2315 3537 
Q 2597 3491 2834 3397 
z
" transform="scale(0.015625)"/>
       <path id="DejaVuSans-5d" d="M 1947 4863 
L 1947 -844 
L 622 -844 
L 622 -397 
L 1369 -397 
L 1369 4416 
L 622 4416 
L 622 4863 
L 1947 4863 
z
" transform="scale(0.015625)"/>
      </defs>
      <use xlink:href="#DejaVuSans-50" transform="translate(0 0.015625)"/>
      <use xlink:href="#DejaVuSans-65" transform="translate(60.302734 0.015625)"/>
      <use xlink:href="#DejaVuSans-72" transform="translate(121.826172 0.015625)"/>
      <use xlink:href="#DejaVuSans-69" transform="translate(162.939453 0.015625)"/>
      <use xlink:href="#DejaVuSans-6f" transform="translate(190.722656 0.015625)"/>
      <use xlink:href="#DejaVuSans-64" transform="translate(251.904297 0.015625)"/>
      <use xlink:href="#DejaVuSans-2c" transform="translate(315.380859 0.015625)"/>
      <use xlink:href="#DejaVuSans-20" transform="translate(347.167969 0.015625)"/>
      <use xlink:href="#DejaVuSans-Oblique-54" transform="translate(378.955078 0.015625)"/>
      <use xlink:href="#DejaVuSans-Oblique-69" transform="translate(440.039062 -16.390625) scale(0.7)"/>
      <use xlink:href="#DejaVuSans-20" transform="translate(462.22168 0.015625)"/>
      <use xlink:href="#DejaVuSans-5b" transform="translate(494.008789 0.015625)"/>
      <use xlink:href="#DejaVuSans-73" transform="translate(533.022461 0.015625)"/>
      <use xlink:href="#DejaVuSans-5d" transform="translate(585.12207 0.015625)"/>
     </g>
    </g>
   </g>
   <g id="matplotlib.axis_2">
    <g id="ytick_1">
     <g id="line2d_61">
      <path d="M 39.0025 189.52 
L 256.6225 189.52 
" clip-path="url(#p75278e9211)" style="fill: none; stroke: #b0b0b0; stroke-width: 0.8; stroke-linecap: square"/>
     </g>
     <g id="line2d_62">
      <defs>
       <path id="m8250e0c422" d="M 0 0 
L -3.5 0 
" style="stroke: #000000; stroke-width: 0.8"/>
      </defs>
      <g>
       <use xlink:href="#m8250e0c422" x="39.0025" y="189.52" style="stroke: #000000; stroke-width: 0.8"/>
      </g>
     </g>
     <g id="text_6">
      <!-- 0 -->
      <g transform="translate(26.9125 192.559375) scale(0.08 -0.08)">
       <use xlink:href="#DejaVuSans-30"/>
      </g>
     </g>
    </g>
    <g id="ytick_2">
     <g id="line2d_63">
      <path d="M 39.0025 156.256 
L 256.6225 156.256 
" clip-path="url(#p75278e9211)" style="fill: none; stroke: #b0b0b0; stroke-width: 0.8; stroke-linecap: square"/>
     </g>
     <g id="line2d_64">
      <g>
       <use xlink:href="#m8250e0c422" x="39.0025" y="156.256" style="stroke: #000000; stroke-width: 0.8"/>
      </g>
     </g>
     <g id="text_7">
      <!-- 0.2 -->
      <g transform="translate(19.28 159.295375) scale(0.08 -0.08)">
       <defs>
        <path id="DejaVuSans-32" d="M 1228 531 
L 3431 531 
L 3431 0 
L 469 0 
L 469 531 
Q 828 903 1448 1529 
Q 2069 2156 2228 2338 
Q 2531 2678 2651 2914 
Q 2772 3150 2772 3378 
Q 2772 3750 2511 3984 
Q 2250 4219 1831 4219 
Q 1534 4219 1204 4116 
Q 875 4013 500 3803 
L 500 4441 
Q 881 4594 1212 4672 
Q 1544 4750 1819 4750 
Q 2544 4750 2975 4387 
Q 3406 4025 3406 3419 
Q 3406 3131 3298 2873 
Q 3191 2616 2906 2266 
Q 2828 2175 2409 1742 
Q 1991 1309 1228 531 
z
" transform="scale(0.015625)"/>
       </defs>
       <use xlink:href="#DejaVuSans-30"/>
       <use xlink:href="#DejaVuSans-2e" x="63.623047"/>
       <use xlink:href="#DejaVuSans-32" x="95.410156"/>
      </g>
     </g>
    </g>
    <g id="ytick_3">
     <g id="line2d_65">
      <path d="M 39.0025 122.992 
L 256.6225 122.992 
" clip-path="url(#p75278e9211)" style="fill: none; stroke: #b0b0b0; stroke-width: 0.8; stroke-linecap: square"/>
     </g>
     <g id="line2d_66">
      <g>
       <use xlink:href="#m8250e0c422" x="39.0025" y="122.992" style="stroke: #000000; stroke-width: 0.8"/>
      </g>
     </g>
     <g id="text_8">
      <!-- 0.4 -->
      <g transform="translate(19.28 126.031375) scale(0.08 -0.08)">
       <defs>
        <path id="DejaVuSans-34" d="M 2419 4116 
L 825 1625 
L 2419 1625 
L 2419 4116 
z
M 2253 4666 
L 3047 4666 
L 3047 1625 
L 3713 1625 
L 3713 1100 
L 3047 1100 
L 3047 0 
L 2419 0 
L 2419 1100 
L 313 1100 
L 313 1709 
L 2253 4666 
z
" transform="scale(0.015625)"/>
       </defs>
       <use xlink:href="#DejaVuSans-30"/>
       <use xlink:href="#DejaVuSans-2e" x="63.623047"/>
       <use xlink:href="#DejaVuSans-34" x="95.410156"/>
      </g>
     </g>
    </g>
    <g id="ytick_4">
     <g id="line2d_67">
      <path d="M 39.0025 89.728 
L 256.6225 89.728 
" clip-path="url(#p75278e9211)" style="fill: none; stroke: #b0b0b0; stroke-width: 0.8; stroke-linecap: square"/>
     </g>
     <g id="line2d_68">
      <g>
       <use xlink:href="#m8250e0c422" x="39.0025" y="89.728" style="stroke: #000000; stroke-width: 0.8"/>
      </g>
     </g>
     <g id="text_9">
      <!-- 0.6 -->
      <g transform="translate(19.28 92.767375) scale(0.08 -0.08)">
       <defs>
        <path id="DejaVuSans-36" d="M 2113 2584 
Q 1688 2584 1439 2293 
Q 1191 2003 1191 1497 
Q 1191 994 1439 701 
Q 1688 409 2113 409 
Q 2538 409 2786 701 
Q 3034 994 3034 1497 
Q 3034 2003 2786 2293 
Q 2538 2584 2113 2584 
z
M 3366 4563 
L 3366 3988 
Q 3128 4100 2886 4159 
Q 2644 4219 2406 4219 
Q 1781 4219 1451 3797 
Q 1122 3375 1075 2522 
Q 1259 2794 1537 2939 
Q 1816 3084 2150 3084 
Q 2853 3084 3261 2657 
Q 3669 2231 3669 1497 
Q 3669 778 3244 343 
Q 2819 -91 2113 -91 
Q 1303 -91 875 529 
Q 447 1150 447 2328 
Q 447 3434 972 4092 
Q 1497 4750 2381 4750 
Q 2619 4750 2861 4703 
Q 3103 4656 3366 4563 
z
" transform="scale(0.015625)"/>
       </defs>
       <use xlink:href="#DejaVuSans-30"/>
       <use xlink:href="#DejaVuSans-2e" x="63.623047"/>
       <use xlink:href="#DejaVuSans-36" x="95.410156"/>
      </g>
     </g>
    </g>
    <g id="ytick_5">
     <g id="line2d_69">
      <path d="M 39.0025 56.464 
L 256.6225 56.464 
" clip-path="url(#p75278e9211)" style="fill: none; stroke: #b0b0b0; stroke-width: 0.8; stroke-linecap: square"/>
     </g>
     <g id="line2d_70">
      <g>
       <use xlink:href="#m8250e0c422" x="39.0025" y="56.464" style="stroke: #000000; stroke-width: 0.8"/>
      </g>
     </g>
     <g id="text_10">
      <!-- 0.8 -->
      <g transform="translate(19.28 59.503375) scale(0.08 -0.08)">
       <defs>
        <path id="DejaVuSans-38" d="M 2034 2216 
Q 1584 2216 1326 1975 
Q 1069 1734 1069 1313 
Q 1069 891 1326 650 
Q 1584 409 2034 409 
Q 2484 409 2743 651 
Q 3003 894 3003 1313 
Q 3003 1734 2745 1975 
Q 2488 2216 2034 2216 
z
M 1403 2484 
Q 997 2584 770 2862 
Q 544 3141 544 3541 
Q 544 4100 942 4425 
Q 1341 4750 2034 4750 
Q 2731 4750 3128 4425 
Q 3525 4100 3525 3541 
Q 3525 3141 3298 2862 
Q 3072 2584 2669 2484 
Q 3125 2378 3379 2068 
Q 3634 1759 3634 1313 
Q 3634 634 3220 271 
Q 2806 -91 2034 -91 
Q 1263 -91 848 271 
Q 434 634 434 1313 
Q 434 1759 690 2068 
Q 947 2378 1403 2484 
z
M 1172 3481 
Q 1172 3119 1398 2916 
Q 1625 2713 2034 2713 
Q 2441 2713 2670 2916 
Q 2900 3119 2900 3481 
Q 2900 3844 2670 4047 
Q 2441 4250 2034 4250 
Q 1625 4250 1398 4047 
Q 1172 3844 1172 3481 
z
" transform="scale(0.015625)"/>
       </defs>
       <use xlink:href="#DejaVuSans-30"/>
       <use xlink:href="#DejaVuSans-2e" x="63.623047"/>
       <use xlink:href="#DejaVuSans-38" x="95.410156"/>
      </g>
     </g>
    </g>
    <g id="ytick_6">
     <g id="line2d_71">
      <path d="M 39.0025 23.2 
L 256.6225 23.2 
" clip-path="url(#p75278e9211)" style="fill: none; stroke: #b0b0b0; stroke-width: 0.8; stroke-linecap: square"/>
     </g>
     <g id="line2d_72">
      <g>
       <use xlink:href="#m8250e0c422" x="39.0025" y="23.2" style="stroke: #000000; stroke-width: 0.8"/>
      </g>
     </g>
     <g id="text_11">
      <!-- 1 -->
      <g transform="translate(26.9125 26.239375) scale(0.08 -0.08)">
       <use xlink:href="#DejaVuSans-31"/>
      </g>
     </g>
    </g>
    <g id="text_12">
     <!-- Correlation coefficient, $Ï_{Sa,Sa}$ -->
     <g transform="translate(13.28 164.4) rotate(-90) scale(0.08 -0.08)">
      <defs>
       <path id="DejaVuSans-43" d="M 4122 4306 
L 4122 3641 
Q 3803 3938 3442 4084 
Q 3081 4231 2675 4231 
Q 1875 4231 1450 3742 
Q 1025 3253 1025 2328 
Q 1025 1406 1450 917 
Q 1875 428 2675 428 
Q 3081 428 3442 575 
Q 3803 722 4122 1019 
L 4122 359 
Q 3791 134 3420 21 
Q 3050 -91 2638 -91 
Q 1578 -91 968 557 
Q 359 1206 359 2328 
Q 359 3453 968 4101 
Q 1578 4750 2638 4750 
Q 3056 4750 3426 4639 
Q 3797 4528 4122 4306 
z
" transform="scale(0.015625)"/>
       <path id="DejaVuSans-6c" d="M 603 4863 
L 1178 4863 
L 1178 0 
L 603 0 
L 603 4863 
z
" transform="scale(0.015625)"/>
       <path id="DejaVuSans-61" d="M 2194 1759 
Q 1497 1759 1228 1600 
Q 959 1441 959 1056 
Q 959 750 1161 570 
Q 1363 391 1709 391 
Q 2188 391 2477 730 
Q 2766 1069 2766 1631 
L 2766 1759 
L 2194 1759 
z
M 3341 1997 
L 3341 0 
L 2766 0 
L 2766 531 
Q 2569 213 2275 61 
Q 1981 -91 1556 -91 
Q 1019 -91 701 211 
Q 384 513 384 1019 
Q 384 1609 779 1909 
Q 1175 2209 1959 2209 
L 2766 2209 
L 2766 2266 
Q 2766 2663 2505 2880 
Q 2244 3097 1772 3097 
Q 1472 3097 1187 3025 
Q 903 2953 641 2809 
L 641 3341 
Q 956 3463 1253 3523 
Q 1550 3584 1831 3584 
Q 2591 3584 2966 3190 
Q 3341 2797 3341 1997 
z
" transform="scale(0.015625)"/>
       <path id="DejaVuSans-74" d="M 1172 4494 
L 1172 3500 
L 2356 3500 
L 2356 3053 
L 1172 3053 
L 1172 1153 
Q 1172 725 1289 603 
Q 1406 481 1766 481 
L 2356 481 
L 2356 0 
L 1766 0 
Q 1100 0 847 248 
Q 594 497 594 1153 
L 594 3053 
L 172 3053 
L 172 3500 
L 594 3500 
L 594 4494 
L 1172 4494 
z
" transform="scale(0.015625)"/>
       <path id="DejaVuSans-6e" d="M 3513 2113 
L 3513 0 
L 2938 0 
L 2938 2094 
Q 2938 2591 2744 2837 
Q 2550 3084 2163 3084 
Q 1697 3084 1428 2787 
Q 1159 2491 1159 1978 
L 1159 0 
L 581 0 
L 581 3500 
L 1159 3500 
L 1159 2956 
Q 1366 3272 1645 3428 
Q 1925 3584 2291 3584 
Q 2894 3584 3203 3211 
Q 3513 2838 3513 2113 
z
" transform="scale(0.015625)"/>
       <path id="DejaVuSans-63" d="M 3122 3366 
L 3122 2828 
Q 2878 2963 2633 3030 
Q 2388 3097 2138 3097 
Q 1578 3097 1268 2742 
Q 959 2388 959 1747 
Q 959 1106 1268 751 
Q 1578 397 2138 397 
Q 2388 397 2633 464 
Q 2878 531 3122 666 
L 3122 134 
Q 2881 22 2623 -34 
Q 2366 -91 2075 -91 
Q 1284 -91 818 406 
Q 353 903 353 1747 
Q 353 2603 823 3093 
Q 1294 3584 2113 3584 
Q 2378 3584 2631 3529 
Q 2884 3475 3122 3366 
z
" transform="scale(0.015625)"/>
       <path id="DejaVuSans-66" d="M 2375 4863 
L 2375 4384 
L 1825 4384 
Q 1516 4384 1395 4259 
Q 1275 4134 1275 3809 
L 1275 3500 
L 2222 3500 
L 2222 3053 
L 1275 3053 
L 1275 0 
L 697 0 
L 697 3053 
L 147 3053 
L 147 3500 
L 697 3500 
L 697 3744 
Q 697 4328 969 4595 
Q 1241 4863 1831 4863 
L 2375 4863 
z
" transform="scale(0.015625)"/>
       <path id="DejaVuSans-Oblique-3c1" d="M 1203 2875 
Q 1453 3194 1981 3475 
Q 2188 3584 2756 3584 
Q 3394 3584 3694 3078 
Q 3994 2572 3834 1747 
Q 3672 922 3175 415 
Q 2678 -91 2041 -91 
Q 1656 -91 1409 63 
Q 1163 213 1044 525 
L 681 -1331 
L 103 -1331 
L 697 1716 
Q 838 2438 1203 2875 
z
M 3238 1747 
Q 3359 2381 3169 2744 
Q 2978 3103 2522 3103 
Q 2066 3103 1734 2744 
Q 1403 2381 1281 1747 
Q 1156 1113 1347 750 
Q 1538 391 1994 391 
Q 2450 391 2781 750 
Q 3113 1113 3238 1747 
z
" transform="scale(0.015625)"/>
       <path id="DejaVuSans-Oblique-53" d="M 3859 4513 
L 3738 3897 
Q 3422 4066 3111 4152 
Q 2800 4238 2509 4238 
Q 1944 4238 1609 3991 
Q 1275 3744 1275 3334 
Q 1275 3109 1398 2989 
Q 1522 2869 2034 2731 
L 2413 2638 
Q 3053 2472 3303 2217 
Q 3553 1963 3553 1503 
Q 3553 797 2998 353 
Q 2444 -91 1538 -91 
Q 1166 -91 791 -17 
Q 416 56 38 206 
L 166 856 
Q 513 641 861 531 
Q 1209 422 1556 422 
Q 2147 422 2503 684 
Q 2859 947 2859 1369 
Q 2859 1650 2717 1795 
Q 2575 1941 2106 2059 
L 1728 2156 
Q 1081 2325 845 2545 
Q 609 2766 609 3163 
Q 609 3859 1145 4304 
Q 1681 4750 2541 4750 
Q 2875 4750 3203 4690 
Q 3531 4631 3859 4513 
z
" transform="scale(0.015625)"/>
       <path id="DejaVuSans-Oblique-61" d="M 3438 1997 
L 3047 0 
L 2472 0 
L 2578 531 
Q 2325 219 2001 64 
Q 1678 -91 1281 -91 
Q 834 -91 548 182 
Q 263 456 263 884 
Q 263 1497 752 1853 
Q 1241 2209 2100 2209 
L 2900 2209 
L 2931 2363 
Q 2938 2388 2941 2417 
Q 2944 2447 2944 2509 
Q 2944 2788 2717 2942 
Q 2491 3097 2081 3097 
Q 1800 3097 1504 3025 
Q 1209 2953 897 2809 
L 997 3341 
Q 1322 3463 1633 3523 
Q 1944 3584 2234 3584 
Q 2853 3584 3176 3315 
Q 3500 3047 3500 2534 
Q 3500 2431 3484 2292 
Q 3469 2153 3438 1997 
z
M 2816 1759 
L 2241 1759 
Q 1534 1759 1195 1570 
Q 856 1381 856 984 
Q 856 709 1029 553 
Q 1203 397 1509 397 
Q 1978 397 2328 733 
Q 2678 1069 2791 1631 
L 2816 1759 
z
" transform="scale(0.015625)"/>
      </defs>
      <use xlink:href="#DejaVuSans-43" transform="translate(0 0.015625)"/>
      <use xlink:href="#DejaVuSans-6f" transform="translate(69.824219 0.015625)"/>
      <use xlink:href="#DejaVuSans-72" transform="translate(131.005859 0.015625)"/>
      <use xlink:href="#DejaVuSans-72" transform="translate(172.119141 0.015625)"/>
      <use xlink:href="#DejaVuSans-65" transform="translate(213.232422 0.015625)"/>
      <use xlink:href="#DejaVuSans-6c" transform="translate(274.755859 0.015625)"/>
      <use xlink:href="#DejaVuSans-61" transform="translate(302.539062 0.015625)"/>
      <use xlink:href="#DejaVuSans-74" transform="translate(363.818359 0.015625)"/>
      <use xlink:href="#DejaVuSans-69" transform="translate(403.027344 0.015625)"/>
      <use xlink:href="#DejaVuSans-6f" transform="translate(430.810547 0.015625)"/>
      <use xlink:href="#DejaVuSans-6e" transform="translate(491.992188 0.015625)"/>
      <use xlink:href="#DejaVuSans-20" transform="translate(555.371094 0.015625)"/>
      <use xlink:href="#DejaVuSans-63" transform="translate(587.158203 0.015625)"/>
      <use xlink:href="#DejaVuSans-6f" transform="translate(642.138672 0.015625)"/>
      <use xlink:href="#DejaVuSans-65" transform="translate(703.320312 0.015625)"/>
      <use xlink:href="#DejaVuSans-66" transform="translate(764.84375 0.015625)"/>
      <use xlink:href="#DejaVuSans-66" transform="translate(800.048828 0.015625)"/>
      <use xlink:href="#DejaVuSans-69" transform="translate(835.253906 0.015625)"/>
      <use xlink:href="#DejaVuSans-63" transform="translate(863.037109 0.015625)"/>
      <use xlink:href="#DejaVuSans-69" transform="translate(918.017578 0.015625)"/>
      <use xlink:href="#DejaVuSans-65" transform="translate(945.800781 0.015625)"/>
      <use xlink:href="#DejaVuSans-6e" transform="translate(1007.324219 0.015625)"/>
      <use xlink:href="#DejaVuSans-74" transform="translate(1070.703125 0.015625)"/>
      <use xlink:href="#DejaVuSans-2c" transform="translate(1109.912109 0.015625)"/>
      <use xlink:href="#DejaVuSans-20" transform="translate(1141.699219 0.015625)"/>
      <use xlink:href="#DejaVuSans-Oblique-3c1" transform="translate(1173.486328 0.015625)"/>
      <use xlink:href="#DejaVuSans-Oblique-53" transform="translate(1236.962891 -16.390625) scale(0.7)"/>
      <use xlink:href="#DejaVuSans-Oblique-61" transform="translate(1281.396484 -16.390625) scale(0.7)"/>
      <use xlink:href="#DejaVuSans-2c" transform="translate(1324.291992 -16.390625) scale(0.7)"/>
      <use xlink:href="#DejaVuSans-Oblique-53" transform="translate(1360.180664 -16.390625) scale(0.7)"/>
      <use xlink:href="#DejaVuSans-Oblique-61" transform="translate(1404.614258 -16.390625) scale(0.7)"/>
     </g>
    </g>
   </g>
   <g id="line2d_73">
    <path d="M 48.894318 35.009403 
L 68.745878 35.187635 
L 71.475538 35.188037 
L 75.136653 35.527682 
L 79.387364 35.958672 
L 80.358296 36.068429 
L 82.206663 36.296012 
L 84.773133 36.594745 
L 85.579939 36.659304 
L 88.597438 36.847609 
L 89.994776 36.792081 
L 91.327097 36.702821 
L 91.970714 36.651447 
L 92.600185 36.579539 
L 93.819081 36.457272 
L 94.988213 36.205218 
L 97.717872 35.548527 
L 100.209856 34.563153 
L 102.502259 33.515975 
L 103.370197 32.98868 
L 104.624693 32.216933 
L 106.600631 30.646709 
L 108.448998 29.012481 
L 110.185272 27.264486 
L 111.822274 25.540393 
L 113.370746 24.021287 
L 114.839773 23.2 
L 117.569432 25.428113 
L 120.061416 28.447348 
L 122.353819 31.379979 
L 123.007225 32.274796 
L 124.476252 34.32108 
L 126.452191 37.281534 
L 128.300558 40.17863 
L 130.036832 42.881138 
L 131.673834 45.423259 
L 133.222306 48.076959 
L 134.691333 50.724422 
L 137.420992 55.974751 
L 139.912976 61.105698 
L 141.082107 63.710655 
L 142.205379 66.31149 
L 144.327812 71.188601 
L 145.332819 73.532849 
L 146.303751 75.737333 
L 148.152118 79.48178 
L 149.888391 83.190146 
L 150.718587 84.92501 
L 151.525394 86.677077 
L 153.073866 90.085469 
L 154.542893 93.164742 
L 155.94023 95.960054 
L 157.272552 98.933316 
L 157.916169 100.275226 
L 158.545639 101.712571 
L 159.764536 104.450548 
L 160.933667 107.189592 
L 163.663327 113.400995 
L 166.155311 118.822808 
L 168.447714 123.580694 
L 169.187125 125.108346 
L 170.570147 128.107043 
L 172.546085 132.025334 
L 174.394452 135.251081 
L 176.130726 138.225013 
L 177.767729 141.226894 
L 179.3162 143.738741 
L 180.785227 145.640866 
L 183.514887 148.787194 
L 186.006871 151.381605 
L 188.299273 154.061465 
L 190.421707 156.169363 
L 192.397645 158.022664 
L 194.246012 159.559916 
L 195.982286 160.529804 
L 197.619289 160.974278 
L 199.16776 160.815973 
L 200.636787 161.172954 
L 203.366447 161.82796 
L 205.85843 162.415451 
L 207.027562 162.091688 
L 208.150833 161.070302 
L 210.273267 159.924873 
L 212.249205 159.303633 
L 214.097572 158.500831 
L 215.833846 158.011657 
L 216.664042 158.732245 
L 217.470849 158.67758 
L 219.01932 158.951808 
L 220.488347 158.60655 
L 221.885685 158.84232 
L 223.218007 157.577442 
L 224.491094 158.02323 
L 225.70999 158.287021 
L 226.879122 158.995516 
L 229.608781 160.209967 
L 232.100765 161.367328 
L 234.393168 163.434358 
L 236.515602 164.431467 
L 238.49154 165.924935 
L 240.339907 166.5628 
L 242.076181 165.59987 
L 243.713183 166.589549 
L 245.261655 166.891628 
L 246.730682 168.011372 
" clip-path="url(#p75278e9211)" style="fill: none; stroke: #ff0000; stroke-width: 1.8; stroke-linecap: square"/>
   </g>
   <g id="line2d_74">
    <path d="M 48.894318 41.82285 
L 63.276929 41.409478 
L 68.745878 41.189171 
L 75.861713 40.10185 
L 85.579939 38.355078 
L 90.244323 37.05373 
L 92.600185 36.25113 
L 94.988213 35.680653 
L 97.717872 34.674417 
L 101.031281 33.156536 
L 103.370197 32.234502 
L 104.626933 31.616045 
L 108.448998 29.051138 
L 110.185272 27.481077 
L 113.616065 23.98055 
L 114.839773 23.2 
L 117.569432 25.779623 
L 120.80737 30.124904 
L 126.452191 38.178779 
L 131.673834 46.552991 
L 133.392154 49.376896 
L 135.189981 52.006516 
L 137.420992 55.105166 
L 139.912976 60.276054 
L 142.205379 66.088938 
L 145.332819 72.164608 
L 146.303751 74.063982 
L 148.152118 78.38165 
L 150.718587 83.725511 
L 153.168244 90.121636 
L 154.96607 94.243518 
L 158.561723 103.151584 
L 160.933667 108.533802 
L 166.155311 123.549172 
L 168.447714 128.490539 
L 169.34868 129.784943 
L 171.146507 133.383374 
L 174.742159 139.990196 
L 176.539986 142.728107 
L 178.337812 146.187161 
L 180.135638 149.795222 
L 180.785227 151.033552 
L 183.731291 155.988886 
L 188.299273 160.568678 
L 190.421707 161.629799 
L 192.397645 164.718362 
L 194.246012 165.85599 
L 196.316075 168.16461 
L 197.619289 169.929167 
L 199.16776 170.514614 
L 200.636787 171.411078 
L 203.50738 170.913653 
L 205.85843 169.31711 
L 207.103033 167.64249 
L 208.150833 167.198193 
L 210.698685 166.960377 
L 212.496512 166.583511 
L 214.294338 166.414565 
L 215.833846 166.090502 
L 216.664042 166.56285 
L 217.470849 166.48967 
L 219.01932 168.239356 
L 220.488347 168.781559 
L 221.885685 168.858066 
L 223.283469 169.174973 
L 224.491094 169.129168 
L 225.70999 169.526673 
L 226.879122 169.741226 
L 226.879122 169.741226 
L 229.608781 170.719187 
L 232.100765 172.10297 
L 234.393168 174.694069 
L 236.515602 173.835359 
L 238.49154 175.100222 
L 240.339907 173.260889 
L 242.076181 171.988209 
L 243.713183 173.871284 
L 245.261655 175.18621 
L 246.730682 174.475025 
L 246.730682 174.475025 
" clip-path="url(#p75278e9211)" style="fill: none; stroke: #ffd700; stroke-width: 1.8; stroke-linecap: square"/>
   </g>
   <g id="line2d_75">
    <path d="M 48.894318 84.680369 
L 68.745878 86.398528 
L 71.475538 87.147832 
L 75.136653 89.346841 
L 79.387364 92.474886 
L 80.358296 93.253199 
L 82.206663 94.956393 
L 84.773133 97.636669 
L 85.579939 98.504782 
L 88.597438 101.56058 
L 89.994776 103.02581 
L 91.327097 104.381327 
L 91.970714 105.072291 
L 92.600185 105.722598 
L 93.819081 106.97275 
L 94.988213 107.934393 
L 97.717872 110.446112 
L 100.209856 111.999963 
L 102.502259 112.697232 
L 103.370197 112.906611 
L 104.624693 113.02798 
L 106.600631 112.602986 
L 108.448998 111.853213 
L 110.185272 110.811127 
L 111.822274 109.799329 
L 113.370746 108.582248 
L 114.839773 107.189592 
L 117.569432 104.744473 
L 120.061416 102.329316 
L 122.353819 99.220454 
L 123.007225 98.235076 
L 124.476252 95.858172 
L 126.452191 92.691524 
L 128.300558 89.651676 
L 130.036832 86.969703 
L 131.673834 83.988088 
L 133.222306 80.954151 
L 134.691333 77.732703 
L 137.420992 70.931225 
L 139.912976 64.638925 
L 141.082107 61.758664 
L 142.205379 59.21445 
L 144.327812 54.573931 
L 145.332819 52.339939 
L 146.303751 50.327044 
L 148.152118 46.027773 
L 149.888391 42.596672 
L 150.718587 40.943928 
L 151.525394 39.344805 
L 153.073866 36.398487 
L 154.542893 33.537446 
L 155.94023 30.819069 
L 157.272552 28.287817 
L 157.916169 27.117707 
L 158.545639 26.016925 
L 159.764536 24.1084 
L 160.933667 23.2 
L 163.663327 26.580215 
L 166.155311 30.838226 
L 168.447714 34.78169 
L 169.187125 36.09875 
L 170.570147 38.570505 
L 172.546085 42.13074 
L 174.394452 45.396721 
L 176.130726 48.533677 
L 177.767729 51.384432 
L 179.3162 54.08141 
L 180.785227 56.411045 
L 183.514887 61.025414 
L 186.006871 64.866437 
L 188.299273 68.699927 
L 190.421707 71.982276 
L 192.397645 75.221086 
L 194.246012 78.287372 
L 195.982286 80.935661 
L 197.619289 83.582 
L 199.16776 85.934337 
L 200.636787 88.204715 
L 203.366447 91.874168 
L 205.85843 95.392649 
L 207.027562 96.901266 
L 208.150833 98.178025 
L 210.273267 100.770358 
L 212.249205 103.330126 
L 214.097572 105.120229 
L 215.833846 106.970917 
L 216.664042 108.969949 
L 217.470849 109.80191 
L 219.01932 111.67145 
L 220.488347 115.003702 
L 221.885685 116.135224 
L 223.218007 118.056396 
L 224.491094 118.85999 
L 225.70999 121.393013 
L 226.879122 124.019835 
L 229.608781 127.504911 
L 232.100765 129.475069 
L 234.393168 131.824721 
L 236.515602 135.267346 
L 238.49154 138.835893 
L 240.339907 141.964071 
L 242.076181 142.069103 
L 243.713183 145.991988 
L 245.261655 146.646653 
L 246.730682 148.864328 
" clip-path="url(#p75278e9211)" style="fill: none; stroke: #ff0000; stroke-width: 1.8; stroke-linecap: square"/>
   </g>
   <g id="line2d_76">
    <path d="M 48.894318 70.027396 
L 59.681276 70.674769 
L 68.745878 71.442779 
L 71.475538 72.317622 
L 75.136653 74.070635 
L 77.659539 75.573506 
L 79.457365 76.738516 
L 81.255192 78.361935 
L 84.850844 82.086322 
L 85.579939 83.026967 
L 88.597438 86.098898 
L 92.600185 91.778726 
L 93.839976 93.583109 
L 95.637802 95.789386 
L 99.233455 100.061299 
L 100.209856 101.298882 
L 103.370197 104.560418 
L 104.626933 105.558201 
L 106.600631 106.950436 
L 108.448998 107.890144 
L 110.185272 108.616962 
L 111.822274 108.966234 
L 113.616065 108.906685 
L 114.839773 108.533802 
L 120.061416 104.921332 
L 123.007225 100.096389 
L 124.476252 98.082254 
L 126.452191 95.642339 
L 128.300558 92.829868 
L 130.036832 89.73299 
L 131.673834 86.464802 
L 135.189981 78.978502 
L 137.420992 74.192049 
L 142.381286 61.240554 
L 145.332819 54.780842 
L 146.303751 52.251114 
L 148.152118 48.306004 
L 149.888391 45.443637 
L 151.525394 42.245303 
L 154.542893 35.858615 
L 157.272552 29.460285 
L 158.561723 26.504976 
L 159.764536 24.232847 
L 160.933667 23.2 
L 163.663327 27.492719 
L 168.447714 37.807886 
L 171.146507 42.945763 
L 172.944333 46.692264 
L 176.539986 53.583983 
L 180.785227 61.609941 
L 183.731291 66.482213 
L 187.326943 71.340365 
L 189.12477 73.573771 
L 190.922596 75.883771 
L 192.720422 78.513564 
L 194.518249 80.918075 
L 196.316075 84.312116 
L 198.113901 88.046387 
L 200.636787 92.861469 
L 203.50738 97.158416 
L 205.85843 100.826534 
L 207.103033 101.710996 
L 210.698685 105.756664 
L 214.294338 108.643764 
L 215.833846 110.26852 
L 216.664042 112.234422 
L 217.470849 113.75625 
L 219.01932 117.649802 
L 220.488347 120.137949 
L 221.885685 121.807802 
L 223.283469 122.617453 
L 224.491094 124.242726 
L 225.70999 126.436487 
L 226.879122 128.081392 
L 226.879122 128.081392 
L 229.608781 130.692616 
L 232.100765 132.024839 
L 234.393168 134.527955 
L 236.515602 134.67099 
L 238.49154 135.610698 
L 240.339907 132.447292 
L 242.076181 133.581594 
L 243.713183 134.996978 
L 245.261655 136.026498 
L 246.730682 134.850616 
L 246.730682 134.850616 
" clip-path="url(#p75278e9211)" style="fill: none; stroke: #ffd700; stroke-width: 1.8; stroke-linecap: square"/>
   </g>
   <g id="line2d_77">
    <path d="M 48.894318 121.752962 
L 68.745878 123.442483 
L 71.475538 124.156555 
L 75.136653 126.379718 
L 79.387364 129.430918 
L 80.358296 130.198765 
L 82.206663 131.874158 
L 84.773133 134.543019 
L 85.579939 135.377351 
L 88.597438 138.306561 
L 89.994776 139.720559 
L 91.327097 141.049616 
L 91.970714 141.772954 
L 92.600185 142.46923 
L 93.819081 143.828362 
L 94.988213 144.76136 
L 97.717872 147.585967 
L 100.209856 149.501975 
L 102.502259 150.350232 
L 103.370197 150.661765 
L 104.624693 150.964666 
L 106.600631 150.858601 
L 108.448998 150.189732 
L 110.185272 149.091663 
L 111.822274 148.052194 
L 113.370746 146.915205 
L 114.839773 145.640866 
L 117.569432 143.199181 
L 120.061416 140.845615 
L 122.353819 137.863737 
L 123.007225 136.948629 
L 124.476252 134.820406 
L 126.452191 131.987016 
L 128.300558 129.201899 
L 130.036832 126.738794 
L 131.673834 123.825075 
L 133.222306 120.698334 
L 134.691333 117.561916 
L 137.420992 110.723838 
L 139.912976 104.370231 
L 141.082107 101.325884 
L 142.205379 98.657139 
L 144.327812 93.348551 
L 145.332819 90.714634 
L 146.303751 88.402069 
L 148.152118 83.590585 
L 149.888391 79.678104 
L 150.718587 77.917511 
L 151.525394 76.143032 
L 153.073866 73.030414 
L 154.542893 69.884452 
L 155.94023 66.789471 
L 157.272552 63.776925 
L 157.916169 62.440111 
L 158.545639 61.162205 
L 159.764536 58.6322 
L 160.933667 56.411045 
L 163.663327 51.152901 
L 166.155311 46.111814 
L 168.447714 42.061204 
L 169.187125 40.846731 
L 170.570147 38.609004 
L 172.546085 35.309586 
L 174.394452 32.236566 
L 176.130726 29.475665 
L 177.767729 26.827165 
L 179.3162 24.411812 
L 180.785227 23.2 
L 183.514887 26.19171 
L 186.006871 29.865602 
L 188.299273 33.203449 
L 190.421707 36.005248 
L 192.397645 38.701429 
L 194.246012 41.35023 
L 195.982286 43.842104 
L 197.619289 46.538101 
L 199.16776 49.172722 
L 200.636787 51.690798 
L 203.366447 56.360634 
L 205.85843 60.380562 
L 207.027562 62.196165 
L 208.150833 64.003491 
L 210.273267 67.557507 
L 212.249205 71.35462 
L 214.097572 73.768976 
L 215.833846 76.483496 
L 216.664042 78.374433 
L 217.470849 79.473517 
L 219.01932 81.648519 
L 220.488347 85.413526 
L 221.885685 87.119195 
L 223.218007 90.035645 
L 224.491094 91.071252 
L 225.70999 94.16451 
L 226.879122 96.847915 
L 229.608781 101.464536 
L 232.100765 104.799579 
L 234.393168 107.392952 
L 236.515602 111.910906 
L 238.49154 115.902998 
L 240.339907 119.045666 
L 242.076181 119.541529 
L 243.713183 122.926838 
L 245.261655 124.065212 
L 246.730682 126.70554 
" clip-path="url(#p75278e9211)" style="fill: none; stroke: #ff0000; stroke-width: 1.8; stroke-linecap: square"/>
   </g>
   <g id="line2d_78">
    <path d="M 48.894318 109.347107 
L 59.681276 110.007413 
L 68.745878 110.790765 
L 72.26606 112.138364 
L 75.861713 114.008683 
L 79.457365 116.400717 
L 81.255192 118.059303 
L 84.850844 121.845281 
L 85.579939 122.755826 
L 88.597438 125.989086 
L 91.327097 129.573282 
L 92.600185 131.826918 
L 93.839976 133.681172 
L 95.637802 135.936516 
L 101.031281 143.353355 
L 102.829107 145.285846 
L 106.600631 148.73501 
L 108.448998 149.693013 
L 110.185272 150.446442 
L 114.839773 151.033552 
L 117.569432 149.721287 
L 120.061416 149.097587 
L 123.007225 144.633558 
L 126.452191 140.432315 
L 128.300558 138.250197 
L 130.036832 135.600719 
L 133.392154 128.045386 
L 135.189981 124.590086 
L 137.420992 119.62402 
L 142.381286 106.128263 
L 144.327812 101.95751 
L 145.976938 97.122082 
L 146.303751 96.049823 
L 148.152118 91.093487 
L 151.525394 83.314701 
L 153.168244 78.660606 
L 155.94023 72.84652 
L 157.916169 68.004945 
L 160.933667 61.609941 
L 163.955201 55.524498 
L 166.155311 50.404962 
L 169.187125 45.165882 
L 170.570147 43.045302 
L 172.944333 37.931141 
L 174.742159 33.650087 
L 176.539986 29.826517 
L 178.337812 26.357235 
L 179.3162 24.583782 
L 180.785227 23.2 
L 183.514887 26.757585 
L 189.12477 37.007914 
L 190.922596 39.770465 
L 192.720422 42.372085 
L 196.316075 48.34042 
L 205.85843 66.217005 
L 207.103033 67.67464 
L 208.150833 69.144237 
L 210.698685 74.170873 
L 212.496512 77.085558 
L 215.833846 81.841106 
L 217.88999 86.537516 
L 220.488347 92.445669 
L 223.283469 97.210989 
L 224.491094 99.976638 
L 226.879122 106.581206 
L 226.879122 106.581206 
L 229.608781 111.502614 
L 232.100765 113.545024 
L 234.393168 117.12423 
L 236.515602 119.62402 
L 238.49154 121.732958 
L 240.339907 119.424436 
L 242.076181 122.025681 
L 243.713183 122.765805 
L 245.261655 123.996573 
L 246.730682 122.759152 
L 246.730682 122.759152 
" clip-path="url(#p75278e9211)" style="fill: none; stroke: #ffd700; stroke-width: 1.8; stroke-linecap: square"/>
   </g>
   <g id="line2d_79">
    <path d="M 48.894318 138.371976 
L 68.745878 139.300936 
L 71.475538 139.545444 
L 75.136653 140.778877 
L 79.387364 142.555438 
L 80.358296 143.055409 
L 82.206663 144.055586 
L 84.773133 145.785977 
L 85.579939 146.346474 
L 88.597438 148.295171 
L 89.994776 149.299487 
L 91.327097 150.304872 
L 91.970714 150.836624 
L 92.600185 151.349594 
L 93.819081 152.324847 
L 94.988213 153.032128 
L 97.717872 155.664258 
L 100.209856 157.561217 
L 102.502259 158.868428 
L 103.370197 159.215308 
L 104.624693 159.731602 
L 106.600631 160.325061 
L 108.448998 160.548532 
L 110.185272 160.468069 
L 111.822274 160.286957 
L 113.370746 159.993058 
L 114.839773 159.303633 
L 117.569432 158.209938 
L 120.061416 156.848599 
L 122.353819 154.993616 
L 123.007225 154.385082 
L 124.476252 153.215908 
L 126.452191 151.571401 
L 128.300558 150.084251 
L 130.036832 148.761464 
L 131.673834 146.849057 
L 133.222306 144.552752 
L 134.691333 142.796565 
L 137.420992 138.489324 
L 139.912976 135.061429 
L 141.082107 133.248508 
L 142.205379 131.602383 
L 144.327812 128.447543 
L 145.332819 126.944923 
L 146.303751 125.496889 
L 148.152118 122.200228 
L 149.888391 119.323592 
L 150.718587 118.212342 
L 151.525394 117.101042 
L 153.073866 115.377844 
L 154.542893 113.256614 
L 155.94023 110.789272 
L 157.272552 108.579027 
L 157.916169 107.636639 
L 158.545639 106.664404 
L 159.764536 104.855005 
L 160.933667 103.330126 
L 163.663327 99.458004 
L 166.155311 95.42841 
L 168.447714 91.71308 
L 169.187125 90.490766 
L 170.570147 88.248054 
L 172.546085 85.252181 
L 174.394452 81.866006 
L 176.130726 79.072468 
L 177.767729 76.36423 
L 179.3162 73.676356 
L 180.785227 71.35462 
L 183.514887 67.123231 
L 186.006871 62.850279 
L 188.299273 58.756988 
L 190.421707 55.461839 
L 192.397645 52.360723 
L 194.246012 49.491038 
L 195.982286 46.984197 
L 197.619289 44.459849 
L 199.16776 42.164402 
L 200.636787 39.904837 
L 203.366447 36.034643 
L 205.85843 32.281244 
L 207.027562 30.440411 
L 208.150833 28.627716 
L 210.273267 25.104117 
L 212.249205 23.2 
L 214.097572 24.945857 
L 215.833846 27.450961 
L 216.664042 29.043892 
L 217.470849 29.987461 
L 219.01932 32.777058 
L 220.488347 36.684747 
L 221.885685 38.273038 
L 223.218007 40.671852 
L 224.491094 41.758196 
L 225.70999 44.096082 
L 226.879122 47.039424 
L 229.608781 52.429716 
L 232.100765 56.870097 
L 234.393168 62.231978 
L 236.515602 67.859822 
L 238.49154 71.842107 
L 240.339907 76.243649 
L 242.076181 77.605424 
L 243.713183 83.078156 
L 245.261655 84.435646 
L 246.730682 87.626305 
" clip-path="url(#p75278e9211)" style="fill: none; stroke: #ff0000; stroke-width: 1.8; stroke-linecap: square"/>
   </g>
   <g id="line2d_80">
    <path d="M 48.894318 138.574521 
L 63.276929 139.09639 
L 68.745878 139.37452 
L 72.26606 140.096193 
L 75.861713 141.082219 
L 79.457365 142.440753 
L 81.255192 143.481114 
L 85.579939 146.351644 
L 90.244323 150.041874 
L 91.327097 151.066816 
L 92.600185 152.598623 
L 97.717872 157.852672 
L 100.209856 160.167846 
L 102.829107 161.812663 
L 104.626933 162.665498 
L 106.600631 163.748716 
L 108.448998 164.201106 
L 111.822274 165.668049 
L 114.839773 166.602767 
L 117.569432 166.44809 
L 120.061416 167.342891 
L 122.605196 165.366767 
L 123.007225 165.180731 
L 124.476252 164.32252 
L 128.300558 161.736244 
L 130.036832 160.2061 
L 133.222306 155.078454 
L 134.691333 153.378664 
L 137.420992 149.262244 
L 139.912976 144.81651 
L 141.082107 141.696347 
L 142.381286 138.953548 
L 145.332819 134.087207 
L 148.152118 128.673491 
L 151.370417 122.871869 
L 151.525394 122.587842 
L 153.168244 119.84569 
L 154.96607 116.975477 
L 157.272552 112.362489 
L 158.561723 110.424599 
L 159.764536 108.244406 
L 163.663327 104.019878 
L 166.155311 100.058135 
L 169.34868 96.782296 
L 171.146507 94.307676 
L 172.546085 92.219474 
L 174.742159 87.583271 
L 176.539986 84.370064 
L 179.3162 78.7093 
L 180.785227 76.751714 
L 183.514887 74.418244 
L 186.006871 70.722614 
L 189.12477 65.807209 
L 192.720422 60.350546 
L 196.316075 53.286379 
L 198.113901 49.978638 
L 203.50738 39.358917 
L 205.85843 34.824105 
L 208.900859 28.13168 
L 210.273267 25.270684 
L 212.249205 23.2 
L 214.097572 24.918086 
L 216.092164 28.547945 
L 219.01932 34.912254 
L 221.885685 41.748006 
L 223.283469 44.675354 
L 225.70999 50.839058 
L 226.879122 54.488118 
L 226.879122 54.488118 
L 229.608781 61.270648 
L 232.100765 66.592888 
L 234.393168 73.734669 
L 236.515602 79.306389 
L 238.49154 83.446094 
L 240.339907 83.426135 
L 242.076181 86.343388 
L 245.261655 90.298478 
L 246.730682 91.34962 
L 246.730682 91.34962 
" clip-path="url(#p75278e9211)" style="fill: none; stroke: #ffd700; stroke-width: 1.8; stroke-linecap: square"/>
   </g>
   <g id="patch_3">
    <path d="M 39.0025 189.52 
L 39.0025 23.2 
" style="fill: none; stroke: #000000; stroke-width: 0.8; stroke-linejoin: miter; stroke-linecap: square"/>
   </g>
   <g id="patch_4">
    <path d="M 256.6225 189.52 
L 256.6225 23.2 
" style="fill: none; stroke: #000000; stroke-width: 0.8; stroke-linejoin: miter; stroke-linecap: square"/>
   </g>
   <g id="patch_5">
    <path d="M 39.0025 189.52 
L 256.6225 189.52 
" style="fill: none; stroke: #000000; stroke-width: 0.8; stroke-linejoin: miter; stroke-linecap: square"/>
   </g>
   <g id="patch_6">
    <path d="M 39.0025 23.2 
L 256.6225 23.2 
" style="fill: none; stroke: #000000; stroke-width: 0.8; stroke-linejoin: miter; stroke-linecap: square"/>
   </g>
   <g id="text_13">
    <!-- $T_{j}$=0.1s -->
    <g transform="translate(89.839773 13.2) scale(0.08 -0.08)">
     <defs>
      <path id="DejaVuSans-Oblique-6a" d="M 928 3500 
L 1503 3500 
L 813 -63 
L 809 -78 
Q 694 -675 544 -897 
Q 403 -1106 132 -1218 
Q -138 -1331 -506 -1331 
L -722 -1331 
L -628 -844 
L -481 -844 
Q -144 -844 -1 -703 
Q 141 -563 238 -63 
L 928 3500 
z
M 1197 4863 
L 1772 4863 
L 1631 4134 
L 1056 4134 
L 1197 4863 
z
" transform="scale(0.015625)"/>
      <path id="DejaVuSans-3d" d="M 678 2906 
L 4684 2906 
L 4684 2381 
L 678 2381 
L 678 2906 
z
M 678 1631 
L 4684 1631 
L 4684 1100 
L 678 1100 
L 678 1631 
z
" transform="scale(0.015625)"/>
     </defs>
     <use xlink:href="#DejaVuSans-Oblique-54" transform="translate(0 0.78125)"/>
     <use xlink:href="#DejaVuSans-Oblique-6a" transform="translate(61.083984 -15.625) scale(0.7)"/>
     <use xlink:href="#DejaVuSans-3d" transform="translate(83.266602 0.78125)"/>
     <use xlink:href="#DejaVuSans-30" transform="translate(167.055664 0.78125)"/>
     <use xlink:href="#DejaVuSans-2e" transform="translate(230.678711 0.78125)"/>
     <use xlink:href="#DejaVuSans-31" transform="translate(262.46582 0.78125)"/>
     <use xlink:href="#DejaVuSans-73" transform="translate(326.088867 0.78125)"/>
    </g>
   </g>
   <g id="text_14">
    <!-- $T_{j}$=0.5s -->
    <g transform="translate(125.933667 13.2) scale(0.08 -0.08)">
     <defs>
      <path id="DejaVuSans-35" d="M 691 4666 
L 3169 4666 
L 3169 4134 
L 1269 4134 
L 1269 2991 
Q 1406 3038 1543 3061 
Q 1681 3084 1819 3084 
Q 2600 3084 3056 2656 
Q 3513 2228 3513 1497 
Q 3513 744 3044 326 
Q 2575 -91 1722 -91 
Q 1428 -91 1123 -41 
Q 819 9 494 109 
L 494 744 
Q 775 591 1075 516 
Q 1375 441 1709 441 
Q 2250 441 2565 725 
Q 2881 1009 2881 1497 
Q 2881 1984 2565 2268 
Q 2250 2553 1709 2553 
Q 1456 2553 1204 2497 
Q 953 2441 691 2322 
L 691 4666 
z
" transform="scale(0.015625)"/>
     </defs>
     <use xlink:href="#DejaVuSans-Oblique-54" transform="translate(0 0.78125)"/>
     <use xlink:href="#DejaVuSans-Oblique-6a" transform="translate(61.083984 -15.625) scale(0.7)"/>
     <use xlink:href="#DejaVuSans-3d" transform="translate(83.266602 0.78125)"/>
     <use xlink:href="#DejaVuSans-30" transform="translate(167.055664 0.78125)"/>
     <use xlink:href="#DejaVuSans-2e" transform="translate(230.678711 0.78125)"/>
     <use xlink:href="#DejaVuSans-35" transform="translate(262.46582 0.78125)"/>
     <use xlink:href="#DejaVuSans-73" transform="translate(326.088867 0.78125)"/>
    </g>
   </g>
   <g id="text_15">
    <!-- $T_{j}$=1s -->
    <g transform="translate(165.785227 13.2) scale(0.08 -0.08)">
     <use xlink:href="#DejaVuSans-Oblique-54" transform="translate(0 0.09375)"/>
     <use xlink:href="#DejaVuSans-Oblique-6a" transform="translate(61.083984 -16.3125) scale(0.7)"/>
     <use xlink:href="#DejaVuSans-3d" transform="translate(83.266602 0.09375)"/>
     <use xlink:href="#DejaVuSans-31" transform="translate(167.055664 0.09375)"/>
     <use xlink:href="#DejaVuSans-73" transform="translate(230.678711 0.09375)"/>
    </g>
   </g>
   <g id="text_16">
    <!-- $T_{j}$=3s -->
    <g transform="translate(197.249205 13.2) scale(0.08 -0.08)">
     <defs>
      <path id="DejaVuSans-33" d="M 2597 2516 
Q 3050 2419 3304 2112 
Q 3559 1806 3559 1356 
Q 3559 666 3084 287 
Q 2609 -91 1734 -91 
Q 1441 -91 1130 -33 
Q 819 25 488 141 
L 488 750 
Q 750 597 1062 519 
Q 1375 441 1716 441 
Q 2309 441 2620 675 
Q 2931 909 2931 1356 
Q 2931 1769 2642 2001 
Q 2353 2234 1838 2234 
L 1294 2234 
L 1294 2753 
L 1863 2753 
Q 2328 2753 2575 2939 
Q 2822 3125 2822 3475 
Q 2822 3834 2567 4026 
Q 2313 4219 1838 4219 
Q 1578 4219 1281 4162 
Q 984 4106 628 3988 
L 628 4550 
Q 988 4650 1302 4700 
Q 1616 4750 1894 4750 
Q 2613 4750 3031 4423 
Q 3450 4097 3450 3541 
Q 3450 3153 3228 2886 
Q 3006 2619 2597 2516 
z
" transform="scale(0.015625)"/>
     </defs>
     <use xlink:href="#DejaVuSans-Oblique-54" transform="translate(0 0.78125)"/>
     <use xlink:href="#DejaVuSans-Oblique-6a" transform="translate(61.083984 -15.625) scale(0.7)"/>
     <use xlink:href="#DejaVuSans-3d" transform="translate(83.266602 0.78125)"/>
     <use xlink:href="#DejaVuSans-33" transform="translate(167.055664 0.78125)"/>
     <use xlink:href="#DejaVuSans-73" transform="translate(230.678711 0.78125)"/>
    </g>
   </g>
   <g id="legend_1">
    <g id="patch_7">
     <path d="M 262.2225 119.3025 
L 418.23375 119.3025 
Q 419.83375 119.3025 419.83375 117.7025 
L 419.83375 95.0175 
Q 419.83375 93.4175 418.23375 93.4175 
L 262.2225 93.4175 
Q 260.6225 93.4175 260.6225 95.0175 
L 260.6225 117.7025 
Q 260.6225 119.3025 262.2225 119.3025 
z
" style="fill: #ffffff; opacity: 0.8; stroke: #cccccc; stroke-linejoin: miter"/>
    </g>
    <g id="line2d_81">
     <path d="M 263.8225 99.89625 
L 271.8225 99.89625 
L 279.8225 99.89625 
" style="fill: none; stroke: #ff0000; stroke-width: 1.8; stroke-linecap: square"/>
    </g>
    <g id="text_17">
     <!-- Same records and GMM as BB17 -->
     <g transform="translate(286.2225 102.69625) scale(0.08 -0.08)">
      <defs>
       <path id="DejaVuSans-53" d="M 3425 4513 
L 3425 3897 
Q 3066 4069 2747 4153 
Q 2428 4238 2131 4238 
Q 1616 4238 1336 4038 
Q 1056 3838 1056 3469 
Q 1056 3159 1242 3001 
Q 1428 2844 1947 2747 
L 2328 2669 
Q 3034 2534 3370 2195 
Q 3706 1856 3706 1288 
Q 3706 609 3251 259 
Q 2797 -91 1919 -91 
Q 1588 -91 1214 -16 
Q 841 59 441 206 
L 441 856 
Q 825 641 1194 531 
Q 1563 422 1919 422 
Q 2459 422 2753 634 
Q 3047 847 3047 1241 
Q 3047 1584 2836 1778 
Q 2625 1972 2144 2069 
L 1759 2144 
Q 1053 2284 737 2584 
Q 422 2884 422 3419 
Q 422 4038 858 4394 
Q 1294 4750 2059 4750 
Q 2388 4750 2728 4690 
Q 3069 4631 3425 4513 
z
" transform="scale(0.015625)"/>
       <path id="DejaVuSans-6d" d="M 3328 2828 
Q 3544 3216 3844 3400 
Q 4144 3584 4550 3584 
Q 5097 3584 5394 3201 
Q 5691 2819 5691 2113 
L 5691 0 
L 5113 0 
L 5113 2094 
Q 5113 2597 4934 2840 
Q 4756 3084 4391 3084 
Q 3944 3084 3684 2787 
Q 3425 2491 3425 1978 
L 3425 0 
L 2847 0 
L 2847 2094 
Q 2847 2600 2669 2842 
Q 2491 3084 2119 3084 
Q 1678 3084 1418 2786 
Q 1159 2488 1159 1978 
L 1159 0 
L 581 0 
L 581 3500 
L 1159 3500 
L 1159 2956 
Q 1356 3278 1631 3431 
Q 1906 3584 2284 3584 
Q 2666 3584 2933 3390 
Q 3200 3197 3328 2828 
z
" transform="scale(0.015625)"/>
       <path id="DejaVuSans-47" d="M 3809 666 
L 3809 1919 
L 2778 1919 
L 2778 2438 
L 4434 2438 
L 4434 434 
Q 4069 175 3628 42 
Q 3188 -91 2688 -91 
Q 1594 -91 976 548 
Q 359 1188 359 2328 
Q 359 3472 976 4111 
Q 1594 4750 2688 4750 
Q 3144 4750 3555 4637 
Q 3966 4525 4313 4306 
L 4313 3634 
Q 3963 3931 3569 4081 
Q 3175 4231 2741 4231 
Q 1884 4231 1454 3753 
Q 1025 3275 1025 2328 
Q 1025 1384 1454 906 
Q 1884 428 2741 428 
Q 3075 428 3337 486 
Q 3600 544 3809 666 
z
" transform="scale(0.015625)"/>
       <path id="DejaVuSans-4d" d="M 628 4666 
L 1569 4666 
L 2759 1491 
L 3956 4666 
L 4897 4666 
L 4897 0 
L 4281 0 
L 4281 4097 
L 3078 897 
L 2444 897 
L 1241 4097 
L 1241 0 
L 628 0 
L 628 4666 
z
" transform="scale(0.015625)"/>
       <path id="DejaVuSans-42" d="M 1259 2228 
L 1259 519 
L 2272 519 
Q 2781 519 3026 730 
Q 3272 941 3272 1375 
Q 3272 1813 3026 2020 
Q 2781 2228 2272 2228 
L 1259 2228 
z
M 1259 4147 
L 1259 2741 
L 2194 2741 
Q 2656 2741 2882 2914 
Q 3109 3088 3109 3444 
Q 3109 3797 2882 3972 
Q 2656 4147 2194 4147 
L 1259 4147 
z
M 628 4666 
L 2241 4666 
Q 2963 4666 3353 4366 
Q 3744 4066 3744 3513 
Q 3744 3084 3544 2831 
Q 3344 2578 2956 2516 
Q 3422 2416 3680 2098 
Q 3938 1781 3938 1306 
Q 3938 681 3513 340 
Q 3088 0 2303 0 
L 628 0 
L 628 4666 
z
" transform="scale(0.015625)"/>
       <path id="DejaVuSans-37" d="M 525 4666 
L 3525 4666 
L 3525 4397 
L 1831 0 
L 1172 0 
L 2766 4134 
L 525 4134 
L 525 4666 
z
" transform="scale(0.015625)"/>
      </defs>
      <use xlink:href="#DejaVuSans-53"/>
      <use xlink:href="#DejaVuSans-61" x="63.476562"/>
      <use xlink:href="#DejaVuSans-6d" x="124.755859"/>
      <use xlink:href="#DejaVuSans-65" x="222.167969"/>
      <use xlink:href="#DejaVuSans-20" x="283.691406"/>
      <use xlink:href="#DejaVuSans-72" x="315.478516"/>
      <use xlink:href="#DejaVuSans-65" x="354.341797"/>
      <use xlink:href="#DejaVuSans-63" x="415.865234"/>
      <use xlink:href="#DejaVuSans-6f" x="470.845703"/>
      <use xlink:href="#DejaVuSans-72" x="532.027344"/>
      <use xlink:href="#DejaVuSans-64" x="571.390625"/>
      <use xlink:href="#DejaVuSans-73" x="634.867188"/>
      <use xlink:href="#DejaVuSans-20" x="686.966797"/>
      <use xlink:href="#DejaVuSans-61" x="718.753906"/>
      <use xlink:href="#DejaVuSans-6e" x="780.033203"/>
      <use xlink:href="#DejaVuSans-64" x="843.412109"/>
      <use xlink:href="#DejaVuSans-20" x="906.888672"/>
      <use xlink:href="#DejaVuSans-47" x="938.675781"/>
      <use xlink:href="#DejaVuSans-4d" x="1016.166016"/>
      <use xlink:href="#DejaVuSans-4d" x="1102.445312"/>
      <use xlink:href="#DejaVuSans-20" x="1188.724609"/>
      <use xlink:href="#DejaVuSans-61" x="1220.511719"/>
      <use xlink:href="#DejaVuSans-73" x="1281.791016"/>
      <use xlink:href="#DejaVuSans-20" x="1333.890625"/>
      <use xlink:href="#DejaVuSans-42" x="1365.677734"/>
      <use xlink:href="#DejaVuSans-42" x="1434.28125"/>
      <use xlink:href="#DejaVuSans-31" x="1502.884766"/>
      <use xlink:href="#DejaVuSans-37" x="1566.507812"/>
     </g>
    </g>
    <g id="line2d_82">
     <path d="M 263.8225 111.63875 
L 271.8225 111.63875 
L 279.8225 111.63875 
" style="fill: none; stroke: #ffd700; stroke-width: 1.8; stroke-linecap: square"/>
    </g>
    <g id="text_18">
     <!-- Baker and Bradley, 2017 -->
     <g transform="translate(286.2225 114.43875) scale(0.08 -0.08)">
      <defs>
       <path id="DejaVuSans-6b" d="M 581 4863 
L 1159 4863 
L 1159 1991 
L 2875 3500 
L 3609 3500 
L 1753 1863 
L 3688 0 
L 2938 0 
L 1159 1709 
L 1159 0 
L 581 0 
L 581 4863 
z
" transform="scale(0.015625)"/>
       <path id="DejaVuSans-79" d="M 2059 -325 
Q 1816 -950 1584 -1140 
Q 1353 -1331 966 -1331 
L 506 -1331 
L 506 -850 
L 844 -850 
Q 1081 -850 1212 -737 
Q 1344 -625 1503 -206 
L 1606 56 
L 191 3500 
L 800 3500 
L 1894 763 
L 2988 3500 
L 3597 3500 
L 2059 -325 
z
" transform="scale(0.015625)"/>
      </defs>
      <use xlink:href="#DejaVuSans-42"/>
      <use xlink:href="#DejaVuSans-61" x="68.603516"/>
      <use xlink:href="#DejaVuSans-6b" x="129.882812"/>
      <use xlink:href="#DejaVuSans-65" x="184.167969"/>
      <use xlink:href="#DejaVuSans-72" x="245.691406"/>
      <use xlink:href="#DejaVuSans-20" x="286.804688"/>
      <use xlink:href="#DejaVuSans-61" x="318.591797"/>
      <use xlink:href="#DejaVuSans-6e" x="379.871094"/>
      <use xlink:href="#DejaVuSans-64" x="443.25"/>
      <use xlink:href="#DejaVuSans-20" x="506.726562"/>
      <use xlink:href="#DejaVuSans-42" x="538.513672"/>
      <use xlink:href="#DejaVuSans-72" x="607.117188"/>
      <use xlink:href="#DejaVuSans-61" x="648.230469"/>
      <use xlink:href="#DejaVuSans-64" x="709.509766"/>
      <use xlink:href="#DejaVuSans-6c" x="772.986328"/>
      <use xlink:href="#DejaVuSans-65" x="800.769531"/>
      <use xlink:href="#DejaVuSans-79" x="862.292969"/>
      <use xlink:href="#DejaVuSans-2c" x="921.472656"/>
      <use xlink:href="#DejaVuSans-20" x="953.259766"/>
      <use xlink:href="#DejaVuSans-32" x="985.046875"/>
      <use xlink:href="#DejaVuSans-30" x="1048.669922"/>
      <use xlink:href="#DejaVuSans-31" x="1112.292969"/>
      <use xlink:href="#DejaVuSans-37" x="1175.916016"/>
     </g>
    </g>
   </g>
  </g>
 </g>
 <defs>
  <clipPath id="p75278e9211">
   <rect x="39.0025" y="23.2" width="217.62" height="166.32"/>
  </clipPath>
 </defs>
</svg>
