<?xml version="1.0" encoding="utf-8" standalone="no"?>
<!DOCTYPE svg PUBLIC "-//W3C//DTD SVG 1.1//EN"
  "http://www.w3.org/Graphics/SVG/1.1/DTD/svg11.dtd">
<svg xmlns:xlink="http://www.w3.org/1999/xlink" width="337.69875pt" height="223.205pt" viewBox="0 0 337.69875 223.205" xmlns="http://www.w3.org/2000/svg" version="1.1">
 <metadata>
  <rdf:RDF xmlns:dc="http://purl.org/dc/elements/1.1/" xmlns:cc="http://creativecommons.org/ns#" xmlns:rdf="http://www.w3.org/1999/02/22-rdf-syntax-ns#">
   <cc:Work>
    <dc:type rdf:resource="http://purl.org/dc/dcmitype/StillImage"/>
    <dc:date>2024-04-23T16:36:15.475244</dc:date>
    <dc:format>image/svg+xml</dc:format>
    <dc:creator>
     <cc:Agent>
      <dc:title>Matplotlib v3.8.0, https://matplotlib.org/</dc:title>
     </cc:Agent>
    </dc:creator>
   </cc:Work>
  </rdf:RDF>
 </metadata>
 <defs>
  <style type="text/css">*{stroke-linejoin: round; stroke-linecap: butt}</style>
 </defs>
 <g id="figure_1">
  <g id="patch_1">
   <path d="M 0 223.205 
L 337.69875 223.205 
L 337.69875 0 
L 0 0 
z
" style="fill: #ffffff"/>
  </g>
  <g id="axes_1">
   <g id="patch_2">
    <path d="M 39.0025 189.52 
L 256.6225 189.52 
L 256.6225 23.2 
L 39.0025 23.2 
z
" style="fill: #ffffff"/>
   </g>
   <g id="matplotlib.axis_1">
    <g id="xtick_1">
     <g id="line2d_1">
      <path d="M 48.894318 189.52 
L 48.894318 23.2 
" clip-path="url(#p3105715af8)" style="fill: none; stroke: #b0b0b0; stroke-width: 0.8; stroke-linecap: square"/>
     </g>
     <g id="line2d_2">
      <defs>
       <path id="m372e4f62e5" d="M 0 0 
L 0 3.5 
" style="stroke: #000000; stroke-width: 0.8"/>
      </defs>
      <g>
       <use xlink:href="#m372e4f62e5" x="48.894318" y="189.52" style="stroke: #000000; stroke-width: 0.8"/>
      </g>
     </g>
     <g id="text_1">
      <!-- 0.01 -->
      <g transform="translate(39.988068 202.59875) scale(0.08 -0.08)">
       <defs>
        <path id="DejaVuSans-30" d="M 2034 4250 
Q 1547 4250 1301 3770 
Q 1056 3291 1056 2328 
Q 1056 1369 1301 889 
Q 1547 409 2034 409 
Q 2525 409 2770 889 
Q 3016 1369 3016 2328 
Q 3016 3291 2770 3770 
Q 2525 4250 2034 4250 
z
M 2034 4750 
Q 2819 4750 3233 4129 
Q 3647 3509 3647 2328 
Q 3647 1150 3233 529 
Q 2819 -91 2034 -91 
Q 1250 -91 836 529 
Q 422 1150 422 2328 
Q 422 3509 836 4129 
Q 1250 4750 2034 4750 
z
" transform="scale(0.015625)"/>
        <path id="DejaVuSans-2e" d="M 684 794 
L 1344 794 
L 1344 0 
L 684 0 
L 684 794 
z
" transform="scale(0.015625)"/>
        <path id="DejaVuSans-31" d="M 794 531 
L 1825 531 
L 1825 4091 
L 703 3866 
L 703 4441 
L 1819 4666 
L 2450 4666 
L 2450 531 
L 3481 531 
L 3481 0 
L 794 0 
L 794 531 
z
" transform="scale(0.015625)"/>
       </defs>
       <use xlink:href="#DejaVuSans-30"/>
       <use xlink:href="#DejaVuSans-2e" x="63.623047"/>
       <use xlink:href="#DejaVuSans-30" x="95.410156"/>
       <use xlink:href="#DejaVuSans-31" x="159.033203"/>
      </g>
     </g>
    </g>
    <g id="xtick_2">
     <g id="line2d_3">
      <path d="M 122.195008 189.52 
L 122.195008 23.2 
" clip-path="url(#p3105715af8)" style="fill: none; stroke: #b0b0b0; stroke-width: 0.8; stroke-linecap: square"/>
     </g>
     <g id="line2d_4">
      <g>
       <use xlink:href="#m372e4f62e5" x="122.195008" y="189.52" style="stroke: #000000; stroke-width: 0.8"/>
      </g>
     </g>
     <g id="text_2">
      <!-- 0.1 -->
      <g transform="translate(115.833758 202.59875) scale(0.08 -0.08)">
       <use xlink:href="#DejaVuSans-30"/>
       <use xlink:href="#DejaVuSans-2e" x="63.623047"/>
       <use xlink:href="#DejaVuSans-31" x="95.410156"/>
      </g>
     </g>
    </g>
    <g id="xtick_3">
     <g id="line2d_5">
      <path d="M 195.495698 189.52 
L 195.495698 23.2 
" clip-path="url(#p3105715af8)" style="fill: none; stroke: #b0b0b0; stroke-width: 0.8; stroke-linecap: square"/>
     </g>
     <g id="line2d_6">
      <g>
       <use xlink:href="#m372e4f62e5" x="195.495698" y="189.52" style="stroke: #000000; stroke-width: 0.8"/>
      </g>
     </g>
     <g id="text_3">
      <!-- 1 -->
      <g transform="translate(192.950698 202.59875) scale(0.08 -0.08)">
       <use xlink:href="#DejaVuSans-31"/>
      </g>
     </g>
    </g>
    <g id="xtick_4">
     <g id="line2d_7">
      <path d="M 41.790747 189.52 
L 41.790747 23.2 
" clip-path="url(#p3105715af8)" style="fill: none; stroke-dasharray: 0.8,1.32; stroke-dashoffset: 0; stroke: #b0b0b0; stroke-width: 0.8"/>
     </g>
     <g id="line2d_8">
      <defs>
       <path id="m3bf9de1c40" d="M 0 0 
L 0 2 
" style="stroke: #000000; stroke-width: 0.6"/>
      </defs>
      <g>
       <use xlink:href="#m3bf9de1c40" x="41.790747" y="189.52" style="stroke: #000000; stroke-width: 0.6"/>
      </g>
     </g>
    </g>
    <g id="xtick_5">
     <g id="line2d_9">
      <path d="M 45.540263 189.52 
L 45.540263 23.2 
" clip-path="url(#p3105715af8)" style="fill: none; stroke-dasharray: 0.8,1.32; stroke-dashoffset: 0; stroke: #b0b0b0; stroke-width: 0.8"/>
     </g>
     <g id="line2d_10">
      <g>
       <use xlink:href="#m3bf9de1c40" x="45.540263" y="189.52" style="stroke: #000000; stroke-width: 0.6"/>
      </g>
     </g>
    </g>
    <g id="xtick_6">
     <g id="line2d_11">
      <path d="M 70.960025 189.52 
L 70.960025 23.2 
" clip-path="url(#p3105715af8)" style="fill: none; stroke-dasharray: 0.8,1.32; stroke-dashoffset: 0; stroke: #b0b0b0; stroke-width: 0.8"/>
     </g>
     <g id="line2d_12">
      <g>
       <use xlink:href="#m3bf9de1c40" x="70.960025" y="189.52" style="stroke: #000000; stroke-width: 0.6"/>
      </g>
     </g>
    </g>
    <g id="xtick_7">
     <g id="line2d_13">
      <path d="M 83.867635 189.52 
L 83.867635 23.2 
" clip-path="url(#p3105715af8)" style="fill: none; stroke-dasharray: 0.8,1.32; stroke-dashoffset: 0; stroke: #b0b0b0; stroke-width: 0.8"/>
     </g>
     <g id="line2d_14">
      <g>
       <use xlink:href="#m3bf9de1c40" x="83.867635" y="189.52" style="stroke: #000000; stroke-width: 0.6"/>
      </g>
     </g>
    </g>
    <g id="xtick_8">
     <g id="line2d_15">
      <path d="M 93.025731 189.52 
L 93.025731 23.2 
" clip-path="url(#p3105715af8)" style="fill: none; stroke-dasharray: 0.8,1.32; stroke-dashoffset: 0; stroke: #b0b0b0; stroke-width: 0.8"/>
     </g>
     <g id="line2d_16">
      <g>
       <use xlink:href="#m3bf9de1c40" x="93.025731" y="189.52" style="stroke: #000000; stroke-width: 0.6"/>
      </g>
     </g>
    </g>
    <g id="xtick_9">
     <g id="line2d_17">
      <path d="M 100.129302 189.52 
L 100.129302 23.2 
" clip-path="url(#p3105715af8)" style="fill: none; stroke-dasharray: 0.8,1.32; stroke-dashoffset: 0; stroke: #b0b0b0; stroke-width: 0.8"/>
     </g>
     <g id="line2d_18">
      <g>
       <use xlink:href="#m3bf9de1c40" x="100.129302" y="189.52" style="stroke: #000000; stroke-width: 0.6"/>
      </g>
     </g>
    </g>
    <g id="xtick_10">
     <g id="line2d_19">
      <path d="M 105.933342 189.52 
L 105.933342 23.2 
" clip-path="url(#p3105715af8)" style="fill: none; stroke-dasharray: 0.8,1.32; stroke-dashoffset: 0; stroke: #b0b0b0; stroke-width: 0.8"/>
     </g>
     <g id="line2d_20">
      <g>
       <use xlink:href="#m3bf9de1c40" x="105.933342" y="189.52" style="stroke: #000000; stroke-width: 0.6"/>
      </g>
     </g>
    </g>
    <g id="xtick_11">
     <g id="line2d_21">
      <path d="M 110.840588 189.52 
L 110.840588 23.2 
" clip-path="url(#p3105715af8)" style="fill: none; stroke-dasharray: 0.8,1.32; stroke-dashoffset: 0; stroke: #b0b0b0; stroke-width: 0.8"/>
     </g>
     <g id="line2d_22">
      <g>
       <use xlink:href="#m3bf9de1c40" x="110.840588" y="189.52" style="stroke: #000000; stroke-width: 0.6"/>
      </g>
     </g>
    </g>
    <g id="xtick_12">
     <g id="line2d_23">
      <path d="M 115.091437 189.52 
L 115.091437 23.2 
" clip-path="url(#p3105715af8)" style="fill: none; stroke-dasharray: 0.8,1.32; stroke-dashoffset: 0; stroke: #b0b0b0; stroke-width: 0.8"/>
     </g>
     <g id="line2d_24">
      <g>
       <use xlink:href="#m3bf9de1c40" x="115.091437" y="189.52" style="stroke: #000000; stroke-width: 0.6"/>
      </g>
     </g>
    </g>
    <g id="xtick_13">
     <g id="line2d_25">
      <path d="M 118.840953 189.52 
L 118.840953 23.2 
" clip-path="url(#p3105715af8)" style="fill: none; stroke-dasharray: 0.8,1.32; stroke-dashoffset: 0; stroke: #b0b0b0; stroke-width: 0.8"/>
     </g>
     <g id="line2d_26">
      <g>
       <use xlink:href="#m3bf9de1c40" x="118.840953" y="189.52" style="stroke: #000000; stroke-width: 0.6"/>
      </g>
     </g>
    </g>
    <g id="xtick_14">
     <g id="line2d_27">
      <path d="M 144.260715 189.52 
L 144.260715 23.2 
" clip-path="url(#p3105715af8)" style="fill: none; stroke-dasharray: 0.8,1.32; stroke-dashoffset: 0; stroke: #b0b0b0; stroke-width: 0.8"/>
     </g>
     <g id="line2d_28">
      <g>
       <use xlink:href="#m3bf9de1c40" x="144.260715" y="189.52" style="stroke: #000000; stroke-width: 0.6"/>
      </g>
     </g>
    </g>
    <g id="xtick_15">
     <g id="line2d_29">
      <path d="M 157.168325 189.52 
L 157.168325 23.2 
" clip-path="url(#p3105715af8)" style="fill: none; stroke-dasharray: 0.8,1.32; stroke-dashoffset: 0; stroke: #b0b0b0; stroke-width: 0.8"/>
     </g>
     <g id="line2d_30">
      <g>
       <use xlink:href="#m3bf9de1c40" x="157.168325" y="189.52" style="stroke: #000000; stroke-width: 0.6"/>
      </g>
     </g>
    </g>
    <g id="xtick_16">
     <g id="line2d_31">
      <path d="M 166.326421 189.52 
L 166.326421 23.2 
" clip-path="url(#p3105715af8)" style="fill: none; stroke-dasharray: 0.8,1.32; stroke-dashoffset: 0; stroke: #b0b0b0; stroke-width: 0.8"/>
     </g>
     <g id="line2d_32">
      <g>
       <use xlink:href="#m3bf9de1c40" x="166.326421" y="189.52" style="stroke: #000000; stroke-width: 0.6"/>
      </g>
     </g>
    </g>
    <g id="xtick_17">
     <g id="line2d_33">
      <path d="M 173.429992 189.52 
L 173.429992 23.2 
" clip-path="url(#p3105715af8)" style="fill: none; stroke-dasharray: 0.8,1.32; stroke-dashoffset: 0; stroke: #b0b0b0; stroke-width: 0.8"/>
     </g>
     <g id="line2d_34">
      <g>
       <use xlink:href="#m3bf9de1c40" x="173.429992" y="189.52" style="stroke: #000000; stroke-width: 0.6"/>
      </g>
     </g>
    </g>
    <g id="xtick_18">
     <g id="line2d_35">
      <path d="M 179.234032 189.52 
L 179.234032 23.2 
" clip-path="url(#p3105715af8)" style="fill: none; stroke-dasharray: 0.8,1.32; stroke-dashoffset: 0; stroke: #b0b0b0; stroke-width: 0.8"/>
     </g>
     <g id="line2d_36">
      <g>
       <use xlink:href="#m3bf9de1c40" x="179.234032" y="189.52" style="stroke: #000000; stroke-width: 0.6"/>
      </g>
     </g>
    </g>
    <g id="xtick_19">
     <g id="line2d_37">
      <path d="M 184.141278 189.52 
L 184.141278 23.2 
" clip-path="url(#p3105715af8)" style="fill: none; stroke-dasharray: 0.8,1.32; stroke-dashoffset: 0; stroke: #b0b0b0; stroke-width: 0.8"/>
     </g>
     <g id="line2d_38">
      <g>
       <use xlink:href="#m3bf9de1c40" x="184.141278" y="189.52" style="stroke: #000000; stroke-width: 0.6"/>
      </g>
     </g>
    </g>
    <g id="xtick_20">
     <g id="line2d_39">
      <path d="M 188.392127 189.52 
L 188.392127 23.2 
" clip-path="url(#p3105715af8)" style="fill: none; stroke-dasharray: 0.8,1.32; stroke-dashoffset: 0; stroke: #b0b0b0; stroke-width: 0.8"/>
     </g>
     <g id="line2d_40">
      <g>
       <use xlink:href="#m3bf9de1c40" x="188.392127" y="189.52" style="stroke: #000000; stroke-width: 0.6"/>
      </g>
     </g>
    </g>
    <g id="xtick_21">
     <g id="line2d_41">
      <path d="M 192.141643 189.52 
L 192.141643 23.2 
" clip-path="url(#p3105715af8)" style="fill: none; stroke-dasharray: 0.8,1.32; stroke-dashoffset: 0; stroke: #b0b0b0; stroke-width: 0.8"/>
     </g>
     <g id="line2d_42">
      <g>
       <use xlink:href="#m3bf9de1c40" x="192.141643" y="189.52" style="stroke: #000000; stroke-width: 0.6"/>
      </g>
     </g>
    </g>
    <g id="xtick_22">
     <g id="line2d_43">
      <path d="M 217.561405 189.52 
L 217.561405 23.2 
" clip-path="url(#p3105715af8)" style="fill: none; stroke-dasharray: 0.8,1.32; stroke-dashoffset: 0; stroke: #b0b0b0; stroke-width: 0.8"/>
     </g>
     <g id="line2d_44">
      <g>
       <use xlink:href="#m3bf9de1c40" x="217.561405" y="189.52" style="stroke: #000000; stroke-width: 0.6"/>
      </g>
     </g>
    </g>
    <g id="xtick_23">
     <g id="line2d_45">
      <path d="M 230.469015 189.52 
L 230.469015 23.2 
" clip-path="url(#p3105715af8)" style="fill: none; stroke-dasharray: 0.8,1.32; stroke-dashoffset: 0; stroke: #b0b0b0; stroke-width: 0.8"/>
     </g>
     <g id="line2d_46">
      <g>
       <use xlink:href="#m3bf9de1c40" x="230.469015" y="189.52" style="stroke: #000000; stroke-width: 0.6"/>
      </g>
     </g>
    </g>
    <g id="xtick_24">
     <g id="line2d_47">
      <path d="M 239.627111 189.52 
L 239.627111 23.2 
" clip-path="url(#p3105715af8)" style="fill: none; stroke-dasharray: 0.8,1.32; stroke-dashoffset: 0; stroke: #b0b0b0; stroke-width: 0.8"/>
     </g>
     <g id="line2d_48">
      <g>
       <use xlink:href="#m3bf9de1c40" x="239.627111" y="189.52" style="stroke: #000000; stroke-width: 0.6"/>
      </g>
     </g>
    </g>
    <g id="xtick_25">
     <g id="line2d_49">
      <path d="M 246.730682 189.52 
L 246.730682 23.2 
" clip-path="url(#p3105715af8)" style="fill: none; stroke-dasharray: 0.8,1.32; stroke-dashoffset: 0; stroke: #b0b0b0; stroke-width: 0.8"/>
     </g>
     <g id="line2d_50">
      <g>
       <use xlink:href="#m3bf9de1c40" x="246.730682" y="189.52" style="stroke: #000000; stroke-width: 0.6"/>
      </g>
     </g>
    </g>
    <g id="xtick_26">
     <g id="line2d_51">
      <path d="M 252.534722 189.52 
L 252.534722 23.2 
" clip-path="url(#p3105715af8)" style="fill: none; stroke-dasharray: 0.8,1.32; stroke-dashoffset: 0; stroke: #b0b0b0; stroke-width: 0.8"/>
     </g>
     <g id="line2d_52">
      <g>
       <use xlink:href="#m3bf9de1c40" x="252.534722" y="189.52" style="stroke: #000000; stroke-width: 0.6"/>
      </g>
     </g>
    </g>
    <g id="text_4">
     <!-- Period, $T_{i}$ [s] -->
     <g transform="translate(122.8125 214.34125) scale(0.08 -0.08)">
      <defs>
       <path id="DejaVuSans-50" d="M 1259 4147 
L 1259 2394 
L 2053 2394 
Q 2494 2394 2734 2622 
Q 2975 2850 2975 3272 
Q 2975 3691 2734 3919 
Q 2494 4147 2053 4147 
L 1259 4147 
z
M 628 4666 
L 2053 4666 
Q 2838 4666 3239 4311 
Q 3641 3956 3641 3272 
Q 3641 2581 3239 2228 
Q 2838 1875 2053 1875 
L 1259 1875 
L 1259 0 
L 628 0 
L 628 4666 
z
" transform="scale(0.015625)"/>
       <path id="DejaVuSans-65" d="M 3597 1894 
L 3597 1613 
L 953 1613 
Q 991 1019 1311 708 
Q 1631 397 2203 397 
Q 2534 397 2845 478 
Q 3156 559 3463 722 
L 3463 178 
Q 3153 47 2828 -22 
Q 2503 -91 2169 -91 
Q 1331 -91 842 396 
Q 353 884 353 1716 
Q 353 2575 817 3079 
Q 1281 3584 2069 3584 
Q 2775 3584 3186 3129 
Q 3597 2675 3597 1894 
z
M 3022 2063 
Q 3016 2534 2758 2815 
Q 2500 3097 2075 3097 
Q 1594 3097 1305 2825 
Q 1016 2553 972 2059 
L 3022 2063 
z
" transform="scale(0.015625)"/>
       <path id="DejaVuSans-72" d="M 2631 2963 
Q 2534 3019 2420 3045 
Q 2306 3072 2169 3072 
Q 1681 3072 1420 2755 
Q 1159 2438 1159 1844 
L 1159 0 
L 581 0 
L 581 3500 
L 1159 3500 
L 1159 2956 
Q 1341 3275 1631 3429 
Q 1922 3584 2338 3584 
Q 2397 3584 2469 3576 
Q 2541 3569 2628 3553 
L 2631 2963 
z
" transform="scale(0.015625)"/>
       <path id="DejaVuSans-69" d="M 603 3500 
L 1178 3500 
L 1178 0 
L 603 0 
L 603 3500 
z
M 603 4863 
L 1178 4863 
L 1178 4134 
L 603 4134 
L 603 4863 
z
" transform="scale(0.015625)"/>
       <path id="DejaVuSans-6f" d="M 1959 3097 
Q 1497 3097 1228 2736 
Q 959 2375 959 1747 
Q 959 1119 1226 758 
Q 1494 397 1959 397 
Q 2419 397 2687 759 
Q 2956 1122 2956 1747 
Q 2956 2369 2687 2733 
Q 2419 3097 1959 3097 
z
M 1959 3584 
Q 2709 3584 3137 3096 
Q 3566 2609 3566 1747 
Q 3566 888 3137 398 
Q 2709 -91 1959 -91 
Q 1206 -91 779 398 
Q 353 888 353 1747 
Q 353 2609 779 3096 
Q 1206 3584 1959 3584 
z
" transform="scale(0.015625)"/>
       <path id="DejaVuSans-64" d="M 2906 2969 
L 2906 4863 
L 3481 4863 
L 3481 0 
L 2906 0 
L 2906 525 
Q 2725 213 2448 61 
Q 2172 -91 1784 -91 
Q 1150 -91 751 415 
Q 353 922 353 1747 
Q 353 2572 751 3078 
Q 1150 3584 1784 3584 
Q 2172 3584 2448 3432 
Q 2725 3281 2906 2969 
z
M 947 1747 
Q 947 1113 1208 752 
Q 1469 391 1925 391 
Q 2381 391 2643 752 
Q 2906 1113 2906 1747 
Q 2906 2381 2643 2742 
Q 2381 3103 1925 3103 
Q 1469 3103 1208 2742 
Q 947 2381 947 1747 
z
" transform="scale(0.015625)"/>
       <path id="DejaVuSans-2c" d="M 750 794 
L 1409 794 
L 1409 256 
L 897 -744 
L 494 -744 
L 750 256 
L 750 794 
z
" transform="scale(0.015625)"/>
       <path id="DejaVuSans-20" transform="scale(0.015625)"/>
       <path id="DejaVuSans-Oblique-54" d="M 378 4666 
L 4325 4666 
L 4225 4134 
L 2559 4134 
L 1759 0 
L 1125 0 
L 1925 4134 
L 275 4134 
L 378 4666 
z
" transform="scale(0.015625)"/>
       <path id="DejaVuSans-Oblique-69" d="M 1172 4863 
L 1747 4863 
L 1606 4134 
L 1031 4134 
L 1172 4863 
z
M 909 3500 
L 1484 3500 
L 800 0 
L 225 0 
L 909 3500 
z
" transform="scale(0.015625)"/>
       <path id="DejaVuSans-5b" d="M 550 4863 
L 1875 4863 
L 1875 4416 
L 1125 4416 
L 1125 -397 
L 1875 -397 
L 1875 -844 
L 550 -844 
L 550 4863 
z
" transform="scale(0.015625)"/>
       <path id="DejaVuSans-73" d="M 2834 3397 
L 2834 2853 
Q 2591 2978 2328 3040 
Q 2066 3103 1784 3103 
Q 1356 3103 1142 2972 
Q 928 2841 928 2578 
Q 928 2378 1081 2264 
Q 1234 2150 1697 2047 
L 1894 2003 
Q 2506 1872 2764 1633 
Q 3022 1394 3022 966 
Q 3022 478 2636 193 
Q 2250 -91 1575 -91 
Q 1294 -91 989 -36 
Q 684 19 347 128 
L 347 722 
Q 666 556 975 473 
Q 1284 391 1588 391 
Q 1994 391 2212 530 
Q 2431 669 2431 922 
Q 2431 1156 2273 1281 
Q 2116 1406 1581 1522 
L 1381 1569 
Q 847 1681 609 1914 
Q 372 2147 372 2553 
Q 372 3047 722 3315 
Q 1072 3584 1716 3584 
Q 2034 3584 2315 3537 
Q 2597 3491 2834 3397 
z
" transform="scale(0.015625)"/>
       <path id="DejaVuSans-5d" d="M 1947 4863 
L 1947 -844 
L 622 -844 
L 622 -397 
L 1369 -397 
L 1369 4416 
L 622 4416 
L 622 4863 
L 1947 4863 
z
" transform="scale(0.015625)"/>
      </defs>
      <use xlink:href="#DejaVuSans-50" transform="translate(0 0.015625)"/>
      <use xlink:href="#DejaVuSans-65" transform="translate(60.302734 0.015625)"/>
      <use xlink:href="#DejaVuSans-72" transform="translate(121.826172 0.015625)"/>
      <use xlink:href="#DejaVuSans-69" transform="translate(162.939453 0.015625)"/>
      <use xlink:href="#DejaVuSans-6f" transform="translate(190.722656 0.015625)"/>
      <use xlink:href="#DejaVuSans-64" transform="translate(251.904297 0.015625)"/>
      <use xlink:href="#DejaVuSans-2c" transform="translate(315.380859 0.015625)"/>
      <use xlink:href="#DejaVuSans-20" transform="translate(347.167969 0.015625)"/>
      <use xlink:href="#DejaVuSans-Oblique-54" transform="translate(378.955078 0.015625)"/>
      <use xlink:href="#DejaVuSans-Oblique-69" transform="translate(440.039062 -16.390625) scale(0.7)"/>
      <use xlink:href="#DejaVuSans-20" transform="translate(462.22168 0.015625)"/>
      <use xlink:href="#DejaVuSans-5b" transform="translate(494.008789 0.015625)"/>
      <use xlink:href="#DejaVuSans-73" transform="translate(533.022461 0.015625)"/>
      <use xlink:href="#DejaVuSans-5d" transform="translate(585.12207 0.015625)"/>
     </g>
    </g>
   </g>
   <g id="matplotlib.axis_2">
    <g id="ytick_1">
     <g id="line2d_53">
      <path d="M 39.0025 189.52 
L 256.6225 189.52 
" clip-path="url(#p3105715af8)" style="fill: none; stroke: #b0b0b0; stroke-width: 0.8; stroke-linecap: square"/>
     </g>
     <g id="line2d_54">
      <defs>
       <path id="m88c66d6e68" d="M 0 0 
L -3.5 0 
" style="stroke: #000000; stroke-width: 0.8"/>
      </defs>
      <g>
       <use xlink:href="#m88c66d6e68" x="39.0025" y="189.52" style="stroke: #000000; stroke-width: 0.8"/>
      </g>
     </g>
     <g id="text_5">
      <!-- 0 -->
      <g transform="translate(26.9125 192.559375) scale(0.08 -0.08)">
       <use xlink:href="#DejaVuSans-30"/>
      </g>
     </g>
    </g>
    <g id="ytick_2">
     <g id="line2d_55">
      <path d="M 39.0025 156.256 
L 256.6225 156.256 
" clip-path="url(#p3105715af8)" style="fill: none; stroke: #b0b0b0; stroke-width: 0.8; stroke-linecap: square"/>
     </g>
     <g id="line2d_56">
      <g>
       <use xlink:href="#m88c66d6e68" x="39.0025" y="156.256" style="stroke: #000000; stroke-width: 0.8"/>
      </g>
     </g>
     <g id="text_6">
      <!-- 0.2 -->
      <g transform="translate(19.28 159.295375) scale(0.08 -0.08)">
       <defs>
        <path id="DejaVuSans-32" d="M 1228 531 
L 3431 531 
L 3431 0 
L 469 0 
L 469 531 
Q 828 903 1448 1529 
Q 2069 2156 2228 2338 
Q 2531 2678 2651 2914 
Q 2772 3150 2772 3378 
Q 2772 3750 2511 3984 
Q 2250 4219 1831 4219 
Q 1534 4219 1204 4116 
Q 875 4013 500 3803 
L 500 4441 
Q 881 4594 1212 4672 
Q 1544 4750 1819 4750 
Q 2544 4750 2975 4387 
Q 3406 4025 3406 3419 
Q 3406 3131 3298 2873 
Q 3191 2616 2906 2266 
Q 2828 2175 2409 1742 
Q 1991 1309 1228 531 
z
" transform="scale(0.015625)"/>
       </defs>
       <use xlink:href="#DejaVuSans-30"/>
       <use xlink:href="#DejaVuSans-2e" x="63.623047"/>
       <use xlink:href="#DejaVuSans-32" x="95.410156"/>
      </g>
     </g>
    </g>
    <g id="ytick_3">
     <g id="line2d_57">
      <path d="M 39.0025 122.992 
L 256.6225 122.992 
" clip-path="url(#p3105715af8)" style="fill: none; stroke: #b0b0b0; stroke-width: 0.8; stroke-linecap: square"/>
     </g>
     <g id="line2d_58">
      <g>
       <use xlink:href="#m88c66d6e68" x="39.0025" y="122.992" style="stroke: #000000; stroke-width: 0.8"/>
      </g>
     </g>
     <g id="text_7">
      <!-- 0.4 -->
      <g transform="translate(19.28 126.031375) scale(0.08 -0.08)">
       <defs>
        <path id="DejaVuSans-34" d="M 2419 4116 
L 825 1625 
L 2419 1625 
L 2419 4116 
z
M 2253 4666 
L 3047 4666 
L 3047 1625 
L 3713 1625 
L 3713 1100 
L 3047 1100 
L 3047 0 
L 2419 0 
L 2419 1100 
L 313 1100 
L 313 1709 
L 2253 4666 
z
" transform="scale(0.015625)"/>
       </defs>
       <use xlink:href="#DejaVuSans-30"/>
       <use xlink:href="#DejaVuSans-2e" x="63.623047"/>
       <use xlink:href="#DejaVuSans-34" x="95.410156"/>
      </g>
     </g>
    </g>
    <g id="ytick_4">
     <g id="line2d_59">
      <path d="M 39.0025 89.728 
L 256.6225 89.728 
" clip-path="url(#p3105715af8)" style="fill: none; stroke: #b0b0b0; stroke-width: 0.8; stroke-linecap: square"/>
     </g>
     <g id="line2d_60">
      <g>
       <use xlink:href="#m88c66d6e68" x="39.0025" y="89.728" style="stroke: #000000; stroke-width: 0.8"/>
      </g>
     </g>
     <g id="text_8">
      <!-- 0.6 -->
      <g transform="translate(19.28 92.767375) scale(0.08 -0.08)">
       <defs>
        <path id="DejaVuSans-36" d="M 2113 2584 
Q 1688 2584 1439 2293 
Q 1191 2003 1191 1497 
Q 1191 994 1439 701 
Q 1688 409 2113 409 
Q 2538 409 2786 701 
Q 3034 994 3034 1497 
Q 3034 2003 2786 2293 
Q 2538 2584 2113 2584 
z
M 3366 4563 
L 3366 3988 
Q 3128 4100 2886 4159 
Q 2644 4219 2406 4219 
Q 1781 4219 1451 3797 
Q 1122 3375 1075 2522 
Q 1259 2794 1537 2939 
Q 1816 3084 2150 3084 
Q 2853 3084 3261 2657 
Q 3669 2231 3669 1497 
Q 3669 778 3244 343 
Q 2819 -91 2113 -91 
Q 1303 -91 875 529 
Q 447 1150 447 2328 
Q 447 3434 972 4092 
Q 1497 4750 2381 4750 
Q 2619 4750 2861 4703 
Q 3103 4656 3366 4563 
z
" transform="scale(0.015625)"/>
       </defs>
       <use xlink:href="#DejaVuSans-30"/>
       <use xlink:href="#DejaVuSans-2e" x="63.623047"/>
       <use xlink:href="#DejaVuSans-36" x="95.410156"/>
      </g>
     </g>
    </g>
    <g id="ytick_5">
     <g id="line2d_61">
      <path d="M 39.0025 56.464 
L 256.6225 56.464 
" clip-path="url(#p3105715af8)" style="fill: none; stroke: #b0b0b0; stroke-width: 0.8; stroke-linecap: square"/>
     </g>
     <g id="line2d_62">
      <g>
       <use xlink:href="#m88c66d6e68" x="39.0025" y="56.464" style="stroke: #000000; stroke-width: 0.8"/>
      </g>
     </g>
     <g id="text_9">
      <!-- 0.8 -->
      <g transform="translate(19.28 59.503375) scale(0.08 -0.08)">
       <defs>
        <path id="DejaVuSans-38" d="M 2034 2216 
Q 1584 2216 1326 1975 
Q 1069 1734 1069 1313 
Q 1069 891 1326 650 
Q 1584 409 2034 409 
Q 2484 409 2743 651 
Q 3003 894 3003 1313 
Q 3003 1734 2745 1975 
Q 2488 2216 2034 2216 
z
M 1403 2484 
Q 997 2584 770 2862 
Q 544 3141 544 3541 
Q 544 4100 942 4425 
Q 1341 4750 2034 4750 
Q 2731 4750 3128 4425 
Q 3525 4100 3525 3541 
Q 3525 3141 3298 2862 
Q 3072 2584 2669 2484 
Q 3125 2378 3379 2068 
Q 3634 1759 3634 1313 
Q 3634 634 3220 271 
Q 2806 -91 2034 -91 
Q 1263 -91 848 271 
Q 434 634 434 1313 
Q 434 1759 690 2068 
Q 947 2378 1403 2484 
z
M 1172 3481 
Q 1172 3119 1398 2916 
Q 1625 2713 2034 2713 
Q 2441 2713 2670 2916 
Q 2900 3119 2900 3481 
Q 2900 3844 2670 4047 
Q 2441 4250 2034 4250 
Q 1625 4250 1398 4047 
Q 1172 3844 1172 3481 
z
" transform="scale(0.015625)"/>
       </defs>
       <use xlink:href="#DejaVuSans-30"/>
       <use xlink:href="#DejaVuSans-2e" x="63.623047"/>
       <use xlink:href="#DejaVuSans-38" x="95.410156"/>
      </g>
     </g>
    </g>
    <g id="ytick_6">
     <g id="line2d_63">
      <path d="M 39.0025 23.2 
L 256.6225 23.2 
" clip-path="url(#p3105715af8)" style="fill: none; stroke: #b0b0b0; stroke-width: 0.8; stroke-linecap: square"/>
     </g>
     <g id="line2d_64">
      <g>
       <use xlink:href="#m88c66d6e68" x="39.0025" y="23.2" style="stroke: #000000; stroke-width: 0.8"/>
      </g>
     </g>
     <g id="text_10">
      <!-- 1 -->
      <g transform="translate(26.9125 26.239375) scale(0.08 -0.08)">
       <use xlink:href="#DejaVuSans-31"/>
      </g>
     </g>
    </g>
    <g id="text_11">
     <!-- Correlation coefficient, $Ï_{Sa,Sa}$ -->
     <g transform="translate(13.28 164.4) rotate(-90) scale(0.08 -0.08)">
      <defs>
       <path id="DejaVuSans-43" d="M 4122 4306 
L 4122 3641 
Q 3803 3938 3442 4084 
Q 3081 4231 2675 4231 
Q 1875 4231 1450 3742 
Q 1025 3253 1025 2328 
Q 1025 1406 1450 917 
Q 1875 428 2675 428 
Q 3081 428 3442 575 
Q 3803 722 4122 1019 
L 4122 359 
Q 3791 134 3420 21 
Q 3050 -91 2638 -91 
Q 1578 -91 968 557 
Q 359 1206 359 2328 
Q 359 3453 968 4101 
Q 1578 4750 2638 4750 
Q 3056 4750 3426 4639 
Q 3797 4528 4122 4306 
z
" transform="scale(0.015625)"/>
       <path id="DejaVuSans-6c" d="M 603 4863 
L 1178 4863 
L 1178 0 
L 603 0 
L 603 4863 
z
" transform="scale(0.015625)"/>
       <path id="DejaVuSans-61" d="M 2194 1759 
Q 1497 1759 1228 1600 
Q 959 1441 959 1056 
Q 959 750 1161 570 
Q 1363 391 1709 391 
Q 2188 391 2477 730 
Q 2766 1069 2766 1631 
L 2766 1759 
L 2194 1759 
z
M 3341 1997 
L 3341 0 
L 2766 0 
L 2766 531 
Q 2569 213 2275 61 
Q 1981 -91 1556 -91 
Q 1019 -91 701 211 
Q 384 513 384 1019 
Q 384 1609 779 1909 
Q 1175 2209 1959 2209 
L 2766 2209 
L 2766 2266 
Q 2766 2663 2505 2880 
Q 2244 3097 1772 3097 
Q 1472 3097 1187 3025 
Q 903 2953 641 2809 
L 641 3341 
Q 956 3463 1253 3523 
Q 1550 3584 1831 3584 
Q 2591 3584 2966 3190 
Q 3341 2797 3341 1997 
z
" transform="scale(0.015625)"/>
       <path id="DejaVuSans-74" d="M 1172 4494 
L 1172 3500 
L 2356 3500 
L 2356 3053 
L 1172 3053 
L 1172 1153 
Q 1172 725 1289 603 
Q 1406 481 1766 481 
L 2356 481 
L 2356 0 
L 1766 0 
Q 1100 0 847 248 
Q 594 497 594 1153 
L 594 3053 
L 172 3053 
L 172 3500 
L 594 3500 
L 594 4494 
L 1172 4494 
z
" transform="scale(0.015625)"/>
       <path id="DejaVuSans-6e" d="M 3513 2113 
L 3513 0 
L 2938 0 
L 2938 2094 
Q 2938 2591 2744 2837 
Q 2550 3084 2163 3084 
Q 1697 3084 1428 2787 
Q 1159 2491 1159 1978 
L 1159 0 
L 581 0 
L 581 3500 
L 1159 3500 
L 1159 2956 
Q 1366 3272 1645 3428 
Q 1925 3584 2291 3584 
Q 2894 3584 3203 3211 
Q 3513 2838 3513 2113 
z
" transform="scale(0.015625)"/>
       <path id="DejaVuSans-63" d="M 3122 3366 
L 3122 2828 
Q 2878 2963 2633 3030 
Q 2388 3097 2138 3097 
Q 1578 3097 1268 2742 
Q 959 2388 959 1747 
Q 959 1106 1268 751 
Q 1578 397 2138 397 
Q 2388 397 2633 464 
Q 2878 531 3122 666 
L 3122 134 
Q 2881 22 2623 -34 
Q 2366 -91 2075 -91 
Q 1284 -91 818 406 
Q 353 903 353 1747 
Q 353 2603 823 3093 
Q 1294 3584 2113 3584 
Q 2378 3584 2631 3529 
Q 2884 3475 3122 3366 
z
" transform="scale(0.015625)"/>
       <path id="DejaVuSans-66" d="M 2375 4863 
L 2375 4384 
L 1825 4384 
Q 1516 4384 1395 4259 
Q 1275 4134 1275 3809 
L 1275 3500 
L 2222 3500 
L 2222 3053 
L 1275 3053 
L 1275 0 
L 697 0 
L 697 3053 
L 147 3053 
L 147 3500 
L 697 3500 
L 697 3744 
Q 697 4328 969 4595 
Q 1241 4863 1831 4863 
L 2375 4863 
z
" transform="scale(0.015625)"/>
       <path id="DejaVuSans-Oblique-3c1" d="M 1203 2875 
Q 1453 3194 1981 3475 
Q 2188 3584 2756 3584 
Q 3394 3584 3694 3078 
Q 3994 2572 3834 1747 
Q 3672 922 3175 415 
Q 2678 -91 2041 -91 
Q 1656 -91 1409 63 
Q 1163 213 1044 525 
L 681 -1331 
L 103 -1331 
L 697 1716 
Q 838 2438 1203 2875 
z
M 3238 1747 
Q 3359 2381 3169 2744 
Q 2978 3103 2522 3103 
Q 2066 3103 1734 2744 
Q 1403 2381 1281 1747 
Q 1156 1113 1347 750 
Q 1538 391 1994 391 
Q 2450 391 2781 750 
Q 3113 1113 3238 1747 
z
" transform="scale(0.015625)"/>
       <path id="DejaVuSans-Oblique-53" d="M 3859 4513 
L 3738 3897 
Q 3422 4066 3111 4152 
Q 2800 4238 2509 4238 
Q 1944 4238 1609 3991 
Q 1275 3744 1275 3334 
Q 1275 3109 1398 2989 
Q 1522 2869 2034 2731 
L 2413 2638 
Q 3053 2472 3303 2217 
Q 3553 1963 3553 1503 
Q 3553 797 2998 353 
Q 2444 -91 1538 -91 
Q 1166 -91 791 -17 
Q 416 56 38 206 
L 166 856 
Q 513 641 861 531 
Q 1209 422 1556 422 
Q 2147 422 2503 684 
Q 2859 947 2859 1369 
Q 2859 1650 2717 1795 
Q 2575 1941 2106 2059 
L 1728 2156 
Q 1081 2325 845 2545 
Q 609 2766 609 3163 
Q 609 3859 1145 4304 
Q 1681 4750 2541 4750 
Q 2875 4750 3203 4690 
Q 3531 4631 3859 4513 
z
" transform="scale(0.015625)"/>
       <path id="DejaVuSans-Oblique-61" d="M 3438 1997 
L 3047 0 
L 2472 0 
L 2578 531 
Q 2325 219 2001 64 
Q 1678 -91 1281 -91 
Q 834 -91 548 182 
Q 263 456 263 884 
Q 263 1497 752 1853 
Q 1241 2209 2100 2209 
L 2900 2209 
L 2931 2363 
Q 2938 2388 2941 2417 
Q 2944 2447 2944 2509 
Q 2944 2788 2717 2942 
Q 2491 3097 2081 3097 
Q 1800 3097 1504 3025 
Q 1209 2953 897 2809 
L 997 3341 
Q 1322 3463 1633 3523 
Q 1944 3584 2234 3584 
Q 2853 3584 3176 3315 
Q 3500 3047 3500 2534 
Q 3500 2431 3484 2292 
Q 3469 2153 3438 1997 
z
M 2816 1759 
L 2241 1759 
Q 1534 1759 1195 1570 
Q 856 1381 856 984 
Q 856 709 1029 553 
Q 1203 397 1509 397 
Q 1978 397 2328 733 
Q 2678 1069 2791 1631 
L 2816 1759 
z
" transform="scale(0.015625)"/>
      </defs>
      <use xlink:href="#DejaVuSans-43" transform="translate(0 0.015625)"/>
      <use xlink:href="#DejaVuSans-6f" transform="translate(69.824219 0.015625)"/>
      <use xlink:href="#DejaVuSans-72" transform="translate(131.005859 0.015625)"/>
      <use xlink:href="#DejaVuSans-72" transform="translate(172.119141 0.015625)"/>
      <use xlink:href="#DejaVuSans-65" transform="translate(213.232422 0.015625)"/>
      <use xlink:href="#DejaVuSans-6c" transform="translate(274.755859 0.015625)"/>
      <use xlink:href="#DejaVuSans-61" transform="translate(302.539062 0.015625)"/>
      <use xlink:href="#DejaVuSans-74" transform="translate(363.818359 0.015625)"/>
      <use xlink:href="#DejaVuSans-69" transform="translate(403.027344 0.015625)"/>
      <use xlink:href="#DejaVuSans-6f" transform="translate(430.810547 0.015625)"/>
      <use xlink:href="#DejaVuSans-6e" transform="translate(491.992188 0.015625)"/>
      <use xlink:href="#DejaVuSans-20" transform="translate(555.371094 0.015625)"/>
      <use xlink:href="#DejaVuSans-63" transform="translate(587.158203 0.015625)"/>
      <use xlink:href="#DejaVuSans-6f" transform="translate(642.138672 0.015625)"/>
      <use xlink:href="#DejaVuSans-65" transform="translate(703.320312 0.015625)"/>
      <use xlink:href="#DejaVuSans-66" transform="translate(764.84375 0.015625)"/>
      <use xlink:href="#DejaVuSans-66" transform="translate(800.048828 0.015625)"/>
      <use xlink:href="#DejaVuSans-69" transform="translate(835.253906 0.015625)"/>
      <use xlink:href="#DejaVuSans-63" transform="translate(863.037109 0.015625)"/>
      <use xlink:href="#DejaVuSans-69" transform="translate(918.017578 0.015625)"/>
      <use xlink:href="#DejaVuSans-65" transform="translate(945.800781 0.015625)"/>
      <use xlink:href="#DejaVuSans-6e" transform="translate(1007.324219 0.015625)"/>
      <use xlink:href="#DejaVuSans-74" transform="translate(1070.703125 0.015625)"/>
      <use xlink:href="#DejaVuSans-2c" transform="translate(1109.912109 0.015625)"/>
      <use xlink:href="#DejaVuSans-20" transform="translate(1141.699219 0.015625)"/>
      <use xlink:href="#DejaVuSans-Oblique-3c1" transform="translate(1173.486328 0.015625)"/>
      <use xlink:href="#DejaVuSans-Oblique-53" transform="translate(1236.962891 -16.390625) scale(0.7)"/>
      <use xlink:href="#DejaVuSans-Oblique-61" transform="translate(1281.396484 -16.390625) scale(0.7)"/>
      <use xlink:href="#DejaVuSans-2c" transform="translate(1324.291992 -16.390625) scale(0.7)"/>
      <use xlink:href="#DejaVuSans-Oblique-53" transform="translate(1360.180664 -16.390625) scale(0.7)"/>
      <use xlink:href="#DejaVuSans-Oblique-61" transform="translate(1404.614258 -16.390625) scale(0.7)"/>
     </g>
    </g>
   </g>
   <g id="line2d_65">
    <path d="M 48.894318 36.040319 
L 100.129302 32.353606 
L 122.195008 23.2 
L 135.102619 32.377179 
L 144.260715 42.232241 
L 157.168325 59.895381 
L 166.326421 75.072048 
L 173.429992 88.452909 
L 179.234032 99.977782 
L 184.141278 107.291502 
L 188.392127 112.975077 
L 192.141643 118.649009 
L 195.495698 123.657766 
L 201.299738 129.977154 
L 206.206984 134.983539 
L 212.387763 138.881667 
L 217.561405 140.630029 
L 224.664975 142.861218 
L 230.469015 141.116706 
L 235.376261 138.616792 
L 239.627111 136.857991 
L 246.730682 138.691534 
" clip-path="url(#p3105715af8)" style="fill: none; stroke: #0000ff; stroke-width: 1.8; stroke-linecap: square"/>
   </g>
   <g id="line2d_66">
    <path d="M 48.894318 36.002353 
L 100.129302 34.001429 
L 122.195008 23.2 
L 135.102619 33.068969 
L 144.260715 42.491262 
L 157.168325 58.860879 
L 166.326421 72.330643 
L 173.429992 83.644495 
L 179.234032 93.429125 
L 184.141278 100.706154 
L 188.392127 107.604338 
L 192.141643 113.364215 
L 195.495698 118.42941 
L 201.299738 127.50381 
L 206.206984 133.272199 
L 212.387763 139.836337 
L 217.561405 142.411452 
L 224.664975 148.749764 
L 230.469015 148.496543 
L 235.376261 148.043587 
L 239.627111 148.617611 
L 246.730682 150.705045 
" clip-path="url(#p3105715af8)" style="fill: none; stroke: #000000; stroke-width: 1.8; stroke-linecap: square"/>
   </g>
   <g id="line2d_67">
    <path d="M 48.894318 36.221575 
L 100.129302 33.174331 
L 122.195008 23.2 
L 135.102619 33.225926 
L 144.260715 42.379266 
L 157.168325 58.243743 
L 166.326421 72.297246 
L 173.429992 83.522113 
L 179.234032 94.084309 
L 184.141278 101.385035 
L 188.392127 108.043652 
L 192.141643 113.612598 
L 195.495698 118.808675 
L 201.299738 127.423845 
L 206.206984 133.405942 
L 212.387763 139.723426 
L 217.561405 141.600051 
L 224.664975 147.021132 
L 230.469015 146.771322 
L 235.376261 147.105848 
L 239.627111 148.17338 
L 246.730682 150.409717 
" clip-path="url(#p3105715af8)" style="fill: none; stroke: #ff0000; stroke-width: 1.8; stroke-linecap: square"/>
   </g>
   <g id="line2d_68">
    <path d="M 48.894318 35.891584 
L 100.129302 32.246772 
L 122.195008 23.2 
L 135.102619 33.274709 
L 144.260715 43.065482 
L 157.168325 60.795862 
L 166.326421 76.159864 
L 173.429992 88.069403 
L 179.234032 97.735935 
L 184.141278 104.552306 
L 188.392127 110.965836 
L 192.141643 116.043608 
L 195.495698 121.009041 
L 201.299738 128.161867 
L 206.206984 132.750688 
L 212.387763 137.212381 
L 217.561405 137.443154 
L 224.664975 141.771942 
L 230.469015 140.816856 
L 235.376261 139.836305 
L 239.627111 140.409594 
L 246.730682 142.768911 
" clip-path="url(#p3105715af8)" style="fill: none; stroke: #008000; stroke-width: 1.8; stroke-linecap: square"/>
   </g>
   <g id="line2d_69">
    <path d="M 48.894318 35.652793 
L 100.129302 33.72872 
L 122.195008 23.2 
L 135.102619 33.345964 
L 144.260715 43.66153 
L 157.168325 60.36615 
L 166.326421 73.816767 
L 173.429992 84.730673 
L 179.234032 93.654136 
L 184.141278 100.149735 
L 188.392127 106.777778 
L 192.141643 112.565914 
L 195.495698 118.16263 
L 201.299738 127.005592 
L 206.206984 133.122016 
L 212.387763 139.591194 
L 217.561405 142.179964 
L 224.664975 149.020663 
L 230.469015 149.044853 
L 235.376261 148.491392 
L 239.627111 149.155191 
L 246.730682 150.843832 
" clip-path="url(#p3105715af8)" style="fill: none; stroke: #ffd700; stroke-width: 1.8; stroke-linecap: square"/>
   </g>
   <g id="line2d_70">
    <path d="M 48.894318 58.159152 
L 100.129302 71.437585 
L 122.195008 88.452909 
L 135.102619 83.556726 
L 144.260715 72.784933 
L 157.168325 49.896344 
L 166.326421 34.350481 
L 173.429992 23.2 
L 179.234032 32.04442 
L 184.141278 40.146561 
L 188.392127 47.502897 
L 192.141643 54.413917 
L 195.495698 60.939764 
L 201.299738 70.351961 
L 206.206984 77.159027 
L 212.387763 85.651341 
L 217.561405 93.006408 
L 224.664975 101.139335 
L 230.469015 106.29708 
L 235.376261 109.624331 
L 239.627111 114.491699 
L 246.730682 125.384062 
" clip-path="url(#p3105715af8)" style="fill: none; stroke: #0000ff; stroke-width: 1.8; stroke-linecap: square"/>
   </g>
   <g id="line2d_71">
    <path d="M 48.894318 57.771252 
L 100.129302 71.579288 
L 122.195008 83.644495 
L 135.102619 80.228201 
L 144.260715 70.872733 
L 157.168325 49.446435 
L 166.326421 34.161971 
L 173.429992 23.2 
L 179.234032 31.932967 
L 184.141278 39.827226 
L 188.392127 46.943958 
L 192.141643 53.469316 
L 195.495698 59.496591 
L 201.299738 69.251913 
L 206.206984 76.599112 
L 212.387763 86.031896 
L 217.561405 93.636663 
L 224.664975 103.624536 
L 230.469015 108.330713 
L 235.376261 111.948014 
L 239.627111 116.452164 
L 246.730682 124.977197 
" clip-path="url(#p3105715af8)" style="fill: none; stroke: #000000; stroke-width: 1.8; stroke-linecap: square"/>
   </g>
   <g id="line2d_72">
    <path d="M 48.894318 55.607794 
L 100.129302 69.359445 
L 122.195008 83.522113 
L 135.102619 79.41772 
L 144.260715 70.743012 
L 157.168325 49.350997 
L 166.326421 34.096573 
L 173.429992 23.2 
L 179.234032 31.99071 
L 184.141278 39.802339 
L 188.392127 46.769651 
L 192.141643 53.363157 
L 195.495698 59.584883 
L 201.299738 69.726126 
L 206.206984 77.743226 
L 212.387763 87.72331 
L 217.561405 95.504953 
L 224.664975 105.614279 
L 230.469015 110.661379 
L 235.376261 114.889229 
L 239.627111 119.302913 
L 246.730682 125.679782 
" clip-path="url(#p3105715af8)" style="fill: none; stroke: #ff0000; stroke-width: 1.8; stroke-linecap: square"/>
   </g>
   <g id="line2d_73">
    <path d="M 48.894318 63.173444 
L 100.129302 74.772168 
L 122.195008 88.069403 
L 135.102619 83.571687 
L 144.260715 74.448613 
L 157.168325 51.247588 
L 166.326421 34.024025 
L 173.429992 23.2 
L 179.234032 31.707543 
L 184.141278 39.404639 
L 188.392127 46.278433 
L 192.141643 52.943703 
L 195.495698 59.416544 
L 201.299738 69.130087 
L 206.206984 76.827063 
L 212.387763 85.967294 
L 217.561405 93.103285 
L 224.664975 102.056409 
L 230.469015 106.427345 
L 235.376261 110.043898 
L 239.627111 114.204688 
L 246.730682 122.226869 
" clip-path="url(#p3105715af8)" style="fill: none; stroke: #008000; stroke-width: 1.8; stroke-linecap: square"/>
   </g>
   <g id="line2d_74">
    <path d="M 48.894318 58.442789 
L 100.129302 73.792721 
L 122.195008 84.730673 
L 135.102619 78.318306 
L 144.260715 68.543707 
L 157.168325 47.727885 
L 166.326421 33.501507 
L 173.429992 23.2 
L 179.234032 31.384937 
L 184.141278 38.961509 
L 188.392127 45.750241 
L 192.141643 52.006497 
L 195.495698 57.926622 
L 201.299738 67.501027 
L 206.206984 74.717368 
L 212.387763 83.784158 
L 217.561405 90.88215 
L 224.664975 100.897223 
L 230.469015 105.733759 
L 235.376261 109.44192 
L 239.627111 113.769668 
L 246.730682 120.899751 
" clip-path="url(#p3105715af8)" style="fill: none; stroke: #ffd700; stroke-width: 1.8; stroke-linecap: square"/>
   </g>
   <g id="line2d_75">
    <path d="M 48.894318 90.205208 
L 100.129302 103.508104 
L 122.195008 123.657766 
L 135.102619 121.673542 
L 144.260715 111.390017 
L 157.168325 89.253695 
L 166.326421 74.118549 
L 173.429992 60.939764 
L 179.234032 50.379553 
L 184.141278 43.061332 
L 188.392127 34.546918 
L 192.141643 27.810469 
L 195.495698 23.2 
L 201.299738 31.676905 
L 206.206984 39.283469 
L 212.387763 47.674617 
L 217.561405 55.98998 
L 224.664975 65.211101 
L 230.469015 73.563382 
L 235.376261 81.524284 
L 239.627111 90.606386 
L 246.730682 109.899069 
" clip-path="url(#p3105715af8)" style="fill: none; stroke: #0000ff; stroke-width: 1.8; stroke-linecap: square"/>
   </g>
   <g id="line2d_76">
    <path d="M 48.894318 88.583221 
L 100.129302 102.60468 
L 122.195008 118.42941 
L 135.102619 118.163286 
L 144.260715 109.226133 
L 157.168325 88.017682 
L 166.326421 72.810325 
L 173.429992 59.496591 
L 179.234032 48.606272 
L 184.141278 41.415246 
L 188.392127 33.789418 
L 192.141643 27.589095 
L 195.495698 23.2 
L 201.299738 31.602651 
L 206.206984 39.224346 
L 212.387763 47.477427 
L 217.561405 56.011231 
L 224.664975 66.721094 
L 230.469015 73.821755 
L 235.376261 80.546914 
L 239.627111 87.245052 
L 246.730682 100.133746 
" clip-path="url(#p3105715af8)" style="fill: none; stroke: #000000; stroke-width: 1.8; stroke-linecap: square"/>
   </g>
   <g id="line2d_77">
    <path d="M 48.894318 86.506857 
L 100.129302 100.192507 
L 122.195008 118.808675 
L 135.102619 118.019023 
L 144.260715 110.259196 
L 157.168325 89.02805 
L 166.326421 73.377291 
L 173.429992 59.584883 
L 179.234032 48.437418 
L 184.141278 41.275482 
L 188.392127 33.536646 
L 192.141643 27.423352 
L 195.495698 23.2 
L 201.299738 31.10712 
L 206.206984 38.516745 
L 212.387763 46.733394 
L 217.561405 54.835742 
L 224.664975 64.920711 
L 230.469015 71.676223 
L 235.376261 78.062609 
L 239.627111 83.918423 
L 246.730682 93.311989 
" clip-path="url(#p3105715af8)" style="fill: none; stroke: #ff0000; stroke-width: 1.8; stroke-linecap: square"/>
   </g>
   <g id="line2d_78">
    <path d="M 48.894318 90.641924 
L 100.129302 103.892622 
L 122.195008 121.009041 
L 135.102619 120.934667 
L 144.260715 112.553242 
L 157.168325 90.411591 
L 166.326421 73.502547 
L 173.429992 59.416544 
L 179.234032 47.713062 
L 184.141278 40.325167 
L 188.392127 32.869933 
L 192.141643 27.102616 
L 195.495698 23.2 
L 201.299738 30.393266 
L 206.206984 37.129659 
L 212.387763 44.331125 
L 217.561405 51.547703 
L 224.664975 59.880533 
L 230.469015 65.836831 
L 235.376261 71.836384 
L 239.627111 77.232115 
L 246.730682 87.723169 
" clip-path="url(#p3105715af8)" style="fill: none; stroke: #008000; stroke-width: 1.8; stroke-linecap: square"/>
   </g>
   <g id="line2d_79">
    <path d="M 48.894318 87.351804 
L 100.129302 101.734539 
L 122.195008 118.16263 
L 135.102619 115.531263 
L 144.260715 106.41631 
L 157.168325 85.941113 
L 166.326421 71.135408 
L 173.429992 57.926622 
L 179.234032 47.678358 
L 184.141278 40.642012 
L 188.392127 33.22475 
L 192.141643 27.345503 
L 195.495698 23.2 
L 201.299738 31.002483 
L 206.206984 38.073736 
L 212.387763 45.672344 
L 217.561405 53.220472 
L 224.664975 63.165543 
L 230.469015 70.079111 
L 235.376261 76.913006 
L 239.627111 83.311469 
L 246.730682 94.672446 
" clip-path="url(#p3105715af8)" style="fill: none; stroke: #ffd700; stroke-width: 1.8; stroke-linecap: square"/>
   </g>
   <g id="line2d_80">
    <path d="M 48.894318 119.915487 
L 100.129302 128.122616 
L 122.195008 141.116706 
L 135.102619 142.850432 
L 144.260715 137.426589 
L 157.168325 124.308914 
L 166.326421 114.368576 
L 173.429992 106.29708 
L 179.234032 98.710386 
L 184.141278 91.689947 
L 188.392127 84.828066 
L 192.141643 79.586788 
L 195.495698 73.563382 
L 201.299738 66.458539 
L 206.206984 59.909531 
L 212.387763 51.533734 
L 217.561405 45.065509 
L 224.664975 33.356903 
L 230.469015 23.2 
L 235.376261 30.779701 
L 239.627111 40.0932 
L 246.730682 60.290753 
" clip-path="url(#p3105715af8)" style="fill: none; stroke: #0000ff; stroke-width: 1.8; stroke-linecap: square"/>
   </g>
   <g id="line2d_81">
    <path d="M 48.894318 125.818861 
L 100.129302 135.345653 
L 122.195008 148.496543 
L 135.102619 151.344042 
L 144.260715 145.214644 
L 157.168325 131.249 
L 166.326421 118.599483 
L 173.429992 108.330713 
L 179.234032 98.832482 
L 184.141278 91.513445 
L 188.392127 85.602878 
L 192.141643 80.442274 
L 195.495698 73.821755 
L 201.299738 65.271755 
L 206.206984 57.97273 
L 212.387763 48.644392 
L 217.561405 41.506958 
L 224.664975 31.447694 
L 230.469015 23.2 
L 235.376261 29.52752 
L 239.627111 37.071534 
L 246.730682 51.307777 
" clip-path="url(#p3105715af8)" style="fill: none; stroke: #000000; stroke-width: 1.8; stroke-linecap: square"/>
   </g>
   <g id="line2d_82">
    <path d="M 48.894318 122.625439 
L 100.129302 130.140542 
L 122.195008 146.771322 
L 135.102619 148.54697 
L 144.260715 145.571355 
L 157.168325 133.364317 
L 166.326421 122.057977 
L 173.429992 110.661379 
L 179.234032 100.356585 
L 184.141278 92.821573 
L 188.392127 85.625724 
L 192.141643 79.183414 
L 195.495698 71.676223 
L 201.299738 61.487719 
L 206.206984 53.023745 
L 212.387763 44.161881 
L 217.561405 37.64122 
L 224.664975 29.114262 
L 230.469015 23.2 
L 235.376261 27.375774 
L 239.627111 32.249514 
L 246.730682 41.284234 
" clip-path="url(#p3105715af8)" style="fill: none; stroke: #ff0000; stroke-width: 1.8; stroke-linecap: square"/>
   </g>
   <g id="line2d_83">
    <path d="M 48.894318 113.966181 
L 100.129302 125.282691 
L 122.195008 140.816856 
L 135.102619 145.411465 
L 144.260715 141.258446 
L 157.168325 129.676894 
L 166.326421 118.262405 
L 173.429992 106.427345 
L 179.234032 94.976008 
L 184.141278 86.608863 
L 188.392127 79.445153 
L 192.141643 73.151377 
L 195.495698 65.836831 
L 201.299738 57.713477 
L 206.206984 51.038002 
L 212.387763 43.295134 
L 217.561405 37.155656 
L 224.664975 29.110502 
L 230.469015 23.2 
L 235.376261 27.63992 
L 239.627111 33.028767 
L 246.730682 43.842553 
" clip-path="url(#p3105715af8)" style="fill: none; stroke: #008000; stroke-width: 1.8; stroke-linecap: square"/>
   </g>
   <g id="line2d_84">
    <path d="M 48.894318 123.019873 
L 100.129302 131.544255 
L 122.195008 149.044853 
L 135.102619 150.866033 
L 144.260715 144.732339 
L 157.168325 130.080322 
L 166.326421 117.418927 
L 173.429992 105.733759 
L 179.234032 96.594954 
L 184.141278 88.669793 
L 188.392127 81.970127 
L 192.141643 76.628405 
L 195.495698 70.079111 
L 201.299738 62.005512 
L 206.206984 55.077545 
L 212.387763 47.095306 
L 217.561405 40.767684 
L 224.664975 31.097258 
L 230.469015 23.2 
L 235.376261 29.19953 
L 239.627111 36.135775 
L 246.730682 49.288776 
" clip-path="url(#p3105715af8)" style="fill: none; stroke: #ffd700; stroke-width: 1.8; stroke-linecap: square"/>
   </g>
   <g id="patch_3">
    <path d="M 39.0025 189.52 
L 39.0025 23.2 
" style="fill: none; stroke: #000000; stroke-width: 0.8; stroke-linejoin: miter; stroke-linecap: square"/>
   </g>
   <g id="patch_4">
    <path d="M 256.6225 189.52 
L 256.6225 23.2 
" style="fill: none; stroke: #000000; stroke-width: 0.8; stroke-linejoin: miter; stroke-linecap: square"/>
   </g>
   <g id="patch_5">
    <path d="M 39.0025 189.52 
L 256.6225 189.52 
" style="fill: none; stroke: #000000; stroke-width: 0.8; stroke-linejoin: miter; stroke-linecap: square"/>
   </g>
   <g id="patch_6">
    <path d="M 39.0025 23.2 
L 256.6225 23.2 
" style="fill: none; stroke: #000000; stroke-width: 0.8; stroke-linejoin: miter; stroke-linecap: square"/>
   </g>
   <g id="text_12">
    <!-- $T_{j}$=0.1s -->
    <g transform="translate(97.195008 13.2) scale(0.08 -0.08)">
     <defs>
      <path id="DejaVuSans-Oblique-6a" d="M 928 3500 
L 1503 3500 
L 813 -63 
L 809 -78 
Q 694 -675 544 -897 
Q 403 -1106 132 -1218 
Q -138 -1331 -506 -1331 
L -722 -1331 
L -628 -844 
L -481 -844 
Q -144 -844 -1 -703 
Q 141 -563 238 -63 
L 928 3500 
z
M 1197 4863 
L 1772 4863 
L 1631 4134 
L 1056 4134 
L 1197 4863 
z
" transform="scale(0.015625)"/>
      <path id="DejaVuSans-3d" d="M 678 2906 
L 4684 2906 
L 4684 2381 
L 678 2381 
L 678 2906 
z
M 678 1631 
L 4684 1631 
L 4684 1100 
L 678 1100 
L 678 1631 
z
" transform="scale(0.015625)"/>
     </defs>
     <use xlink:href="#DejaVuSans-Oblique-54" transform="translate(0 0.78125)"/>
     <use xlink:href="#DejaVuSans-Oblique-6a" transform="translate(61.083984 -15.625) scale(0.7)"/>
     <use xlink:href="#DejaVuSans-3d" transform="translate(83.266602 0.78125)"/>
     <use xlink:href="#DejaVuSans-30" transform="translate(167.055664 0.78125)"/>
     <use xlink:href="#DejaVuSans-2e" transform="translate(230.678711 0.78125)"/>
     <use xlink:href="#DejaVuSans-31" transform="translate(262.46582 0.78125)"/>
     <use xlink:href="#DejaVuSans-73" transform="translate(326.088867 0.78125)"/>
    </g>
   </g>
   <g id="text_13">
    <!-- $T_{j}$=0.5s -->
    <g transform="translate(138.429992 13.2) scale(0.08 -0.08)">
     <defs>
      <path id="DejaVuSans-35" d="M 691 4666 
L 3169 4666 
L 3169 4134 
L 1269 4134 
L 1269 2991 
Q 1406 3038 1543 3061 
Q 1681 3084 1819 3084 
Q 2600 3084 3056 2656 
Q 3513 2228 3513 1497 
Q 3513 744 3044 326 
Q 2575 -91 1722 -91 
Q 1428 -91 1123 -41 
Q 819 9 494 109 
L 494 744 
Q 775 591 1075 516 
Q 1375 441 1709 441 
Q 2250 441 2565 725 
Q 2881 1009 2881 1497 
Q 2881 1984 2565 2268 
Q 2250 2553 1709 2553 
Q 1456 2553 1204 2497 
Q 953 2441 691 2322 
L 691 4666 
z
" transform="scale(0.015625)"/>
     </defs>
     <use xlink:href="#DejaVuSans-Oblique-54" transform="translate(0 0.78125)"/>
     <use xlink:href="#DejaVuSans-Oblique-6a" transform="translate(61.083984 -15.625) scale(0.7)"/>
     <use xlink:href="#DejaVuSans-3d" transform="translate(83.266602 0.78125)"/>
     <use xlink:href="#DejaVuSans-30" transform="translate(167.055664 0.78125)"/>
     <use xlink:href="#DejaVuSans-2e" transform="translate(230.678711 0.78125)"/>
     <use xlink:href="#DejaVuSans-35" transform="translate(262.46582 0.78125)"/>
     <use xlink:href="#DejaVuSans-73" transform="translate(326.088867 0.78125)"/>
    </g>
   </g>
   <g id="text_14">
    <!-- $T_{j}$=1s -->
    <g transform="translate(180.495698 13.2) scale(0.08 -0.08)">
     <use xlink:href="#DejaVuSans-Oblique-54" transform="translate(0 0.09375)"/>
     <use xlink:href="#DejaVuSans-Oblique-6a" transform="translate(61.083984 -16.3125) scale(0.7)"/>
     <use xlink:href="#DejaVuSans-3d" transform="translate(83.266602 0.09375)"/>
     <use xlink:href="#DejaVuSans-31" transform="translate(167.055664 0.09375)"/>
     <use xlink:href="#DejaVuSans-73" transform="translate(230.678711 0.09375)"/>
    </g>
   </g>
   <g id="text_15">
    <!-- $T_{j}$=3s -->
    <g transform="translate(215.469015 13.2) scale(0.08 -0.08)">
     <defs>
      <path id="DejaVuSans-33" d="M 2597 2516 
Q 3050 2419 3304 2112 
Q 3559 1806 3559 1356 
Q 3559 666 3084 287 
Q 2609 -91 1734 -91 
Q 1441 -91 1130 -33 
Q 819 25 488 141 
L 488 750 
Q 750 597 1062 519 
Q 1375 441 1716 441 
Q 2309 441 2620 675 
Q 2931 909 2931 1356 
Q 2931 1769 2642 2001 
Q 2353 2234 1838 2234 
L 1294 2234 
L 1294 2753 
L 1863 2753 
Q 2328 2753 2575 2939 
Q 2822 3125 2822 3475 
Q 2822 3834 2567 4026 
Q 2313 4219 1838 4219 
Q 1578 4219 1281 4162 
Q 984 4106 628 3988 
L 628 4550 
Q 988 4650 1302 4700 
Q 1616 4750 1894 4750 
Q 2613 4750 3031 4423 
Q 3450 4097 3450 3541 
Q 3450 3153 3228 2886 
Q 3006 2619 2597 2516 
z
" transform="scale(0.015625)"/>
     </defs>
     <use xlink:href="#DejaVuSans-Oblique-54" transform="translate(0 0.78125)"/>
     <use xlink:href="#DejaVuSans-Oblique-6a" transform="translate(61.083984 -15.625) scale(0.7)"/>
     <use xlink:href="#DejaVuSans-3d" transform="translate(83.266602 0.78125)"/>
     <use xlink:href="#DejaVuSans-33" transform="translate(167.055664 0.78125)"/>
     <use xlink:href="#DejaVuSans-73" transform="translate(230.678711 0.78125)"/>
    </g>
   </g>
   <g id="legend_1">
    <g id="patch_7">
     <path d="M 262.2225 136.91625 
L 328.89875 136.91625 
Q 330.49875 136.91625 330.49875 135.31625 
L 330.49875 77.40375 
Q 330.49875 75.80375 328.89875 75.80375 
L 262.2225 75.80375 
Q 260.6225 75.80375 260.6225 77.40375 
L 260.6225 135.31625 
Q 260.6225 136.91625 262.2225 136.91625 
z
" style="fill: #ffffff; opacity: 0.8; stroke: #cccccc; stroke-linejoin: miter"/>
    </g>
    <g id="line2d_85">
     <path d="M 263.8225 82.2825 
L 271.8225 82.2825 
L 279.8225 82.2825 
" style="fill: none; stroke: #0000ff; stroke-width: 1.8; stroke-linecap: square"/>
    </g>
    <g id="text_16">
     <!-- This study -->
     <g transform="translate(286.2225 85.0825) scale(0.08 -0.08)">
      <defs>
       <path id="DejaVuSans-54" d="M -19 4666 
L 3928 4666 
L 3928 4134 
L 2272 4134 
L 2272 0 
L 1638 0 
L 1638 4134 
L -19 4134 
L -19 4666 
z
" transform="scale(0.015625)"/>
       <path id="DejaVuSans-68" d="M 3513 2113 
L 3513 0 
L 2938 0 
L 2938 2094 
Q 2938 2591 2744 2837 
Q 2550 3084 2163 3084 
Q 1697 3084 1428 2787 
Q 1159 2491 1159 1978 
L 1159 0 
L 581 0 
L 581 4863 
L 1159 4863 
L 1159 2956 
Q 1366 3272 1645 3428 
Q 1925 3584 2291 3584 
Q 2894 3584 3203 3211 
Q 3513 2838 3513 2113 
z
" transform="scale(0.015625)"/>
       <path id="DejaVuSans-75" d="M 544 1381 
L 544 3500 
L 1119 3500 
L 1119 1403 
Q 1119 906 1312 657 
Q 1506 409 1894 409 
Q 2359 409 2629 706 
Q 2900 1003 2900 1516 
L 2900 3500 
L 3475 3500 
L 3475 0 
L 2900 0 
L 2900 538 
Q 2691 219 2414 64 
Q 2138 -91 1772 -91 
Q 1169 -91 856 284 
Q 544 659 544 1381 
z
M 1991 3584 
L 1991 3584 
z
" transform="scale(0.015625)"/>
       <path id="DejaVuSans-79" d="M 2059 -325 
Q 1816 -950 1584 -1140 
Q 1353 -1331 966 -1331 
L 506 -1331 
L 506 -850 
L 844 -850 
Q 1081 -850 1212 -737 
Q 1344 -625 1503 -206 
L 1606 56 
L 191 3500 
L 800 3500 
L 1894 763 
L 2988 3500 
L 3597 3500 
L 2059 -325 
z
" transform="scale(0.015625)"/>
      </defs>
      <use xlink:href="#DejaVuSans-54"/>
      <use xlink:href="#DejaVuSans-68" x="61.083984"/>
      <use xlink:href="#DejaVuSans-69" x="124.462891"/>
      <use xlink:href="#DejaVuSans-73" x="152.246094"/>
      <use xlink:href="#DejaVuSans-20" x="204.345703"/>
      <use xlink:href="#DejaVuSans-73" x="236.132812"/>
      <use xlink:href="#DejaVuSans-74" x="288.232422"/>
      <use xlink:href="#DejaVuSans-75" x="327.441406"/>
      <use xlink:href="#DejaVuSans-64" x="390.820312"/>
      <use xlink:href="#DejaVuSans-79" x="454.296875"/>
     </g>
    </g>
    <g id="line2d_86">
     <path d="M 263.8225 94.025 
L 271.8225 94.025 
L 279.8225 94.025 
" style="fill: none; stroke: #000000; stroke-width: 1.8; stroke-linecap: square"/>
    </g>
    <g id="text_17">
     <!-- CB14 -->
     <g transform="translate(286.2225 96.825) scale(0.08 -0.08)">
      <defs>
       <path id="DejaVuSans-42" d="M 1259 2228 
L 1259 519 
L 2272 519 
Q 2781 519 3026 730 
Q 3272 941 3272 1375 
Q 3272 1813 3026 2020 
Q 2781 2228 2272 2228 
L 1259 2228 
z
M 1259 4147 
L 1259 2741 
L 2194 2741 
Q 2656 2741 2882 2914 
Q 3109 3088 3109 3444 
Q 3109 3797 2882 3972 
Q 2656 4147 2194 4147 
L 1259 4147 
z
M 628 4666 
L 2241 4666 
Q 2963 4666 3353 4366 
Q 3744 4066 3744 3513 
Q 3744 3084 3544 2831 
Q 3344 2578 2956 2516 
Q 3422 2416 3680 2098 
Q 3938 1781 3938 1306 
Q 3938 681 3513 340 
Q 3088 0 2303 0 
L 628 0 
L 628 4666 
z
" transform="scale(0.015625)"/>
      </defs>
      <use xlink:href="#DejaVuSans-43"/>
      <use xlink:href="#DejaVuSans-42" x="69.824219"/>
      <use xlink:href="#DejaVuSans-31" x="138.427734"/>
      <use xlink:href="#DejaVuSans-34" x="202.050781"/>
     </g>
    </g>
    <g id="line2d_87">
     <path d="M 263.8225 105.7675 
L 271.8225 105.7675 
L 279.8225 105.7675 
" style="fill: none; stroke: #ff0000; stroke-width: 1.8; stroke-linecap: square"/>
    </g>
    <g id="text_18">
     <!-- CY14 -->
     <g transform="translate(286.2225 108.5675) scale(0.08 -0.08)">
      <defs>
       <path id="DejaVuSans-59" d="M -13 4666 
L 666 4666 
L 1959 2747 
L 3244 4666 
L 3922 4666 
L 2272 2222 
L 2272 0 
L 1638 0 
L 1638 2222 
L -13 4666 
z
" transform="scale(0.015625)"/>
      </defs>
      <use xlink:href="#DejaVuSans-43"/>
      <use xlink:href="#DejaVuSans-59" x="68.074219"/>
      <use xlink:href="#DejaVuSans-31" x="129.158203"/>
      <use xlink:href="#DejaVuSans-34" x="192.78125"/>
     </g>
    </g>
    <g id="line2d_88">
     <path d="M 263.8225 117.51 
L 271.8225 117.51 
L 279.8225 117.51 
" style="fill: none; stroke: #008000; stroke-width: 1.8; stroke-linecap: square"/>
    </g>
    <g id="text_19">
     <!-- ASK14 -->
     <g transform="translate(286.2225 120.31) scale(0.08 -0.08)">
      <defs>
       <path id="DejaVuSans-41" d="M 2188 4044 
L 1331 1722 
L 3047 1722 
L 2188 4044 
z
M 1831 4666 
L 2547 4666 
L 4325 0 
L 3669 0 
L 3244 1197 
L 1141 1197 
L 716 0 
L 50 0 
L 1831 4666 
z
" transform="scale(0.015625)"/>
       <path id="DejaVuSans-53" d="M 3425 4513 
L 3425 3897 
Q 3066 4069 2747 4153 
Q 2428 4238 2131 4238 
Q 1616 4238 1336 4038 
Q 1056 3838 1056 3469 
Q 1056 3159 1242 3001 
Q 1428 2844 1947 2747 
L 2328 2669 
Q 3034 2534 3370 2195 
Q 3706 1856 3706 1288 
Q 3706 609 3251 259 
Q 2797 -91 1919 -91 
Q 1588 -91 1214 -16 
Q 841 59 441 206 
L 441 856 
Q 825 641 1194 531 
Q 1563 422 1919 422 
Q 2459 422 2753 634 
Q 3047 847 3047 1241 
Q 3047 1584 2836 1778 
Q 2625 1972 2144 2069 
L 1759 2144 
Q 1053 2284 737 2584 
Q 422 2884 422 3419 
Q 422 4038 858 4394 
Q 1294 4750 2059 4750 
Q 2388 4750 2728 4690 
Q 3069 4631 3425 4513 
z
" transform="scale(0.015625)"/>
       <path id="DejaVuSans-4b" d="M 628 4666 
L 1259 4666 
L 1259 2694 
L 3353 4666 
L 4166 4666 
L 1850 2491 
L 4331 0 
L 3500 0 
L 1259 2247 
L 1259 0 
L 628 0 
L 628 4666 
z
" transform="scale(0.015625)"/>
      </defs>
      <use xlink:href="#DejaVuSans-41"/>
      <use xlink:href="#DejaVuSans-53" x="68.408203"/>
      <use xlink:href="#DejaVuSans-4b" x="131.884766"/>
      <use xlink:href="#DejaVuSans-31" x="197.460938"/>
      <use xlink:href="#DejaVuSans-34" x="261.083984"/>
     </g>
    </g>
    <g id="line2d_89">
     <path d="M 263.8225 129.2525 
L 271.8225 129.2525 
L 279.8225 129.2525 
" style="fill: none; stroke: #ffd700; stroke-width: 1.8; stroke-linecap: square"/>
    </g>
    <g id="text_20">
     <!-- BSSA14 -->
     <g transform="translate(286.2225 132.0525) scale(0.08 -0.08)">
      <use xlink:href="#DejaVuSans-42"/>
      <use xlink:href="#DejaVuSans-53" x="66.853516"/>
      <use xlink:href="#DejaVuSans-53" x="130.330078"/>
      <use xlink:href="#DejaVuSans-41" x="195.681641"/>
      <use xlink:href="#DejaVuSans-31" x="264.089844"/>
      <use xlink:href="#DejaVuSans-34" x="327.712891"/>
     </g>
    </g>
   </g>
  </g>
 </g>
 <defs>
  <clipPath id="p3105715af8">
   <rect x="39.0025" y="23.2" width="217.62" height="166.32"/>
  </clipPath>
 </defs>
</svg>
